<?xml version="1.0" standalone="no"?>
<!DOCTYPE svg PUBLIC "-//W3C//DTD SVG 1.1//EN" "http://www.w3.org/Graphics/SVG/1.1/DTD/svg11.dtd" >
<svg>
<metadata>
Created by FontForge 20090914 at Tue Oct 13 21:13:26 2015
 By www-data
&#239;&#190;&#169; !22! Soft 1992
</metadata>
<defs>
<font id="NewjournalPlain" horiz-adv-x="581" >
  <font-face 
    font-family="New Journal"
    font-weight="400"
    font-stretch="normal"
    units-per-em="1000"
    panose-1="2 11 6 4 2 2 2 2 2 4"
    ascent="800"
    descent="-200"
    x-height="466.998"
    cap-height="725"
    bbox="-15.4 -239.259 1227 978"
    underline-thickness="76"
    underline-position="-93"
    unicode-range="U+0020-U+2219"
  />
<missing-glyph horiz-adv-x="500" 
d="M40 667h420v-667h-420v667zM60 647v-627h380v627h-380z" />
    <glyph glyph-name=".notdef" horiz-adv-x="500" 
d="M40 667h420v-667h-420v667zM60 647v-627h380v627h-380z" />
    <glyph glyph-name="space" unicode=" " horiz-adv-x="355" 
 />
    <glyph glyph-name="exclam" unicode="!" horiz-adv-x="389" 
d="M169 155c-2.66699 40 -5.00391 69.666 -7.00391 88.999c-1.33301 20 -2.66602 41.333 -3.99902 64s-2.66602 40.667 -3.99902 54c-0.666992 10 -1.5 20 -2.5 30l-3 30c-1 10 -2.16699 19.667 -3.5 29c-1.33301 28.667 -3.66602 54.334 -6.99902 77.001
c-2.66699 18.667 -4.66699 37.334 -6 56.001c-6 46.667 -9 78.667 -9 96c1.33301 42.667 24.666 64 69.999 64c40 -0.666992 61 -20.334 63 -59.001c0 -14 -0.333008 -24.667 -1 -32c-0.666992 -12 -3.33398 -35.333 -8.00098 -70c-0.666992 -8 -1.66699 -17.5 -3 -28.5
s-2.66602 -19.5 -3.99902 -25.5c-1.33301 -11.333 -2.33301 -20.333 -3 -27l-3 -30c-1.33301 -23.333 -4 -55.666 -8 -96.999c-0.666992 -13.333 -2.16699 -32.333 -4.5 -57s-4.16602 -47 -5.49902 -67c-3.33301 -46.667 -5.66602 -75.334 -6.99902 -86.001zM264.996 83.999
c2 -24.667 -3.33398 -46.833 -16.001 -66.5s-31 -29.5 -55 -29.5c-23.333 0 -41.5 10 -54.5 30s-18.5 42.667 -16.5 68c20 10.667 43.667 16 71 16c24.667 2 48.334 -4 71.001 -18z" />
    <glyph glyph-name="quotedbl" unicode="&#x22;" 
d="M107 556c14.667 22.667 27.5 49.332 38.5 79.999s15.833 53.334 14.5 68.001c0 5.33301 -2 8 -6 8c-8.66699 0.666992 -23 -2.33301 -43 -9c-22.667 24.667 -34 55 -34 91c20.667 14.667 45.667 23 75 25c44.667 0.666992 67 -21 67 -65
c0.666992 -29.333 -8.33301 -66.5 -27 -111.5s-40.667 -89.167 -66 -132.5l-37 23zM281 532.998c22 27.333 39.668 58.501 53.001 93.501s19.333 60.833 18 77.5c0 5.33301 -2 8 -6 8c-6.66699 0.666992 -21.667 -2.33301 -45 -9c-21.333 29.333 -32.333 59.666 -33 90.999
c22.667 14.667 47.667 23 75 25c42 0.666992 64.667 -21 68 -65c0 -30 -9.83301 -68.333 -29.5 -115s-40.834 -89.667 -63.501 -129z" />
    <glyph glyph-name="numbersign" unicode="#" horiz-adv-x="1162" 
d="M707 -64h-100l39 194h-210l-39 -194h-98l38 194h-195l17 100h197l41 210h-196l19 98h196l39 197h98l-37 -197h209l38 197h98l-37 -197h196l-19 -98h-197l-40 -210h196l-19 -100h-197zM665 230l40 210h-209l-40 -210h209z" />
    <glyph glyph-name="dollar" unicode="$" horiz-adv-x="668" 
d="M314 814l41.0059 0.00195312v-68c28.667 0 57 -4.33301 85 -13s51.167 -19.5 69.5 -32.5s33.333 -27.833 45 -44.5s17.5 -33 17.5 -49c0 -14.667 -4.5 -27.334 -13.5 -38.001s-20.833 -16.334 -35.5 -17.001c-16.667 -1.33301 -32.334 4.5 -47.001 17.5
s-24.334 32.5 -29.001 58.5c-1.33301 18 -3.33301 30 -6 36c-4.66699 12.667 -14.834 22.667 -30.501 30s-34.167 10.333 -55.5 9v-268c87.333 -19.333 148.166 -44.166 182.499 -74.499s52.166 -70.5 53.499 -120.5c2 -68 -18.667 -125.833 -62 -173.5
s-101 -75.167 -173 -82.5v-92h-42v89c-71.333 -0.666992 -128.666 10.333 -171.999 33s-65 50.334 -65 83.001c0 15.333 5.33301 28.666 16 39.999s24.667 17 42 17c33.333 0 59.666 -22.667 78.999 -68c6 -18.667 11 -31.334 15 -38.001
c9.33301 -14.667 20.166 -23.5 32.499 -26.5s29.833 -3.83301 52.5 -2.5v311c-74 22.667 -129.833 49.667 -167.5 81s-55.167 79 -52.5 143c1.33301 34 10.5 65 27.5 93s42.167 50.667 75.5 68s72.333 27 117 29v70zM314.006 700.002
c-28.667 -4.66699 -53.832 -17.333 -75.499 -38s-32.834 -50.667 -33.501 -90c0 -36.667 11.5 -64.5 34.5 -83.5s47.833 -32.5 74.5 -40.5v252zM356.008 23.0029c27.333 0 54.168 17.832 80.501 53.499s39.5 71.167 39.5 106.5c0 36.667 -10.833 65.334 -32.5 86.001
s-50.834 37 -87.501 49v-295z" />
    <glyph glyph-name="percent" unicode="%" horiz-adv-x="1038" 
d="M319 404c-43.333 0 -79.167 16 -107.5 48s-42.5 71.667 -42.5 119c0 55.333 15.5 97.166 46.5 125.499s65.5 42.5 103.5 42.5s72.667 -14.167 104 -42.5s47 -70.166 47 -125.499c0 -47.333 -14.167 -87 -42.5 -119s-64.5 -48 -108.5 -48zM716.999 -7
c-42.667 0 -78.002 16 -106.002 48s-42.667 71.333 -44 118c0 56 15.833 98.333 47.5 127s65.834 43 102.501 43c22.667 0 45.667 -6 69 -18s42.833 -31 58.5 -57s23.167 -57.667 22.5 -95c0 -46.667 -14.167 -86 -42.5 -118s-64.166 -48 -107.499 -48zM200.997 -73
c11.333 18 22.332 36.668 32.999 56.001l35 53l62 97l58 90l58 92c14.667 24 31 49.333 49 76l97 155c74 117.333 119.667 198 137 242l65 -45c-10 -11.333 -20.333 -24 -31 -38c-10 -12.667 -18.667 -25.334 -26 -38.001l-16.5 -22c-7.66699 -10 -13.5 -18 -17.5 -24
l-41 -61l-95 -146c-27.333 -40.667 -56.666 -86.667 -87.999 -138c-111.333 -171.333 -180 -283.666 -206 -336.999c-1.33301 -3.33301 -2.66602 -6.33301 -3.99902 -9s-3 -5.33398 -5 -8.00098c-0.666992 -4 -3.66699 -11 -9 -21
c-0.666992 -2.66699 -1.33398 -5 -2.00098 -7s-1.66699 -4.33301 -3 -7zM716.996 24.001c30 0 50 12.5 60 37.5s15 57.5 15 97.5c-3.33301 96 -28.333 144 -75 144c-48 0 -72.667 -48 -74 -144c0 -38 5.33301 -70 16 -96s30 -39 58 -39zM318.996 435.001
c52.667 0 77 45.333 73 136c0 95.333 -24.333 143 -73 143c-46 0 -70.667 -47.667 -74 -143c0 -38.667 5.33301 -71 16 -97s30 -39 58 -39z" />
    <glyph glyph-name="ampersand" unicode="&#x26;" horiz-adv-x="792" 
d="M276 432c76.667 -98.667 163.33 -184.668 259.997 -258.001c12.667 28 21.834 59.667 27.501 95s6.83398 68.333 3.50098 99c-14 8 -32 15 -54 21l-32 7v26h268v-26l-25 -5c-3.33301 0 -7.33301 -0.5 -12 -1.5s-9 -2.16699 -13 -3.5c-6 -2 -9.83301 -3.33301 -11.5 -4
s-5.16699 -1.66699 -10.5 -3c-9.33301 -2.66699 -19.666 -6.33398 -30.999 -11.001c-6.66699 -52 -15 -94.333 -25 -127s-26 -65.334 -48 -98.001c79.333 -68 129.333 -102 150 -102c13.333 2 23.666 9 30.999 21l23 -16c-8.66699 -17.333 -21 -32.666 -37 -45.999
s-33.333 -19 -52 -17c-17.333 0.666992 -35.666 7 -54.999 19s-51.666 35.667 -96.999 71h-8c-30 -33.333 -60.667 -56.333 -92 -69s-68 -20.334 -110 -23.001c-64 -2 -118 8.83301 -162 32.5s-75.667 55.334 -95 95.001s-27 81.834 -23 126.501
c4.66699 42.667 17.667 77.834 39 105.501s49.666 52.834 84.999 75.501c-34.667 56 -51.334 101.667 -50.001 137c1.33301 27.333 10.5 56 27.5 86s41.5 55 73.5 75s70 30 114 30c54.667 0 88.334 -12.833 101.001 -38.5s19 -51.834 19 -78.501
c-4 -35.333 -20.5 -67.833 -49.5 -97.5s-72.167 -62.167 -129.5 -97.5zM198.996 373.999c-27.333 -32.667 -42.335 -71.333 -45.002 -116c-5.33301 -69.333 10.834 -124.5 48.501 -165.5s78.834 -63.833 123.501 -68.5c32 -2 63 3.83301 93 17.5s56 34.5 78 62.5
c-6 4.66699 -16 11.667 -30 21s-38.167 28.166 -72.5 56.499s-68.5 59.333 -102.5 93s-65 66.834 -93 99.501zM255.994 457c82.667 46 127.001 102.668 133.001 170.001c1.33301 24 -3.66699 43.333 -15 58s-26 23 -44 25c-28 2 -53.833 -9.66699 -77.5 -35
s-36.834 -57.333 -39.501 -96c-4 -42.667 10.333 -83.334 43 -122.001z" />
    <glyph glyph-name="quotesingle" unicode="'" horiz-adv-x="290" 
d="M80 452c22.667 28 41.166 60 55.499 96s21.5 63 21.5 81c0 6 -3 9.33301 -9 10h-5c-2 0 -14.667 -2.66699 -38 -8c-21.333 29.333 -32 61.333 -32 96c22 15.333 47.333 23 76 23c44.667 0 67 -22.667 67 -68c0 -29.333 -11.167 -70.333 -33.5 -123
s-45.166 -97 -68.499 -133z" />
    <glyph glyph-name="parenleft" unicode="(" 
d="M399 -234c-78.667 68 -140.669 153.17 -186.002 255.503s-68.666 193.833 -69.999 274.5c-0.666992 46.667 6 93.667 20 141s34.333 91.666 61 132.999s57.834 78.333 93.501 111s72.167 58.334 109.5 77.001v-40c-17.333 -13.333 -38.5 -36 -63.5 -68
s-47.5 -77.333 -67.5 -136s-30.333 -131.334 -31 -218.001c0 -108.667 14 -202.334 42 -281.001s59 -145.334 93 -200.001z" />
    <glyph glyph-name="parenright" unicode=")" 
d="M216 -122c25.333 44 48.335 102.166 69.002 174.499s30.667 153.5 30 243.5c-0.666992 122 -18.834 216 -54.501 282s-71.834 112.667 -108.501 140l1 40c38 -17.333 74.667 -42.666 110 -75.999s65.833 -70.333 91.5 -111s46 -85.167 61 -133.5
s22.167 -95.5 21.5 -141.5c-1.33301 -50 -10.833 -106 -28.5 -168s-45.167 -124.667 -82.5 -188s-85.333 -121.333 -144 -174l-2 55c16 23.333 28 42.333 36 57z" />
    <glyph glyph-name="asterisk" unicode="*" 
d="M270 591c-1.33301 14.667 -4.33594 36.6611 -9.00293 65.9941c-0.666992 6 -1.5 11.667 -2.5 17s-2.16699 12 -3.5 20c-1.33301 13.333 -3 23.333 -5 30c0 10.667 0.333008 16.667 1 18c2.66699 5.33301 8.66699 8 18 8h42c15.333 0 21.333 -8.66699 18 -26
c0 -3.33301 -0.5 -7.83301 -1.5 -13.5s-1.83301 -11.167 -2.5 -16.5c-1.33301 -6.66699 -3.66602 -19 -6.99902 -37c-0.666992 -4.66699 -1.33398 -10.334 -2.00098 -17.001s-2 -13 -4 -19c-1.33301 -13.333 -2.66602 -23.333 -3.99902 -30l4 -3
c11.333 4.66699 21 9.33398 29 14.001l18 9c8 4 13 6.33301 15 7c6 2.66699 11.667 5.5 17 8.5s10.666 5.5 15.999 7.5c12 6.66699 20.667 11.667 26 15c8 3.33301 14 4.66602 18 3.99902c6 -0.666992 10.333 -5.33398 13 -14.001l13 -41
c4 -7.33301 3.33301 -13.666 -2 -18.999c-2.66699 -1.33301 -5 -2.33301 -7 -3s-5.33301 -1.66699 -10 -3c-12 -1.33301 -21.667 -2.66602 -29 -3.99902c-20 -3.33301 -32.667 -5.66602 -38 -6.99902c-13.333 -1.33301 -35.333 -4.66602 -66 -9.99902l-1 -5l26 -26.5
l21 -22.5c6 -6 10.833 -10.667 14.5 -14s7.5 -7.33301 11.5 -12c9.33301 -9.33301 16 -16.666 20 -21.999c6 -3.33301 10 -8.33301 12 -15c0.666992 -3.33301 -2.33301 -9.33301 -9 -18l-35 -22c-12 -12 -22 -9 -30 9c-6 12 -10.667 21 -14 27c-18 36.667 -34 68 -48 94h-5
c-5.33301 -9.33301 -10 -18.666 -14 -27.999l-7.5 -15.5c-2.33301 -5 -5.83301 -10.833 -10.5 -17.5c-2 -5.33301 -4.33301 -10.5 -7 -15.5s-6 -10.833 -10 -17.5l-6 -12c-2.66699 -5.33301 -5 -10.333 -7 -15c-7.33301 -14.667 -17.666 -18.667 -30.999 -12l-35 25
c-5.33301 8.66699 -7.66602 14.667 -6.99902 18c0 4 3 9 9 15l11.5 11.5l9.5 9.5l14.5 14.5c5 5 8.83301 9.16699 11.5 12.5l8.5 8.5c2.33301 2.33301 5.16602 5 8.49902 8s6.33301 5.83301 9 8.5l7.5 7.5c3 3 5.83301 6 8.5 9s5 5.5 7 7.5l-3 5l-35.5 5.5l-40.5 6.5
c-12 2 -21 3.33301 -27 4c-4.66699 0.666992 -10 1.5 -16 2.5s-10.667 1.5 -14 1.5c-20 4.66699 -26.667 13.334 -20 26.001l12 41c7.33301 9.33301 12.333 14 15 14c4.66699 0.666992 10 -0.666016 16 -3.99902c4 -2.66699 7 -4.5 9 -5.5s4.83301 -2.33301 8.5 -4
s6.83398 -3.5 9.50098 -5.5c7.33301 -3.33301 19 -9 35 -17c10.667 -6 21.334 -11.333 32.001 -16c9.33301 -4.66699 19 -9 29 -13z" />
    <glyph glyph-name="plus" unicode="+" horiz-adv-x="834" 
d="M450 38l-58.0029 21.0029c0.666992 6.66699 1.33398 14 2.00098 22s1 13.667 1 17c0.666992 13.333 1.16699 32 1.5 56s0.5 46 0.5 66c0 64 0.666992 105 2 123h-13c-11.333 -0.666992 -25.333 -0.833984 -42 -0.500977s-36 0.5 -58 0.5
c-89.333 0 -153.666 -4.33301 -192.999 -13l20 57c8.66699 0 15.834 -0.166992 21.501 -0.5s11.834 -0.5 18.501 -0.5c53.333 -1.33301 94 -2 122 -2c10.667 0 25.334 -0.333008 44.001 -1s36 -1.33398 52 -2.00098h28c-6 162 -11 264 -15 306l55 -20v-42v-130
c0 -22.667 -0.166992 -40.834 -0.5 -54.501s-0.833008 -28.5 -1.5 -44.5v-15h23c26 2 51.5 3.33301 76.5 4l74.5 2c53.333 2 96.333 5.33301 129 10l-20 -57c-8.66699 0.666992 -22.334 1 -41.001 1h-132c-21.333 0.666992 -40.833 1.16699 -58.5 1.5
s-34.834 0.5 -51.501 0.5v-48v-63c0 -34 0.666992 -66.667 2 -98s5 -63.333 11 -96z" />
    <glyph glyph-name="comma" unicode="," horiz-adv-x="290" 
d="M87 -199c22 28.667 39.6689 61.168 53.002 97.501s19.333 63.166 18 80.499c0 6 -2 9 -6 9c-3.33301 0 -8.33301 -0.666992 -15 -2s-12.834 -2.83301 -18.501 -4.5s-9.5 -2.83398 -11.5 -3.50098c-20 27.333 -31.333 59 -34 95c24 16.667 49 25 75 25
c41.333 0.666992 64 -21.333 68 -66c0.666992 -27.333 -5.83301 -59.666 -19.5 -96.999s-29.334 -73.5 -47.001 -108.5s-26.5 -52.167 -26.5 -51.5z" />
    <glyph glyph-name="hyphen" unicode="-" horiz-adv-x="386" 
d="M52 232l17.001 51c26.667 -2.66699 59.667 -4 99 -4c41.333 0 80 0.666992 116 2s52.667 2 50 2l-15 -45c-50.667 1.33301 -89.334 2 -116.001 2c-64 -1.33301 -114.333 -4 -151 -8z" />
    <glyph glyph-name="period" unicode="." horiz-adv-x="290" 
d="M216 84c1.33301 -25.333 -4.33301 -47.667 -17 -67s-31 -29 -55 -29s-42.167 9.83301 -54.5 29.5s-17.833 42.5 -16.5 68.5c19.333 10 43 16 71 18c26.667 0 50.667 -6.66699 72 -20z" />
    <glyph glyph-name="slash" unicode="/" horiz-adv-x="623" 
d="M15 -73l21.001 35l12 21l17.5 26.5l17.5 26.5c7.33301 10.667 14.333 21.5 21 32.5l20.5 32.5l20.5 32c12 20 31.333 50 58 90l58 92c14.667 24 31 49.333 49 76c10.667 18.667 21 35.667 31 51l32.5 51l33.5 53c74 117.333 119.667 198 137 242l64 -45
c-6.66699 -7.33301 -16.667 -20 -30 -38c-10 -12.667 -18.667 -25.334 -26 -38.001l-16.5 -22c-7.66699 -10 -13.5 -18 -17.5 -24c-6 -10 -13.333 -20.833 -22 -32.5s-15.334 -21.167 -20.001 -28.5l-96 -146l-43 -68.5l-44 -69.5
c-111.333 -171.333 -180 -283.666 -206 -336.999c-3.33301 -8 -6.33301 -13.667 -9 -17c-1.33301 -5.33301 -2.5 -9.16602 -3.5 -11.499s-2.16699 -5.5 -3.5 -9.5c-1.33301 -2.66699 -2.5 -5.33398 -3.5 -8.00098s-2.5 -4.66699 -4.5 -6z" />
    <glyph glyph-name="zero" unicode="0" 
d="M290 -12c-53.333 0 -98.8369 17.332 -136.504 51.999s-65.667 79.834 -84 135.501s-28.5 115.834 -30.5 180.501c-1.33301 66.667 6.5 127.667 23.5 183s44.667 100.166 83 134.499s86.5 51.5 144.5 51.5c45.333 0 84.333 -10 117 -30s58.834 -47 78.501 -81
s34.334 -73.5 44.001 -118.5s13.834 -91.5 12.501 -139.5c-2 -64.667 -12.167 -124.667 -30.5 -180s-46.166 -100.5 -83.499 -135.5s-83.333 -52.5 -138 -52.5zM289.996 22.999c38 0 67.8301 14.6699 89.4971 44.0029s36.334 68.166 44.001 116.499
s12.167 105.833 13.5 172.5c2 30.667 2 61 0 91c-2 68 -10.667 120.333 -26 157s-33.166 60.167 -53.499 70.5s-42.833 15.5 -67.5 15.5c-38.667 0 -71.667 -15.333 -99 -46s-43.333 -96.334 -48 -197.001v-91c2.66699 -70.667 7.83398 -129.334 15.501 -176.001
s22 -84.5 43 -113.5s50.5 -43.5 88.5 -43.5z" />
    <glyph glyph-name="one" unicode="1" 
d="M152 0l0.000976562 23.999l49 12c31.333 8 49.5 17.167 54.5 27.5s6.83301 36.833 5.5 79.5l-12 491c-43.333 -30 -84.333 -52 -123 -66v40c35.333 16.667 81.666 44.667 138.999 84l96 33l-12 -582c-1.33301 -33.333 -1.33301 -55.5 0 -66.5s5.83301 -19.167 13.5 -24.5
s22.5 -10.666 44.5 -15.999l50 -12v-24h-305z" />
    <glyph glyph-name="two" unicode="2" 
d="M486 162l38.999 9.99902l-25 -172h-451v36c0 10.667 3.33301 21.334 10 32.001c2 3.33301 9.66699 11.666 23 24.999c6.66699 6.66699 21.334 24 44.001 52l35.5 40.5c7 7.66699 17.833 20.167 32.5 37.5c10.667 12 18.667 21.333 24 28l21 25.5l24 28.5
c33.333 41.333 60 73.333 80 96c24.667 32.667 42.167 61.5 52.5 86.5s14.5 55.5 12.5 91.5c-4.66699 74 -42.667 111 -114 111c-43.333 -0.666992 -71.666 -21.334 -84.999 -62.001c-1.33301 -6 -4 -14.333 -8 -25c-15.333 -36.667 -38.333 -55.334 -69 -56.001
c-15.333 0 -29 4.33301 -41 13s-18 21.334 -18 38.001c0 22 12.167 42.833 36.5 62.5s54.666 35.334 90.999 47.001s72.166 17.5 107.499 17.5c52 0 100.333 -9.66699 145 -29s68.667 -56.666 72 -111.999c3.33301 -42 -7.5 -83.333 -32.5 -124
s-62.5 -85.334 -112.5 -134.001l-104 -97c-38.667 -37.333 -66.834 -65.166 -84.501 -83.499s-39.5 -45.5 -65.5 -81.5v-7c22.667 8.66699 55.334 17.5 98.001 26.5s76 13.5 100 13.5c6 1.33301 12 1.66602 18 0.999023s12 -1 18 -1c5.33301 0 11.833 -0.5 19.5 -1.5
s14.834 -1.83301 21.501 -2.5c12 -1.33301 20 -2.66602 24 -3.99902c6 -0.666992 12 -0.666992 18 0c9.33301 4 18.333 15 27 33s14 31.333 16 40z" />
    <glyph glyph-name="three" unicode="3" 
d="M83 548l20.998 165.001h427v-36c0 -16.667 -3.66699 -31.334 -11 -44.001c-12.667 -17.333 -20.667 -27.666 -24 -30.999c-12.667 -17.333 -27.334 -35.333 -44.001 -54c-18 -21.333 -35 -40 -51 -56c-5.33301 -6 -23.666 -24.667 -54.999 -56
c-4 -2.66699 -7.33301 -5.33398 -10 -8.00098s-5 -4.66699 -7 -6v-10c28.667 1.33301 58.667 -2.16699 90 -10.5s58 -25.5 80 -51.5s32.667 -62.667 32 -110c-1.33301 -69.333 -25.666 -128.166 -72.999 -176.499s-113.666 -73.5 -198.999 -75.5
c-58.667 0 -107.667 11.667 -147 35s-58 50.666 -56 81.999c1.33301 15.333 7.33301 27.833 18 37.5s23.667 14.5 39 14.5c34 -1.33301 58.667 -24.333 74 -69l9.5 -19.5l7.5 -16.5c11.333 -19.333 31.333 -29 60 -29c53.333 0 92.666 21 117.999 63s35.333 91.333 30 148
c-2.66699 39.333 -14.5 72.166 -35.5 98.499s-60.167 40.833 -117.5 43.5c-21.333 1.33301 -41.333 0 -60 -4l11 50c5.33301 -1.33301 10 -2.66602 14 -3.99902s7.33301 -2 10 -2c17.333 0 42.833 15.333 76.5 46s65.834 66.5 96.501 107.5s48.667 70.5 54 88.5l-10 9
c-4 -2 -7.66699 -3 -11 -3c-6 -2 -10.333 -3.33301 -13 -4s-6 -1.66699 -10 -3c-39.333 -12.667 -84.666 -20.667 -135.999 -24c-14.667 -0.666992 -30.334 -0.666992 -47.001 0c-6.66699 1.33301 -12.5 2.33301 -17.5 3s-9.5 1 -13.5 1c-5.33301 0.666992 -12.333 1 -21 1
c-21.333 0 -42 -25.333 -62 -76z" />
    <glyph glyph-name="four" unicode="4" 
d="M347 698l122.998 27l-15 -472c31.333 -2 60.333 6.33301 87 25v-85l-87 -4v-46c-1.33301 -32.667 -1.66602 -54.5 -0.999023 -65.5s5.16699 -19.5 13.5 -25.5s22.5 -11.333 42.5 -16l46 -12v-24h-287v24l47 12c28.667 6.66699 45.5 15.334 50.5 26.001
s6.83301 37.667 5.5 81l-1 46l-328 4v60c14.667 16.667 35.834 43 63.501 79s61.5 83.667 101.5 143s86.333 133.666 139 222.999zM370.998 253l-9.00098 388h-2c-54.667 -95.333 -105.334 -178.333 -152.001 -249c-7.33301 -11.333 -16.166 -24.333 -26.499 -39l-34.5 -48
c-3.33301 -4.66699 -6.5 -9.5 -9.5 -14.5s-6.16699 -9.83301 -9.5 -14.5s-6.66602 -9.66699 -9.99902 -15v-8h253z" />
    <glyph glyph-name="five" unicode="5" 
d="M493 744l35.0029 -0.000976562c-2.66699 -53.333 -10.334 -87 -23.001 -101s-35.667 -21 -69 -21c-30.667 0 -66.834 3.16699 -108.501 9.5s-77.5 15.5 -107.5 27.5h-7c-19.333 -87.333 -38.666 -163 -57.999 -227c62 23.333 116.667 33.333 164 30
c58 0 107.667 -13.833 149 -41.5s63 -75.167 65 -142.5c2 -50.667 -8.33301 -98.167 -31 -142.5s-55.667 -80 -99 -107s-94.333 -40.5 -153 -40.5c-49.333 1.33301 -93.5 11.833 -132.5 31.5s-58.833 46.167 -59.5 79.5c0 31.333 15.667 49.333 47 54
c39.333 3.33301 66.666 -19.667 81.999 -69c4 -13.333 7.33301 -22.333 10 -27c10 -23.333 31.333 -35 64 -35c39.333 0 75.166 15.167 107.499 45.5s48.5 84.166 48.5 161.499c0 72.667 -14.667 121.334 -44 146.001s-67.666 37 -114.999 37
c-48.667 -1.33301 -90.334 -14.666 -125.001 -39.999l-37 15c16 50 30 109.167 42 177.5s20 121.833 24 160.5h286c14 0 23.5 0.833008 28.5 2.5s10.5 7.16699 16.5 16.5z" />
    <glyph glyph-name="six" unicode="6" 
d="M288 -12c-68.667 1.33301 -127.335 30.833 -176.002 88.5s-71.667 146.5 -69 266.5c1.33301 62.667 12.5 123.167 33.5 181.5s53.333 106.333 97 144s97.834 56.5 162.501 56.5c53.333 0.666992 97.166 -9.16602 131.499 -29.499s52.166 -43.166 53.499 -68.499
c0 -28.667 -13.667 -44.667 -41 -48c-34 -2 -60 16 -78 54c-4 12.667 -7.33301 20.667 -10 24c-8.66699 22 -29.667 33 -63 33c-72 0 -121 -45.667 -147 -137s-37.333 -188 -34 -290c4.66699 -87.333 18.334 -149 41.001 -185s55.667 -54.667 99 -56
c28.667 -1.33301 52.834 5.16699 72.501 19.5s34.834 38.5 45.501 72.5s16 79.667 16 137c4 104 -30.333 157.333 -103 160c-20 2 -40.833 -2.16699 -62.5 -12.5s-40.834 -22.833 -57.501 -37.5c-12 7.33301 -19 17.666 -21 30.999
c49.333 43.333 105.666 64.666 168.999 63.999c52.667 0 97.334 -16.167 134.001 -48.5s53.667 -82.166 51 -149.499c-2.66699 -80.667 -27.167 -145.834 -73.5 -195.501s-103.166 -74.5 -170.499 -74.5z" />
    <glyph glyph-name="seven" unicode="7" 
d="M94 713l428.002 -0.00292969v-45c-30 -60 -58.667 -127.833 -86 -203.5s-51.833 -155.167 -73.5 -238.5s-37.834 -158.666 -48.501 -225.999h-144c21.333 80 63 186.333 125 319l18 36c6 12 11.667 24 17 36l61 127l23.5 44.5l16.5 30.5
c16.667 30.667 25 49.334 25 56.001c0 0.666992 -3 3 -9 7c-2.66699 0 -5 -0.666992 -7 -2c-8 -0.666992 -17.667 -4 -29 -10c-38.667 -14.667 -78 -22 -118 -22c-12.667 0 -32.334 2 -59.001 6c-6.66699 1.33301 -12.834 2.33301 -18.501 3s-13.167 1.66699 -22.5 3
c-2.66699 0.666992 -5.5 1.33398 -8.5 2.00098s-6.16699 1 -9.5 1c-3.33301 1.33301 -6.66602 1.33301 -9.99902 0c-4 -2.66699 -7.66699 -6 -11 -10c-3.33301 -5.33301 -9 -16.666 -17 -33.999c-4 -8.66699 -8.33301 -17.334 -13 -26.001c-2 -9.33301 -5.33301 -18 -10 -26
l-31 12z" />
    <glyph glyph-name="eight" unicode="8" 
d="M185 380c-2.66699 3.33301 -8.33496 7.33301 -17.002 12c-14 10 -22.667 16.333 -26 19c-43.333 32.667 -66.333 75 -69 127c-1.33301 52 16.834 96.167 54.501 132.5s92.834 54.5 165.501 54.5c66.667 0 117.5 -14.167 152.5 -42.5s52.5 -65.166 52.5 -110.499
c0 -74.667 -41.333 -132.334 -124 -173.001v-9c99.333 -30 150.666 -84.667 153.999 -164c0.666992 -44.667 -10.5 -85.167 -33.5 -121.5s-53.667 -64.833 -92 -85.5s-78.166 -31 -119.499 -31c-47.333 0 -92.333 13.167 -135 39.5s-73 66.5 -91 120.5
c-13.333 47.333 -9.83301 91.833 10.5 133.5s59.5 72.5 117.5 92.5v6zM298.999 407c41.333 14 71.334 36.165 90.001 66.498s28 63.5 28 99.5c0 40.667 -12.833 70.334 -38.5 89.001s-55.167 28 -88.5 28c-42.667 0 -73.834 -12.5 -93.501 -37.5s-30.167 -53.5 -31.5 -85.5
c-4 -73.333 40.667 -126.666 134 -159.999zM225 348.998c-58 -22 -88.999 -70.666 -92.999 -145.999c-4 -55.333 8.16699 -98.833 36.5 -130.5s66.833 -48.167 115.5 -49.5c35.333 -0.666992 64.666 7.5 87.999 24.5s39.666 38 48.999 63s13.333 49.833 12 74.5
c-1.33301 40.667 -17.333 72 -48 94c-17.333 10.667 -37.333 21 -60 31l-33.5 15c-12.333 5.33301 -21.166 8.66602 -26.499 9.99902c-2 1.33301 -7.5 3.5 -16.5 6.5s-16.833 5.5 -23.5 7.5z" />
    <glyph glyph-name="nine" unicode="9" 
d="M397 364c-40 -43.333 -94.9951 -63.665 -164.995 -60.998c-58 2.66699 -103.333 22.167 -136 58.5s-48.334 82.833 -47.001 139.5c1.33301 64 23.5 117.5 66.5 160.5s101.167 64.167 174.5 63.5c76 0 137.167 -27 183.5 -81s67.5 -140.667 63.5 -260
c-2 -75.333 -13.833 -142.5 -35.5 -201.5s-53.834 -106.167 -96.501 -141.5s-94.667 -53 -156 -53c-54 0 -98.167 11.333 -132.5 34s-52.166 47.334 -53.499 74.001c0 12.667 4.66699 24.167 14 34.5s21.666 15.833 36.999 16.5c30 0.666992 55.333 -17.333 76 -54
c5.33301 -13.333 10 -23 14 -29c10.667 -27.333 32 -41 64 -41c60 0 101.167 32.833 123.5 98.5s34.833 145.167 37.5 238.5c1.33301 62.667 -1.33398 118 -8.00098 166s-21.5 87.333 -44.5 118s-55.5 46 -97.5 46c-51.333 0 -84.666 -17.333 -99.999 -52
s-25.333 -75.334 -30 -122.001c-0.666992 -56.667 10.666 -99.834 33.999 -129.501s52.666 -43.834 87.999 -42.501c39.333 2 75.666 17.667 108.999 47c10 -6.66699 15.667 -15.667 17 -27z" />
    <glyph glyph-name="colon" unicode=":" horiz-adv-x="290" 
d="M210 462c2 -26.667 -3 -49.501 -15 -68.501s-29 -28.5 -51 -28.5s-39 10.333 -51 31s-17 43.334 -15 68.001c22.667 12 44.667 18 66 18c24.667 0 46.667 -6.66699 66 -20zM210 83.999c2 -26 -2.83203 -48.5 -14.499 -67.5s-28.834 -28.5 -51.501 -28.5
c-22 0 -39 10.167 -51 30.5s-17 42.833 -15 67.5c19.333 10.667 41.333 16.667 66 18c26 0 48 -6.66699 66 -20z" />
    <glyph glyph-name="semicolon" unicode=";" horiz-adv-x="290" 
d="M216 462c1.33301 -25.333 -4.16699 -47.833 -16.5 -67.5s-30.833 -29.5 -55.5 -29.5c-24 0 -42.167 10 -54.5 30s-17.833 43 -16.5 69c25.333 12 49 18 71 18c24.667 0 48.667 -6.66699 72 -20zM87 -205c21.333 26.667 38.833 58.667 52.5 96
s19.834 64.666 18.501 81.999c0 5.33301 -2 8 -6 8c-5.33301 0.666992 -20.333 -2 -45 -8c-20 26 -31.333 57 -34 93c24.667 17.333 49.667 26.333 75 27c41.333 0.666992 64 -21.666 68 -66.999c0.666992 -28 -5.83301 -60.667 -19.5 -98s-29.334 -73.5 -47.001 -108.5
s-26.5 -52.167 -26.5 -51.5z" />
    <glyph glyph-name="less" unicode="&#x3c;" horiz-adv-x="773" 
d="M69 436l563 325l42 -72l-501 -289l501 -288l-42 -73l-563 325v72z" />
    <glyph glyph-name="equal" unicode="=" horiz-adv-x="834" 
d="M23 238l20.9971 56c8.66699 0 15.834 -0.166992 21.501 -0.5s11.5 -0.5 17.5 -0.5c20 -0.666992 41.833 -1.16699 65.5 -1.5s42.5 -0.833008 56.5 -1.5c58.667 0 102.667 -0.333008 132 -1c92.667 0 168.334 1 227.001 3s103.667 4 135 6s53 4 65 6l-20 -55h-41h-132
c-23.333 0 -44.666 0.166992 -63.999 0.5s-44.333 0.5 -75 0.5c-91.333 0.666992 -163.333 0.666992 -216 0c-88.667 0 -153 -4 -193 -12zM68.9971 422l23.001 59c21.333 -2 33.666 -3.33301 36.999 -4c26.667 -0.666992 67.334 -1 122.001 -1
c29.333 -0.666992 73.666 -1 132.999 -1c84 -0.666992 155.333 -0.166992 214 1.5s110 4 154 7s63.333 4.5 58 4.5l-20 -55h-41c-29.333 1.33301 -73.333 2 -132 2h-140c-62 0.666992 -133.333 1 -214 1c-44 0 -81 -0.666992 -111 -2s-57.667 -5.33301 -83 -12z" />
    <glyph glyph-name="greater" unicode="&#x3e;" horiz-adv-x="773" 
d="M702 364l-562 -325l-42 73l499 288l-499 289l42 72l562 -325v-72z" />
    <glyph glyph-name="question" unicode="?" horiz-adv-x="583" 
d="M251 165c-7.33301 32.667 -9.33301 67.335 -6 104.002c2.66699 26 9.33398 48.5 20.001 67.5s30.667 47.5 60 85.5c28 37.333 45 61 51 71c20.667 34 31 68.333 31 103c-0.666992 33.333 -12.334 59.666 -35.001 78.999s-52 29 -88 29c-30 0 -53.333 -4.5 -70 -13.5
s-27.334 -19.5 -32.001 -31.5c-4 -6 -7.33301 -18 -10 -36c-10 -38.667 -33.333 -57.334 -70 -56.001c-30.667 1.33301 -46 17.666 -46 48.999c0 26.667 13.333 49.834 40 69.501s60.167 33.834 100.5 42.501s78.5 12.667 114.5 12c86.667 0 144.5 -15.167 173.5 -45.5
s43.5 -63.166 43.5 -98.499c-1.33301 -64.667 -45.666 -133 -132.999 -205c-4 -2.66699 -17.667 -12.334 -41 -29.001c-22 -16.667 -38.333 -33.334 -49 -50.001s-16 -40.667 -16 -72c0 -21.333 1.33301 -41.333 4 -60zM349 84.001
c1.33301 -27.333 -5.16895 -50.334 -19.502 -69.001s-33.833 -27.667 -58.5 -27c-21.333 2 -38.666 11.333 -51.999 28s-18.666 39.334 -15.999 68.001c18.667 12 42.667 18 72 18c29.333 -1.33301 54 -7.33301 74 -18z" />
    <glyph glyph-name="at" unicode="@" horiz-adv-x="1162" 
d="M835 -101c-38 -22.667 -76.833 -39.335 -116.5 -50.002s-85.5 -16.667 -137.5 -18c-74.667 -2 -143.334 8.33301 -206.001 31s-117 56.834 -163 102.501s-81 100.334 -105 164.001s-36 133.834 -36 210.501c0 96.667 22.667 184.334 68 263.001
s106.833 139.5 184.5 182.5s163.5 64.5 257.5 64.5c92 0 171.333 -15.667 238 -47s120.167 -72.333 160.5 -123s69.166 -105.5 86.499 -164.5s25 -117.5 23 -175.5c-0.666992 -84.667 -24.667 -151.834 -72 -201.501s-106.333 -75.167 -177 -76.5
c-23.333 0 -45.166 3.5 -65.499 10.5s-36.833 25.167 -49.5 54.5h-7c-26.667 -51.333 -82 -76 -166 -74c-26.667 0 -57.834 5.66699 -93.501 17s-68.667 36.833 -99 76.5s-45.5 99.167 -45.5 178.5c0 48 9.33301 92.5 28 133.5s45.167 73.333 79.5 97s74.5 36.5 120.5 38.5
c76 2.66699 129.667 -23 161 -77h7l-7 26v30h112l-2 -344c0 -31.333 4.16699 -52.5 12.5 -63.5s21.166 -16.5 38.499 -16.5c29.333 0 54.333 8.66699 75 26s36.5 41.166 47.5 71.499s16.5 61.5 16.5 93.5c0.666992 61.333 -9 119 -29 173s-48.667 100.5 -86 139.5
s-82.333 69.167 -135 90.5s-110 31.666 -172 30.999c-77.333 -0.666992 -148.833 -20 -214.5 -58s-117.167 -90.167 -154.5 -156.5s-55.666 -139.5 -54.999 -219.5c0.666992 -95.333 21.334 -175.666 62.001 -240.999s93.334 -113.833 158.001 -145.5
s132.667 -46.834 204 -45.501c81.333 0.666992 153 22.334 215 65.001zM699 319.999c0 26.667 -3 53.166 -9 79.499s-18.833 50 -38.5 71s-47.834 31.5 -84.501 31.5c-45.333 2 -80 -14.167 -104 -48.5s-35.333 -78.833 -34 -133.5s13.333 -98.167 36 -130.5
s56.334 -48.166 101.001 -47.499c55.333 0 91.333 20.5 108 61.5s25 79.833 25 116.5z" />
    <glyph glyph-name="A" unicode="A" horiz-adv-x="777" 
d="M476 744c2.66699 -4.66699 4.66895 -12.6699 6.00195 -24.0029c0.666992 -2 1.66699 -5.33301 3 -10s2 -8.66699 2 -12l3 -15l3.5 -10.5c1 -3 1.83301 -6.16699 2.5 -9.5l120 -456c0.666992 -5.33301 4.33398 -17 11.001 -35c6.66699 -24 10.667 -37.333 12 -40
c12 -37.333 21.667 -61.666 29 -72.999s17.333 -19 30 -23l36 -12v-24h-253l-1 24l37 9c34 7.33301 51 17.333 51 30c-1.33301 8.66699 -4 20 -8 34l-63 203c-8 1.33301 -21.333 2.5 -40 3.5s-42.667 1.5 -72 1.5h-36c-8.66699 0 -15.5 -0.166992 -20.5 -0.5
s-10.5 -0.5 -16.5 -0.5c-27.333 0 -47 -0.333008 -59 -1c-8 -2 -15.667 -3 -23 -3l-37 -113l-32.5 -91.5c-5 -14.333 -7.5 -25.166 -7.5 -32.499c0 -5.33301 2 -9.83301 6 -13.5s9.33301 -6.5 16 -8.5s13 -3.66699 19 -5l41 -12l3 -24h-238v24c26 4 47.833 17.833 65.5 41.5
s40.167 65.834 67.5 126.501l15.5 38l15.5 38l15 37c13.333 30 24.666 58.333 33.999 85c37.333 100.667 60.666 182 69.999 244v18c-2.66699 16 -17.334 24.667 -44.001 26h-23l-24 -3c-6.66699 0 -11.334 -0.333008 -14.001 -1c-9.33301 17.333 -7.33301 32 6 44
c6.66699 -0.666992 16.667 -1 30 -1h52c30 1.33301 52.667 3.33301 68 6c24.667 2 47.334 5 68.001 9c12 2 28.667 4.33301 50 7c9.33301 1.33301 17.333 3 24 5zM249.002 349.997c32 -6 66.332 -9 102.999 -9c44 0 87 3 129 9l-104 313
c-0.666992 2.66699 -1.66699 6.16699 -3 10.5s-2.33301 7.16602 -3 8.49902l-22 -2c0 0.666992 -1 -3 -3 -11c-3.33301 -6 -5.33301 -12.333 -6 -19c-2 -6.66699 -3.66699 -12.667 -5 -18s-3.33301 -12.333 -6 -21l-17 -58c-4 -14.667 -7.16699 -26.667 -9.5 -36
s-5.16602 -19.666 -8.49902 -30.999c-16.667 -56 -31.667 -101.333 -45 -136z" />
    <glyph glyph-name="B" unicode="B" horiz-adv-x="780" 
d="M415 725c164.667 0 247.333 -44.334 248 -133.001c0.666992 -45.333 -16.333 -86.5 -51 -123.5s-76 -59.5 -124 -67.5v-11c65.333 -6 116.5 -19.667 153.5 -41s54.5 -58.333 52.5 -111c0 -28 -5.83301 -55.667 -17.5 -83s-30.667 -53 -57 -77s-62 -43 -107 -57
s-98.5 -21 -160.5 -21h-294v24l49 12c31.333 7.33301 49.5 16.333 54.5 27s6.83301 37.334 5.5 80.001l-12 440v31v23c0 18.667 -3.66699 31.5 -11 38.5s-24.333 12.833 -51 17.5l-41 7v25h363zM253.999 62.999c24 -12.667 59 -19.9961 105 -21.9961c46 0 83 6 111 18
s49.167 27.833 63.5 47.5s24 41.667 29 66s6.5 48.166 4.5 71.499c-6.66699 80 -61 120.333 -163 121c-16 0 -32.667 -1 -50 -3c-17.333 -1.33301 -29 -2 -35 -2c-3.33301 5.33301 -5 13.666 -5 24.999c1.33301 11.333 5 19.666 11 24.999
c52 -10.667 100.5 -3.83398 145.5 20.499s70.5 63.5 76.5 117.5c6 52 -4.5 87.5 -31.5 106.5s-72.167 28.5 -135.5 28.5c-40 0 -77.333 -3 -112 -9z" />
    <glyph glyph-name="C" unicode="C" horiz-adv-x="819" 
d="M683 554c-16 49.333 -39.8301 86.334 -71.4971 111.001s-73.5 37.334 -125.5 38.001c-44 0 -86.333 -7.5 -127 -22.5s-76.334 -46.5 -107.001 -94.5s-45 -114.667 -43 -200c2.66699 -124 35 -215.5 97 -274.5s130.667 -88.5 206 -88.5
c47.333 0 88.666 15.167 123.999 45.5s58.333 67.166 69 110.499l35 1l-21 -152c-6.66699 -2.66699 -18 -6.83398 -34 -12.501s-32.5 -10.667 -49.5 -15s-40.667 -8.33301 -71 -12s-57.833 -5.5 -82.5 -5.5c-81.333 0 -152.666 17.833 -213.999 53.5
s-108.5 83.667 -141.5 144s-49.5 126.5 -49.5 198.5c0 86.667 20.167 157.5 60.5 212.5s90.166 94.667 149.499 119s118.333 35.5 177 33.5c14 -0.666992 45 -4 93 -10c21.333 -4 42.666 -6 63.999 -6c32 0 64.333 5.33301 97 16l5 -178z" />
    <glyph glyph-name="D" unicode="D" horiz-adv-x="880" 
d="M52 725l369.998 0.000976562c104 0 193.333 -19.167 268 -57.5s112.334 -122.833 113.001 -253.5c0 -67.333 -15 -132.5 -45 -195.5s-75.667 -115.167 -137 -156.5s-136.666 -62 -225.999 -62h-337v24l53 12c32.667 7.33301 51.5 16.166 56.5 26.499
s6.83301 37.166 5.5 80.499l-11 440v48c0 15.333 -1.33301 26.5 -4 33.5s-8.66699 12.833 -18 17.5s-24 8.33398 -44 11.001l-44 7v25zM265.998 63.001c42 -18 85.001 -26.667 129.001 -26c53.333 0 101 14 143 42s75 69.167 99 123.5s36 120.5 36 198.5
c0 80 -14 141 -42 183s-61.333 69 -100 81s-82.334 18 -131.001 18c-42 0 -81.667 -4 -119 -12z" />
    <glyph glyph-name="E" unicode="E" horiz-adv-x="753" 
d="M641 725l0.000976562 -168l-39 -9c-12 52.667 -29.167 88.334 -51.5 107.001s-56.5 28 -102.5 28h-177l-10 -269c56 -4 96 -5.5 120 -4.5s43.5 8.16699 58.5 21.5s24.5 37 28.5 71h30v-233h-37c-4.66699 33.333 -14.334 57.666 -29.001 72.999s-35.5 24.333 -62.5 27
s-63.167 2.33398 -108.5 -0.999023l-8 -315c64 -8 124 -12 180 -12c38 0 74.167 8.66699 108.5 26s64.5 55.666 90.5 114.999l37 7l-22 -189h-589v24l49 12c30.667 6.66699 48.667 15 54 25s7.33301 37.333 6 82l-10 440c0 7.33301 -0.166992 13.166 -0.5 17.499
s-0.833008 8.83301 -1.5 13.5v23c0 19.333 -3.33301 32.333 -10 39s-24 12.334 -52 17.001l-41 7v25h589z" />
    <glyph glyph-name="F" unicode="F" horiz-adv-x="700" 
d="M617 725l-0.00195312 -168l-39 -9c-12 52.667 -29.167 88.334 -51.5 107.001s-56.166 28 -101.499 28h-149l-7 -269c72 -4.66699 120.5 -2.83398 145.5 5.49902s40.167 35.833 45.5 82.5h30v-233h-35c-8.66699 48.667 -25.167 78.5 -49.5 89.5s-69.833 14.167 -136.5 9.5
l-6 -225c-1.33301 -34.667 -1.66602 -56.5 -0.999023 -65.5s5.5 -17.167 14.5 -24.5s25.167 -13 48.5 -17l67 -12v-24h-334v24l49 12c30.667 6.66699 48.667 15 54 25s7.33301 37.333 6 82l-10 440c0 7.33301 -0.166992 13.166 -0.5 17.499s-0.833008 8.83301 -1.5 13.5v23
c0 19.333 -3.33301 32.333 -10 39s-24 12.334 -52 17.001l-41 7v25h565z" />
    <glyph glyph-name="G" unicode="G" horiz-adv-x="915" 
d="M683 554c-16 49.333 -39.832 86.332 -71.499 110.999s-73.5 37.334 -125.5 38.001c-44 0 -86.333 -7.5 -127 -22.5s-76.334 -46.5 -107.001 -94.5s-45 -114.667 -43 -200c2 -86.667 19.333 -157.5 52 -212.5s72.167 -94.167 118.5 -117.5s90.5 -34.333 132.5 -33
c28.667 0 61.834 6.66699 99.501 20s58.834 28.666 63.501 45.999c1.33301 4.66699 2 11 2 19v12v13l-3 110c-22 14.667 -52.333 25 -91 31l-30 4v26h283v-26l-13 -8c-18.667 -7.33301 -31.667 -13 -39 -17l-7 -197c-37.333 -25.333 -79 -44.333 -125 -57
s-102.667 -18 -170 -16c-88 2 -162.167 21.5 -222.5 58.5s-105.833 85.333 -136.5 145s-46 123.834 -46 192.501c0 86.667 20.167 157.5 60.5 212.5s90.166 94.667 149.499 119s118.333 35.5 177 33.5c14 -0.666992 45 -4 93 -10c21.333 -4 42.666 -6 63.999 -6
c32 0 64.333 5.33301 97 16l5 -178z" />
    <glyph glyph-name="H" unicode="H" horiz-adv-x="926" 
d="M713 0h-155.998v24l50 12c31.333 7.33301 49.666 16.5 54.999 27.5s7.33301 37.5 6 79.5l-5 212c-8.66699 1.33301 -21 3 -37 5s-32 3.33301 -48 4c-20 0.666992 -49.333 1 -88 1h-90c-52 -1.33301 -97.333 -4.66602 -136 -9.99902l-6 -212
c-1.33301 -31.333 -1.5 -52.5 -0.5 -63.5s5.66699 -19.667 14 -26s23.833 -12.166 46.5 -17.499l52 -12v-24h-312v24l50 12c31.333 7.33301 49.5 16.166 54.5 26.499s6.83301 37.166 5.5 80.499l-10 440c0 6.66699 -0.166992 12.167 -0.5 16.5s-0.5 9.16602 -0.5 14.499v23
c-1.33301 20.667 -5.5 34 -12.5 40s-23.833 11.333 -50.5 16l-42 7v25h322v-25l-43 -7c-26.667 -4.66699 -43.334 -10.167 -50.001 -16.5s-10.667 -19.5 -12 -39.5v-23c0 -14 -0.333008 -24.333 -1 -31l-4 -171c38.667 -5.33301 85.334 -8 140.001 -8h88
c10 0.666992 23.667 1 41 1h48c26.667 0 54 2.33301 82 7l-6 171v31c0 4.66699 -0.166992 8.66699 -0.5 12s-0.5 7 -0.5 11c0 19.333 -3.33301 32.333 -10 39s-24.334 12.334 -53.001 17.001l-41 7v25h322v-25l-41 -7c-28 -4.66699 -45.167 -10.167 -51.5 -16.5
s-10.166 -19.5 -11.499 -39.5c0 -10.667 -0.666992 -18.334 -2 -23.001v-31l-10 -440c-1.33301 -31.333 -1.5 -52.666 -0.5 -63.999s5.66699 -20 14 -26s24.166 -11.667 47.499 -17l50 -12v-24h-156z" />
    <glyph glyph-name="I" unicode="I" horiz-adv-x="441" 
d="M58 0v24.001l53 12c32.667 7.33301 51.5 16.166 56.5 26.499s6.83301 37.166 5.5 80.499l-11 440v48c0 15.333 -1.33301 26.5 -4 33.5s-8.66699 12.833 -18 17.5s-24 8.33398 -44 11.001l-44 7v25h337v-25l-43 -7c-29.333 -4.66699 -47.5 -10 -54.5 -16
s-11.167 -19.333 -12.5 -40v-23v-31l-11 -440c-1.33301 -32 -1.33301 -53.5 0 -64.5s6 -19.5 14 -25.5s24 -11.667 48 -17l54 -12v-24h-326z" />
    <glyph glyph-name="J" unicode="J" horiz-adv-x="501" 
d="M112 700v25.002h336v-25l-43 -7c-28.667 -4.66699 -46.334 -10 -53.001 -16s-10.667 -19.333 -12 -40c0 -10.667 -0.333008 -18.334 -1 -23.001v-31l-9 -314c0 -36.667 -0.5 -69.667 -1.5 -99s-5.5 -58.5 -13.5 -87.5s-22.5 -52.833 -43.5 -71.5s-50.167 -28 -87.5 -28
c-43.333 -0.666992 -79 15 -107 47s-41 66 -39 102c2 35.333 18.333 53 49 53c26 0.666992 46.167 -10 60.5 -32s21.5 -45.667 21.5 -71c0 -15.333 -3.66699 -28.333 -11 -39c2 -13.333 12.333 -20 31 -20c12.667 0 24.334 5.5 35.001 16.5s15.667 32.5 15 64.5
c0 16 -1.33301 30.333 -4 43c-2 37.333 -3.16699 65.333 -3.5 84s-0.833008 34.334 -1.5 47.001l-7 305c-1.33301 47.333 -4 76.166 -8 86.499s-24 18.166 -60 23.499z" />
    <glyph glyph-name="K" unicode="K" horiz-adv-x="816" 
d="M764 725v-25.001c-36.667 -7.33301 -68.5 -19.5 -95.5 -36.5s-61.167 -43.833 -102.5 -80.5c-22.667 -18.667 -49 -43 -79 -73l-30 -29c-10.667 -10.667 -19.334 -19 -26.001 -25l-7 -7l-8 -8c-1.33301 -1.33301 -3.33301 -4 -6 -8v-12
c1.33301 -2 2.66602 -4.16699 3.99902 -6.5s2 -4.5 2 -6.5c4 -6 8.16699 -11.833 12.5 -17.5s8.5 -12.167 12.5 -19.5c2.66699 -3.33301 10.167 -13.666 22.5 -30.999l31.5 -45c23.333 -30 44.333 -58.333 63 -85l32 -42l27 -35c26 -32.667 45.667 -56.334 59 -71.001
s26 -21.667 38 -21c2.66699 0 9.33398 2.66699 20.001 8c2.66699 2 5 3.83301 7 5.5s4.33301 3.16699 7 4.5c2 2 4.16699 3.83301 6.5 5.5l6.5 4.5l18 -26c-10.667 -9.33301 -28.667 -21.666 -54 -36.999s-43.333 -23 -54 -23c-24 0 -81 50.667 -171 152
c-22.667 25.333 -40 45.333 -52 60c-5.33301 8 -24 31 -56 69c-8 11.333 -15.5 21.5 -22.5 30.5l-28.5 35.5c-2.66699 5.33301 -6 10.333 -10 15s-7.66699 9.33398 -11 14.001c-8 10.667 -12 18 -12 22c0 7.33301 9 20.666 27 39.999l166 190c37.333 42.667 56 66.667 56 72
c-1.33301 2.66699 -2.66602 4.66699 -3.99902 6c-2 2 -5 3 -9 3l-5 2.5c-2 1 -4 1.83301 -6 2.5l-26 3v25h257zM52 724.999l313.999 0.00292969v-26l-40 -7c-27.333 -4.66699 -44.333 -10.334 -51 -17.001s-10 -20.334 -10 -41.001c0 -4 -0.166992 -7.5 -0.5 -10.5
s-0.5 -6.16699 -0.5 -9.5v-31l-11 -443c-1.33301 -43.333 0.666992 -69.833 6 -79.5s23 -17.834 53 -24.501l49 -10v-26h-303v26l49 10c20.667 4 35 8.83301 43 14.5s12.833 14 14.5 25s1.83398 32.5 0.500977 64.5l-10 444c0 13.333 -0.333008 24 -1 32v21
c0 18.667 -3.5 31.5 -10.5 38.5s-23.833 12.833 -50.5 17.5l-41 7v25z" />
    <glyph glyph-name="L" unicode="L" horiz-adv-x="657" 
d="M58 0l0.000976562 23.999l51 12c24.667 5.33301 41 11 49 17s12.667 14.5 14 25.5s1.33301 32.5 0 64.5l-12 440v31c0 9.33301 -0.333008 17 -1 23c0 19.333 -3.5 32.333 -10.5 39s-24.5 12.334 -52.5 17.001l-44 7v25h333v-25l-44 -7
c-28.667 -4.66699 -46.334 -10.167 -53.001 -16.5s-10.667 -19.5 -12 -39.5v-23c0 -14 -0.333008 -24.333 -1 -31l-14 -527c50 -10 96.667 -15 140 -15c46.667 -1.33301 83.667 7.16699 111 25.5s52 52.5 74 102.5l37 6l-17 -175h-548z" />
    <glyph glyph-name="M" unicode="M" horiz-adv-x="1051" 
d="M529 328l174.002 397.005h275v-25l-69 -20c-6 -1.33301 -10.333 -3 -13 -5c-1.33301 0 -4 -0.666992 -8 -2c-3.33301 -2.66699 -5.66602 -6.83398 -6.99902 -12.501s-1.83301 -11.5 -1.5 -17.5s0.5 -13 0.5 -21l14 -523c0.666992 -3.33301 1 -8.66602 1 -15.999
c0.666992 -3.33301 1 -7.33301 1 -12c2.66699 -9.33301 5.66699 -15.833 9 -19.5s12 -7.83398 26 -12.501l54 -15v-24h-300v24l50 14c30 8.66699 48.833 15.667 56.5 21s10.5 18.666 8.5 39.999l-45 589h-11l-222 -513l-40 -7l-203 520h-15l-49 -589
c-0.666992 -8 -1 -18 -1 -30c0 -2 0.666992 -5.66699 2 -11c2 -3.33301 7.66699 -6.33301 17 -9l8 -2l12 -3l76 -20v-24h-280v24c21.333 4.66699 40.166 14.667 56.499 30s30.666 42.666 42.999 81.999s23.166 99.333 32.499 180s15.333 180.667 18 300v30
c0 8.66699 -1.16699 15.167 -3.5 19.5s-6.83301 8.16602 -13.5 11.499c-14 3.33301 -25.333 6.66602 -34 9.99902l-42 9c-12 2.66699 -19.333 4 -22 4l-1 25h319l120 -397h7z" />
    <glyph glyph-name="N" unicode="N" horiz-adv-x="942" 
d="M305 725l409.003 -581h6l-10 439c-1.33301 47.333 -4.33301 76.166 -9 86.499s-24.334 18.166 -59.001 23.499l-44 7v25h291v-25l-43 -7c-29.333 -4.66699 -47.5 -10 -54.5 -16s-11.167 -19.333 -12.5 -40v-23v-31l-18 -600h-42l-490 644h-9l12 -485
c0 -5.33301 0.166992 -10.166 0.5 -14.499s0.5 -9.83301 0.5 -16.5v-22c0 -12.667 1.5 -22.5 4.5 -29.5s9.16699 -12.667 18.5 -17s23.666 -7.83301 42.999 -10.5l44 -8v-24h-291v24l44 8c21.333 4 36.166 8 44.499 12s14 9.83301 17 17.5s4.5 19 4.5 34v46.5l11 440
c1.33301 43.333 -0.5 70.333 -5.5 81s-23.833 19.334 -56.5 26.001l-53 11v25h247z" />
    <glyph glyph-name="O" unicode="O" horiz-adv-x="922" 
d="M461 -17c-43.333 0 -86.835 7.83301 -130.502 23.5s-84.5 39.5 -122.5 71.5s-68.667 72.167 -92 120.5s-36.333 105.5 -39 171.5c-4 109.333 30.333 199 103 269s166.334 105 281.001 105c76 0 143.833 -15.833 203.5 -47.5s105.334 -76.167 137.001 -133.5
s46.5 -121.666 44.5 -192.999c-2 -63.333 -14.833 -119.833 -38.5 -169.5s-54 -90.334 -91 -122.001s-77.833 -55.5 -122.5 -71.5s-89 -24 -133 -24zM460.998 23c47.333 0 90.002 12.168 128.002 36.501s68.333 62.833 91 115.5s35 118 37 196
c0.666992 75.333 -10.5 137.666 -33.5 186.999s-54 85.833 -93 109.5s-82.167 35.5 -129.5 35.5c-73.333 0 -134.5 -27.333 -183.5 -82s-72.5 -138 -70.5 -250c0.666992 -76.667 12.167 -141 34.5 -193s52.666 -90.833 90.999 -116.5s81.166 -38.5 128.499 -38.5z" />
    <glyph glyph-name="P" unicode="P" horiz-adv-x="738" 
d="M216 0l-158 -0.000976562v24l51 12c30.667 7.33301 48.834 16.166 54.501 26.499s7.83398 37.166 6.50098 80.499l-11 440v31c-0.666992 4.66699 -1 12.334 -1 23.001c0 19.333 -3.33301 32.333 -10 39s-24.667 12.334 -54 17.001l-42 7v25h345
c58.667 0 107 -3.5 145 -10.5s68.667 -21.167 92 -42.5s36.333 -52.666 39 -93.999c2 -40.667 -5.83301 -81 -23.5 -121s-46.5 -73.5 -86.5 -100.5s-89.667 -41.833 -149 -44.5c-44 -2 -85.667 3.66699 -125 17c1.33301 12.667 5 24.667 11 36
c29.333 -10.667 59.666 -16 90.999 -16c100.667 1.33301 151 60 151 176c0.666992 46 -6.16602 80.5 -20.499 103.5s-34.833 38.167 -61.5 45.5s-58.334 10.333 -95.001 9c-36 0 -66 -2 -90 -6l-14 -534c-1.33301 -28.667 -1.33301 -49 0 -61s6.16602 -21.667 14.499 -29
s24.5 -13 48.5 -17l67 -12v-24h-175z" />
    <glyph glyph-name="Q" unicode="Q" horiz-adv-x="922" 
d="M77 370c-4 109.333 30.3291 199.001 102.996 269.001s166.334 105 281.001 105c76 0 143.833 -15.833 203.5 -47.5s105.334 -76.167 137.001 -133.5s46.5 -121.666 44.5 -192.999c-2 -68 -18.667 -131.167 -50 -189.5s-74.833 -105.333 -130.5 -141
s-120.5 -54.5 -194.5 -56.5v-5c58.667 -18 104.667 -39.667 138 -65l16.5 -14c5.66699 -4.66699 9.83398 -8.33398 12.501 -11.001c18.667 -17.333 34.334 -26 47.001 -26c10 -0.666992 21 3.83301 33 13.5s26.333 23.167 43 40.5l27 -24l-13 -16
c-6 -7.33301 -11.667 -13.833 -17 -19.5s-10.666 -11.834 -15.999 -18.501c-6.66699 -5.33301 -11.834 -9.83301 -15.501 -13.5s-7.83398 -7.5 -12.501 -11.5l-14 -11l-20 -15c-13.333 -6.66699 -26.333 -10 -39 -10c-21.333 -0.666992 -39.333 5.16602 -54 17.499
s-32.667 31.833 -54 58.5c-19.333 27.333 -35.333 48.333 -48 63c-39.333 41.333 -88.666 70 -147.999 86c-55.333 19.333 -102.333 47.833 -141 85.5s-67.667 80.834 -87 129.501s-30 99.667 -32 153zM460.996 23.001c47.333 0 90.002 12.168 128.002 36.501
s68.333 62.833 91 115.5s35 118 37 196c0.666992 75.333 -10.5 137.666 -33.5 186.999s-54 85.833 -93 109.5s-82.167 35.5 -129.5 35.5c-73.333 0 -134.5 -27.333 -183.5 -82s-72.5 -138 -70.5 -250c0.666992 -76.667 12.167 -141 34.5 -193s52.666 -90.833 90.999 -116.5
s81.166 -38.5 128.499 -38.5z" />
    <glyph glyph-name="Q" horiz-adv-x="922" 
d="M77 370c-4 109.333 30.3291 199.001 102.996 269.001s166.334 105 281.001 105c76 0 143.833 -15.833 203.5 -47.5s105.334 -76.167 137.001 -133.5s46.5 -121.666 44.5 -192.999c-2 -68 -18.667 -131.167 -50 -189.5s-74.833 -105.333 -130.5 -141
s-120.5 -54.5 -194.5 -56.5v-5c58.667 -18 104.667 -39.667 138 -65l16.5 -14c5.66699 -4.66699 9.83398 -8.33398 12.501 -11.001c18.667 -17.333 34.334 -26 47.001 -26c10 -0.666992 21 3.83301 33 13.5s26.333 23.167 43 40.5l27 -24l-13 -16
c-6 -7.33301 -11.667 -13.833 -17 -19.5s-10.666 -11.834 -15.999 -18.501c-6.66699 -5.33301 -11.834 -9.83301 -15.501 -13.5s-7.83398 -7.5 -12.501 -11.5l-14 -11l-20 -15c-13.333 -6.66699 -26.333 -10 -39 -10c-21.333 -0.666992 -39.333 5.16602 -54 17.499
s-32.667 31.833 -54 58.5c-19.333 27.333 -35.333 48.333 -48 63c-39.333 41.333 -88.666 70 -147.999 86c-55.333 19.333 -102.333 47.833 -141 85.5s-67.667 80.834 -87 129.501s-30 99.667 -32 153zM460.996 23.001c47.333 0 90.002 12.168 128.002 36.501
s68.333 62.833 91 115.5s35 118 37 196c0.666992 75.333 -10.5 137.666 -33.5 186.999s-54 85.833 -93 109.5s-82.167 35.5 -129.5 35.5c-73.333 0 -134.5 -27.333 -183.5 -82s-72.5 -138 -70.5 -250c0.666992 -76.667 12.167 -141 34.5 -193s52.666 -90.833 90.999 -116.5
s81.166 -38.5 128.499 -38.5z" />
    <glyph glyph-name="R" unicode="R" horiz-adv-x="809" 
d="M213 0l-154.998 0.00390625v24l50 12c31.333 6.66699 49.5 15 54.5 25s6.83301 37.333 5.5 82l-11 440v31v23c-1.33301 20.667 -5.16602 34 -11.499 40s-23.5 11.333 -51.5 16l-42 7v25h227h60c70.667 0 123.334 -2 158.001 -6
c78.667 -6.66699 131.167 -29.667 157.5 -69s38.833 -78.333 37.5 -117c-2.66699 -100 -66.334 -159.667 -191.001 -179c-0.666992 -0.666992 -5 -1.66699 -13 -3c-4 -2 -6 -4.33301 -6 -7c0 -8.66699 12.5 -32 37.5 -70s48.833 -72.5 71.5 -103.5l65 -87.5
c2.66699 -2.66699 6.16699 -6.5 10.5 -11.5l10.5 -12.5c2.66699 -6 7.66699 -10.333 15 -13c5.33301 -3.33301 9.66602 -5 12.999 -5c12.667 0 31 11 55 33l20 -30c-2.66699 -2.66699 -5.33398 -4.83398 -8.00098 -6.50098l-7 -4.5c-2 -1.33301 -4.33301 -3 -7 -5
c-16.667 -9.33301 -29.667 -16.333 -39 -21c-15.333 -10 -26 -16 -32 -18c-10 -4 -18.333 -6 -25 -6c-14 0 -35.167 14.333 -63.5 43s-59 63.667 -92 105s-66 85.166 -99 131.499s-55.5 80.5 -67.5 102.5v12c72.667 1.33301 128.834 13 168.501 35s59.834 62 60.501 120
c0.666992 49.333 -11.833 85.5 -37.5 108.5s-60.334 36.833 -104.001 41.5s-95.834 4 -156.501 -2l-15 -537c0 -36.667 0.833008 -59.834 2.5 -69.501s6.66699 -17.334 15 -23.001s23.166 -10.5 44.499 -14.5l50 -12v-24h-155z" />
    <glyph glyph-name="S" unicode="S" horiz-adv-x="654" 
d="M578 744l-6.00293 -195.998h-34c-6.66699 42.667 -21.834 75.334 -45.501 98.001s-49.667 37.834 -78 45.501s-56.166 11.5 -83.499 11.5c-44 -0.666992 -78 -13.334 -102 -38.001s-36 -55.667 -36 -93c0 -34.667 10.5 -61.334 31.5 -80.001s52.167 -35.667 93.5 -51
l50.5 -13.5c19 -5 32.167 -8.83301 39.5 -11.5c64 -18.667 107.667 -41.667 131 -69s36 -60.666 38 -99.999c2 -53.333 -8.66699 -99.833 -32 -139.5s-55.333 -70.334 -96 -92.001s-85.667 -32.5 -135 -32.5c-21.333 -1.33301 -63.166 2.16699 -125.499 10.5
s-96.5 17.5 -102.5 27.5c-2 1.33301 -3 5 -3 11c0 4 -0.166992 7.16699 -0.5 9.5s-0.5 4.83301 -0.5 7.5l-5 156h36c16.667 -59.333 38.5 -104 65.5 -134s68.5 -46 124.5 -48c32.667 -0.666992 60.834 6.66602 84.501 21.999s42 35.5 55 60.5s19.5 50.833 19.5 77.5
c0 59.333 -33.333 102 -100 128c-13.333 4.66699 -25.333 8.66699 -36 12s-21.667 7 -33 11c-40 12 -75.333 25.667 -106 41s-56.667 37.833 -78 67.5s-31 66.834 -29 111.501c3.33301 80 32.833 131.667 88.5 155s109.5 35 161.5 35c24.667 0 46.334 -1.33301 65.001 -4
c2.66699 0 18.667 -2.66699 48 -8c20 -3.33301 38.333 -7.33301 55 -12c15.333 -1.33301 24.333 -2 27 -2c6 1.33301 9.66699 3.33301 11 6c3.33301 5.33301 5 8.66602 5 9.99902c1.33301 5.33301 2 8.66602 2 9.99902h35z" />
    <glyph glyph-name="T" unicode="T" horiz-adv-x="794" 
d="M235 0v24l59 12c21.333 4 36.166 9.83301 44.499 17.5s13 17.334 14 29.001s0.833008 31.834 -0.5 60.501l-13 540h-74c-23.333 0 -45.666 -7.83301 -66.999 -23.5s-40.166 -36.167 -56.499 -61.5s-27.833 -50.333 -34.5 -75l-43 -6l12 208h643l9 -194l-38 -8
c-1.33301 4 -3.5 9.16699 -6.5 15.5l-9.5 19.5c-2 5.33301 -4.33301 10.5 -7 15.5s-5.16699 10.167 -7.5 15.5s-4.83301 10.333 -7.5 15c-29.333 52.667 -69 79 -119 79h-83l-11 -540c-1.33301 -28.667 -1.5 -48.834 -0.5 -60.501s5.66699 -21.334 14 -29.001
s23.166 -13.5 44.499 -17.5l57 -12v-24h-319z" />
    <glyph glyph-name="U" unicode="U" horiz-adv-x="899" 
d="M52 725l337.001 0.00195312v-25l-43 -7c-29.333 -4.66699 -47.5 -10 -54.5 -16s-11.167 -19.333 -12.5 -40v-23v-31l-3 -81c-2 -111.333 -0.666992 -198 4 -260s14.167 -109.333 28.5 -142s33.166 -53.667 56.499 -63s57.333 -14 102 -14
c38.667 0 71.667 4.83301 99 14.5s50.666 30.667 69.999 63s31 79.166 35 140.499c1.33301 18 2 44.333 2 79c-1.33301 14 -2 34.333 -2 61c0 13.333 -0.166992 24.166 -0.5 32.499s-0.833008 17.166 -1.5 26.499c0 14.667 -0.166992 26.667 -0.5 36s-0.5 19.333 -0.5 30
l-3 77c0 47.333 -2 76.166 -6 86.499s-24.333 18.166 -61 23.499l-42 7v25h290v-25l-45 -7c-28.667 -4.66699 -46.167 -10 -52.5 -16s-10.166 -19.333 -11.499 -40v-23c0 -14 -0.666992 -24.333 -2 -31l-1 -75c0 -13.333 -0.166992 -24.166 -0.5 -32.499
s-0.833008 -17.5 -1.5 -27.5v-73c-2 -89.333 -10 -161.166 -24 -215.499s-32.667 -94 -56 -119s-48.333 -40.5 -75 -46.5s-63 -9.66699 -109 -11c-61.333 -1.33301 -108.833 2.66699 -142.5 12s-62 30.833 -85 64.5s-40.333 84 -52 151s-19.5 163.833 -23.5 290.5l-3 82v48
c0 15.333 -1.33301 26.5 -4 33.5s-8.66699 12.833 -18 17.5s-24 8.33398 -44 11.001l-44 7v25z" />
    <glyph glyph-name="V" unicode="V" horiz-adv-x="823" 
d="M271 594l155 -505.002h6l190 492c19.333 44.667 27.666 73.334 24.999 86.001c-4 12.667 -34.333 23.667 -91 33v25h259v-25c-25.333 -5.33301 -43.666 -15.833 -54.999 -31.5s-25 -39.167 -41 -70.5l-292 -615h-61l-244 659c-6.66699 18 -13.167 31.333 -19.5 40
s-17.5 14 -33.5 16l-26 2v25h275v-25l-19 -2c-32 -4 -48 -12.333 -48 -25c-0.666992 -5.33301 6 -31.666 20 -78.999z" />
    <glyph glyph-name="W" unicode="W" horiz-adv-x="1194" 
d="M271 594l154.999 -505.001h6l146 408l-55 145c-6.66699 18 -13 31.333 -19 40s-17 14 -33 16l-26 2v25h274v-25l-19 -2c-31.333 -4 -47 -12.333 -47 -25c-0.666992 -8.66699 6.33301 -35 21 -79l154 -505h5l160 492c4 12 7.83301 22.667 11.5 32s6.66699 18 9 26
s3.83301 14 4.5 18s0.333984 7.33301 -0.999023 10c-2 12.667 -32.667 23.667 -92 33v25h261v-25c-22.667 -4.66699 -41 -15.5 -55 -32.5s-27.333 -40.167 -40 -69.5l-262 -615h-61l-159 427l-182 -427h-61l-244 659c-6.66699 18 -13.167 31.333 -19.5 40s-17.5 14 -33.5 16
l-26 2v25h275v-25l-19 -2c-32 -4 -48 -12.333 -48 -25c-0.666992 -5.33301 6 -31.666 20 -78.999z" />
    <glyph glyph-name="X" unicode="X" horiz-adv-x="831" 
d="M439 427l87 118.997l31 45c29.333 40 45.666 67.333 48.999 82c0 16 -22.667 25 -68 27v25h246v-25c-21.333 -2.66699 -42.5 -11.5 -63.5 -26.5s-45.5 -39.167 -73.5 -72.5c-4 -6 -11.333 -14.333 -22 -25c-8 -10 -17 -20 -27 -30l-131 -151l135 -203
c38.667 -59.333 69.334 -101.166 92.001 -125.499s50.667 -38.5 84 -42.5v-24h-282v24l35 7c26.667 3.33301 40.667 9.33301 42 18c0 9.33301 -2 17 -6 23c-3.33301 6 -7 11.333 -11 16l-28.5 41.5c-15.667 23 -26.167 37.833 -31.5 44.5l-105 152l-111 -157l-14.5 -21
l-12.5 -18c-2.66699 -3.33301 -6.16699 -8.16602 -10.5 -14.499l-13.5 -19.5c-12.667 -20 -19.667 -32.667 -21 -38c-0.666992 -6.66699 1.16602 -11.5 5.49902 -14.5s15.5 -6.16699 33.5 -9.5l52 -10v-24h-262v24c28 9.33301 58.667 31 92 65l43 46
c14.667 16 25.667 28.333 33 37l155 188l-153 209c-14.667 19.333 -24 32.333 -28 39c-12 16 -21 28.667 -27 38c-15.333 20 -29.666 33.833 -42.999 41.5s-35.333 11.834 -66 12.501v25h317v-25c-16.667 0 -31.667 -2.83301 -45 -8.5s-20.666 -12.5 -21.999 -20.5
c-4.66699 -9.33301 14.666 -46.333 57.999 -111z" />
    <glyph glyph-name="Y" unicode="Y" horiz-adv-x="737" 
d="M208 0v23.999l53 12c32 6.66699 51 15.334 57 26.001s8.33301 37.667 7 81l-6 168l-164 278c-26.667 42.667 -48.667 71.667 -66 87s-44.333 23.333 -81 24v25h281v-25c-35.333 -2 -54.333 -11.667 -57 -29c-2.66699 -13.333 7 -39.333 29 -78l116 -242h8l132 245
c24 39.333 36 65 36 77c-0.666992 16.667 -21 25.667 -61 27v25h236v-25c-54 -7.33301 -100.333 -42 -139 -104l-165 -268v-9l-7 -176c0 -36 0.666992 -58.5 2 -67.5s6.33301 -16.5 15 -22.5s24.667 -11.667 48 -17l51 -12v-24h-325z" />
    <glyph glyph-name="Z" unicode="Z" horiz-adv-x="717" 
d="M659 725c6 0 9.66602 -3.49805 10.999 -10.498s-0.666992 -14.167 -6 -21.5l-484 -652h182c48.667 0 90.667 9.33301 126 28s65 60.667 89 126l6 18c0.666992 2 3.33398 5.33301 8.00098 10c3.33301 2 8.66602 3 15.999 3c6.66699 0 11.334 -1 14.001 -3
c2.66699 -1.33301 4 -4 4 -8c0.666992 -2 0 -7.33301 -2 -16l-22 -161c-1.33301 -9.33301 -2.66602 -16.833 -3.99902 -22.5s-4 -10.167 -8 -13.5c-2 -0.666992 -8 -1 -18 -1c-4.66699 0 -8.66699 -0.166992 -12 -0.5s-7 -0.5 -11 -0.5h-490c-4 0 -6 4.33301 -6 13
s1.33301 15 4 19l455 651h-140c-56 0 -103.333 -9 -142 -27s-67.334 -58 -86.001 -120c0 -2.66699 -1.66699 -5.33398 -5 -8.00098c-2 -3.33301 -7.33301 -5 -16 -5s-14.334 2 -17.001 6c-0.666992 0.666992 -1 3.66699 -1 9v12l1 148
c0.666992 13.333 2.83398 21.166 6.50098 23.499s10.5 3.5 20.5 3.5h527z" />
    <glyph glyph-name="bracketleft" unicode="[" 
d="M435 -174l0.00195312 -34c-67.333 -16.667 -123.666 -27 -168.999 -31c-16 -1.33301 -29.167 2.5 -39.5 11.5s-19.5 31.5 -27.5 67.5s-13.5 96.667 -16.5 182s-3.16699 193.666 -0.5 324.999c2 90 5 165.5 9 226.5s9 106.167 15 135.5s12 47 18 53s13 9 21 9h10
c20 -0.666992 42.333 -3.33398 67 -8.00098c12.667 -1.33301 25.5 -2.83301 38.5 -4.5l38.5 -5c12.667 -1.66699 25 -3.5 37 -5.5l9 -2c6 -1.33301 11 -2.66602 15 -3.99902v-34c-44.667 8 -77.334 12 -98.001 12c-11.333 1.33301 -21.833 -9.16699 -31.5 -31.5
s-18.834 -80 -27.501 -173s-14.334 -229.167 -17.001 -408.5c-2 -79.333 -1.66699 -142.5 1 -189.5s7.16699 -76.667 13.5 -89s16.5 -19.166 30.5 -20.499c30 -1.33301 64.667 4.66699 104 18z" />
    <glyph glyph-name="backslash" unicode="\" horiz-adv-x="773" 
d="M108 839l70 36l485 -906l-69 -35z" />
    <glyph glyph-name="bracketright" unicode="]" 
d="M351 289c-6.66699 133.333 -13.6689 231.496 -21.002 294.496s-14.666 101.833 -21.999 116.5s-17 21.334 -29 20.001c-20 0 -52.333 -4 -97 -12v34c5.33301 1.33301 9.5 2.5 12.5 3.5s6.5 1.83301 10.5 2.5l57.5 8c19 2.66699 37.833 5 56.5 7
c24 4.66699 46.333 7.33398 67 8.00098h10c12 0 21.667 -7 29 -21s14.333 -51 21 -111s11.334 -157.333 14.001 -292c3.33301 -147.333 3.33301 -259.666 0 -336.999s-9 -134 -17 -170s-17.167 -58.5 -27.5 -67.5s-23.833 -12.833 -40.5 -11.5
c-45.333 4 -101.333 14.333 -168 31v34c39.333 -13.333 74 -19.333 104 -18c14.667 1.33301 25 8 31 20s10 37.833 12 77.5s2.33301 106.834 1 201.501c0 67.333 -1.33301 128 -4 182z" />
    <glyph glyph-name="asciicircum" unicode="^" 
d="M182 819h217l117 -162h-87l-139 120l-141 -120h-85z" />
    <glyph glyph-name="underscore" unicode="_" 
d="M0 -216v93h581v-93h-581z" />
    <glyph glyph-name="underscore" unicode="&#xad;" 
d="M0 -216v93h581v-93h-581z" />
    <glyph glyph-name="grave" unicode="`" horiz-adv-x="290" 
d="M209 724c-21.333 -26.667 -39.332 -58.333 -53.999 -95s-22 -64 -22 -82c0 -6 2.33301 -9.33301 7 -10h7c7.33301 0.666992 19.666 3.66699 36.999 9c7.33301 -7.33301 14.5 -19.833 21.5 -37.5s10.5 -37.167 10.5 -58.5c-20.667 -16 -46 -24 -76 -24
c-44.667 0.666992 -67 23.667 -67 69c0.666992 33.333 11.667 74.833 33 124.5s44 93.167 68 130.5z" />
    <glyph glyph-name="a" unicode="a" horiz-adv-x="553" 
d="M497 63l13.001 -27c-4.66699 -2 -9 -3.66699 -13 -5c-6 -4.66699 -12.667 -8.66699 -20 -12c-30 -17.333 -47.667 -26 -53 -26c-24.667 -1.33301 -47.334 24.667 -68.001 78c-35.333 -24.667 -69.166 -44.667 -101.499 -60s-62.833 -23 -91.5 -23
c-34 0 -61.5 14 -82.5 42s-31.5 60 -31.5 96c0 32 7.5 54.833 22.5 68.5s36.833 24.834 65.5 33.501l210 68l2 75c1.33301 21.333 -3 39.5 -13 54.5s-35 22.5 -75 22.5c-49.333 0 -77 -15.333 -83 -46c0 -4.66699 -1 -8.33398 -3 -11.001
c-1.33301 -12.667 -6.33301 -24.5 -15 -35.5s-22.667 -16.5 -42 -16.5c-15.333 0 -27.333 4.5 -36 13.5s-12.334 19.833 -11.001 32.5c1.33301 24.667 19 46.167 53 64.5s82.333 27.5 145 27.5c36 2.66699 72.167 -1.83301 108.5 -13.5s57.166 -28.167 62.499 -49.5
c1.33301 -2.66699 2 -6.66699 2 -12s-0.333008 -10.333 -1 -15c-1.33301 -24 -2.66602 -42.667 -3.99902 -56c-1.33301 -33.333 -2.66602 -57.333 -3.99902 -72c0 -14 -0.166992 -29.333 -0.5 -46s-0.833008 -30 -1.5 -40c0 -44 0.333008 -68.667 1 -74
c2 -34 10.333 -51 25 -51c7.33301 0 20.666 5 39.999 15zM347.001 99l-0.00292969 164.001c-7.33301 -4 -16.666 -7 -27.999 -9c-7.33301 -2 -14.666 -4.33301 -21.999 -7l-23 -8c-59.333 -20.667 -97.666 -38.334 -114.999 -53.001s-26 -34.667 -26 -60
c1.33301 -56 21.333 -85.333 60 -88c46 -1.33301 97.333 19 154 61z" />
    <glyph glyph-name="b" unicode="b" horiz-adv-x="571" 
d="M189 735l-6.00098 -292.006h6c33.333 22 75.333 33.333 126 34c22 2 49.167 -0.666992 81.5 -8s62.166 -26.666 89.499 -57.999s39.666 -78.666 36.999 -141.999c-2 -76 -25.5 -142.333 -70.5 -199s-109.833 -84 -194.5 -82c-14 0.666992 -34 2.33398 -60 5.00098
c-6.66699 2 -13.334 3.66699 -20.001 5c-12 1.33301 -20 2 -24 2c-23.333 0 -41.666 -4 -54.999 -12l-15 24c10 8.66699 16.333 18.834 19 30.501s3.33398 30.167 2.00098 55.5c0 6.66699 -0.166992 12.167 -0.5 16.5s-0.5 8.83301 -0.5 13.5v26l-10 408
c0 50.667 -3.16699 81.834 -9.5 93.501s-22.166 16.834 -47.499 15.501h-18v28c68.667 3.33301 125.334 15.333 170.001 36zM178.999 141.994l0.000976562 -40.9971c0 -10 0.333008 -18 1 -24c8 -36.667 37.667 -55 89 -55c50 0 87.667 23.333 113 70s38.666 101 39.999 163
c3.33301 121.333 -32.667 184.666 -108 189.999c-22 1.33301 -45.667 -3.83398 -71 -15.501s-45.333 -27.834 -60 -48.501z" />
    <glyph glyph-name="c" unicode="c" horiz-adv-x="508" 
d="M436 80l16 -28.0029c-54.667 -42.667 -111 -64 -169 -64c-64 0 -119.667 20.167 -167 60.5s-70.666 101.5 -69.999 183.5c1.33301 65.333 21.5 122.5 60.5 171.5s99.833 73.5 182.5 73.5c31.333 0.666992 58 -1.66602 80 -6.99902s39.667 -12.666 53 -21.999
s23 -19.333 29 -30s8.33301 -21 7 -31c0 -27.333 -16 -39.666 -48 -36.999c-34 1.33301 -55.333 18 -64 50c-0.666992 3.33301 -1.33398 6.33301 -2.00098 9s-1.66699 5.33398 -3 8.00098c-2.66699 19.333 -20 28.666 -52 27.999c-48 -2.66699 -83.167 -23.167 -105.5 -61.5
s-34.166 -84.5 -35.499 -138.5c-0.666992 -45.333 6.16602 -83.833 20.499 -115.5s33.5 -55.5 57.5 -71.5s49.667 -24.667 77 -26c42.667 -3.33301 87 12.667 133 48z" />
    <glyph glyph-name="d" unicode="d" horiz-adv-x="609" 
d="M502 735l-9.99805 -592.001c-4.66699 -77.333 3.66602 -116 24.999 -116c5.33301 0 14 4 26 12c3.33301 3.33301 7.66602 6.33301 12.999 9c1.33301 0.666992 4 2.33398 8 5.00098l15 -20c-36.667 -30 -72.334 -45 -107.001 -45c-27.333 0 -44.666 18.667 -51.999 56h-6
c-26 -22 -49.5 -36.833 -70.5 -44.5s-47.167 -11.5 -78.5 -11.5c-78 0.666992 -133.667 23.334 -167 68.001s-50.666 99 -51.999 163c-1.33301 42.667 6 84.5 22 125.5s41.5 73.5 76.5 97.5s79.833 35.667 134.5 35c54 0 97 -10.667 129 -32v117
c0 51.333 -3.33301 82.666 -10 93.999s-22.334 16.333 -47.001 15h-17v28c63.333 3.33301 119.333 15.333 168 36zM414.002 83.999l-3.99902 323c-34.667 26.667 -73.667 38.667 -117 36c-34.667 0 -67.834 -14.667 -99.501 -44s-46.5 -89 -44.5 -179
c4 -132 50.333 -198 139 -198c38.667 0 80.667 20.667 126 62z" />
    <glyph glyph-name="e" unicode="e" horiz-adv-x="516" 
d="M427 74l17.999 -31c-46.667 -36 -100.334 -54.333 -161.001 -55c-64.667 0 -120.5 19.333 -167.5 58s-70.5 100.667 -70.5 186c0 49.333 10.667 92.833 32 130.5s49.833 66.167 85.5 85.5s72.834 29 111.501 29c72.667 0 122.834 -21.333 150.501 -64s41.5 -85 41.5 -127
c0 -14 -2.33301 -22.667 -7 -26s-13 -5 -25 -5h-287c-6 -81.333 8.16699 -139 42.5 -173s73.5 -51 117.5 -51c40 -2 79.667 12.333 119 43zM374.999 290c1.33301 105.333 -30.667 158 -96 158c-35.333 0 -65.5 -15.5 -90.5 -46.5s-38.5 -68.167 -40.5 -111.5h227z" />
    <glyph glyph-name="f" unicode="f" horiz-adv-x="347" 
d="M52 0l-0.000976562 16.999l35 7c17.333 4.66699 28.5 10.834 33.5 18.501s7.5 21.167 7.5 40.5l-8 349h-97v35h97v41c0 18 -0.166992 32.5 -0.5 43.5s-0.5 23.167 -0.5 36.5c0 40 7.33301 75 22 105s48 44 100 42c32 -0.666992 57.333 -9.33398 76 -26.001
s27.334 -34.334 26.001 -53.001c-2 -27.333 -18.667 -42.333 -50 -45c-20 -0.666992 -36.167 4.83301 -48.5 16.5s-19.5 24.834 -21.5 39.501c0 6.66699 0.666992 11.667 2 15v7c0 2.66699 -1.83301 5.16699 -5.5 7.5s-7.83398 3.16602 -12.501 2.49902
c-17.333 -0.666992 -27 -15 -29 -43v-22c2 -15.333 3.33301 -24.666 4 -27.999c0.666992 -8 2.33398 -19.333 5.00098 -34c3.33301 -10 5.33301 -17.333 6 -22c2 -9.33301 4.66699 -20 8 -32c2.66699 -14.667 5 -25.667 7 -33c0 -5.33301 0.666992 -11.333 2 -18h137v-35
h-133l-10 -350c0 -14.667 0.666992 -25.167 2 -31.5s4.83301 -11.666 10.5 -15.999s14.5 -7.83301 26.5 -10.5l36 -8v-16h-227z" />
    <glyph glyph-name="g" unicode="g" horiz-adv-x="584" 
d="M508 477l-16.0029 -413.997c-2.66699 -63.333 -7.66699 -113.333 -15 -150s-25.666 -67.834 -54.999 -93.501s-74 -40.5 -134 -44.5c-34.667 -2.66699 -67.5 0.333008 -98.5 9s-54.833 21.5 -71.5 38.5s-23 35.5 -19 55.5c5.33301 23.333 20.666 36 45.999 38
c19.333 0 37.833 -7.66699 55.5 -23s26.834 -32.333 27.501 -51c0 -4.66699 -0.666992 -8.33398 -2 -11.001c0 -2 -0.166992 -3.5 -0.5 -4.5s-0.5 -2.5 -0.5 -4.5c1.33301 -4.66699 7.83301 -8.83398 19.5 -12.501s25.5 -5.16699 41.5 -4.5c48 4 81.167 25.167 99.5 63.5
s28.5 94.833 30.5 169.5h-9c-41.333 -33.333 -90 -50 -146 -50c-49.333 0 -90 10.667 -122 32s-55.5 49.333 -70.5 84s-22.5 72.667 -22.5 114c-1.33301 72 18.334 133.667 59.001 185s97.667 76 171 74c39.333 0 71 -2 95 -6c8.66699 0 18 -1 28 -3
c6 -0.666992 16 -1 30 -1c4.66699 -0.666992 15.334 -0.333984 32.001 0.999023c13.333 2.66699 23 4.33398 29 5.00098c5.33301 2 11.333 3.33301 18 4zM411.997 83.0029l-4 324.001c-30 25.333 -65 38 -105 38c-37.333 0 -72.833 -13.833 -106.5 -41.5
s-49.5 -88.834 -47.5 -183.501c4 -131.333 50.667 -197 140 -197c40 0 81 20 123 60z" />
    <glyph glyph-name="h" unicode="h" horiz-adv-x="607" 
d="M38 0l0.00292969 16.001l36 8c12.667 3.33301 21.667 6.83301 27 10.5s8.66602 8.83398 9.99902 15.501s2 17.334 2 32.001l-5 480c0 51.333 -3.33301 82.666 -10 93.999s-22.334 16.333 -47.001 15h-18v28c63.333 3.33301 120.333 15.333 171 36l-7 -304
c56 30.667 112 46 168 46c86 3.33301 135 -22.334 147 -77.001c2.66699 -8.66699 4 -25.667 4 -51c0 -30.667 -1 -53.667 -3 -69c0 -16.667 -0.666992 -43 -2 -79c0 -9.33301 -0.333008 -21.5 -1 -36.5s-1.33398 -29.167 -2.00098 -42.5
c0 -6.66699 -0.166992 -14.5 -0.5 -23.5s-0.833008 -16.167 -1.5 -21.5c0 -16.667 1.83301 -28.667 5.5 -36s13.5 -13 29.5 -17l36 -8v-16h-227v16l31 8c26.667 6 41 17 43 33c0.666992 2.66699 1 6.66699 1 12c0 2.66699 0.166992 5 0.5 7s0.5 4.66699 0.5 8v42
c0.666992 15.333 1 39.333 1 72c1.33301 75.333 1.33301 128 0 158s-7.5 52.333 -18.5 67s-30.167 22 -57.5 22c-50 -1.33301 -102 -21.333 -156 -60l-5 -303c0 -14.667 0.833008 -25.334 2.5 -32.001s5.5 -12 11.5 -16s14.667 -7.33301 26 -10l35 -8v-16h-227z" />
    <glyph glyph-name="i" unicode="i" horiz-adv-x="300" 
d="M38 0v16.001l36 8c12.667 3.33301 21.667 6.83301 27 10.5s8.66602 8.83398 9.99902 15.501s2 17.334 2 32.001l-4 194l-1 30c0.666992 49.333 -2.66602 80.166 -9.99902 92.499s-23 17.833 -47 16.5h-18v28c59.333 3.33301 116.333 14.666 171 33.999l-14 -395
c0 -14.667 0.833008 -25.334 2.5 -32.001s5.5 -12 11.5 -16s14.667 -7.33301 26 -10l35 -8v-16h-227zM87 643.001c0.666992 12 8.66895 20 24.002 24c8 1.33301 20.667 2 38 2s30.666 -0.666992 39.999 -2c16 -4.66699 24 -15.667 24 -33
c1.33301 -16 -4.83398 -32.667 -18.501 -50s-28.834 -26 -45.501 -26c-15.333 0 -29.666 8.33301 -42.999 25s-20 33.667 -20 51c0 4.66699 0.333008 7.66699 1 9z" />
    <glyph glyph-name="i" unicode="&#x456;" horiz-adv-x="300" 
d="M38 0v16.001l36 8c12.667 3.33301 21.667 6.83301 27 10.5s8.66602 8.83398 9.99902 15.501s2 17.334 2 32.001l-4 194l-1 30c0.666992 49.333 -2.66602 80.166 -9.99902 92.499s-23 17.833 -47 16.5h-18v28c59.333 3.33301 116.333 14.666 171 33.999l-14 -395
c0 -14.667 0.833008 -25.334 2.5 -32.001s5.5 -12 11.5 -16s14.667 -7.33301 26 -10l35 -8v-16h-227zM87 643.001c0.666992 12 8.66895 20 24.002 24c8 1.33301 20.667 2 38 2s30.666 -0.666992 39.999 -2c16 -4.66699 24 -15.667 24 -33
c1.33301 -16 -4.83398 -32.667 -18.501 -50s-28.834 -26 -45.501 -26c-15.333 0 -29.666 8.33301 -42.999 25s-20 33.667 -20 51c0 4.66699 0.333008 7.66699 1 9z" />
    <glyph glyph-name="i" unicode="&#xb3;" horiz-adv-x="300" 
d="M38 0v16.001l36 8c12.667 3.33301 21.667 6.83301 27 10.5s8.66602 8.83398 9.99902 15.501s2 17.334 2 32.001l-4 194l-1 30c0.666992 49.333 -2.66602 80.166 -9.99902 92.499s-23 17.833 -47 16.5h-18v28c59.333 3.33301 116.333 14.666 171 33.999l-14 -395
c0 -14.667 0.833008 -25.334 2.5 -32.001s5.5 -12 11.5 -16s14.667 -7.33301 26 -10l35 -8v-16h-227zM87 643.001c0.666992 12 8.66895 20 24.002 24c8 1.33301 20.667 2 38 2s30.666 -0.666992 39.999 -2c16 -4.66699 24 -15.667 24 -33
c1.33301 -16 -4.83398 -32.667 -18.501 -50s-28.834 -26 -45.501 -26c-15.333 0 -29.666 8.33301 -42.999 25s-20 33.667 -20 51c0 4.66699 0.333008 7.66699 1 9z" />
    <glyph glyph-name="j" unicode="j" horiz-adv-x="300" 
d="M43 443c53.333 2.66699 111.666 15.002 174.999 37.002l-13 -443c0 -20 0.666992 -35 2 -45c1.33301 -18.667 2 -33.334 2 -44.001c6 -114 -31.333 -171.667 -112 -173c-33.333 0 -60.666 8.16699 -81.999 24.5s-31.333 34.833 -30 55.5
c2.66699 27.333 18.334 41 47.001 41c17.333 0 33 -5.66699 47 -17s20.667 -25.333 20 -42c0 -4.66699 -0.333008 -8.33398 -1 -11.001c0 -2 -0.166992 -3.5 -0.5 -4.5s-0.5 -2.16699 -0.5 -3.5c0 -5.33301 5 -8 15 -8c10.667 0 19.167 6 25.5 18s9.5 26 9.5 42
c-0.666992 6 -1.33398 11.5 -2.00098 16.5s-1.66699 11.5 -3 19.5c-1.33301 10 -4 22.333 -8 37c-1.33301 10.667 -2.33301 19 -3 25s-1.66699 12.667 -3 20c-2.66699 14.667 -4 25.667 -4 33c-1.33301 13.333 -2 23.333 -2 30l-3 225l-1 30c0 34.667 -1.5 59.667 -4.5 75
s-8 24.833 -15 28.5s-19.5 5.5 -37.5 5.5h-18v28zM96 643.002c2 12 9.66797 20 23.001 24c9.33301 1.33301 22.666 2 39.999 2c16.667 0 29.667 -0.666992 39 -2c16 -5.33301 24 -16.333 24 -33c1.33301 -16 -4.5 -32.667 -17.5 -50s-28.5 -26 -46.5 -26
c-14.667 0 -28.667 8.33301 -42 25s-20 33.667 -20 51v9z" />
    <glyph glyph-name="k" unicode="k" horiz-adv-x="582" 
d="M340 467l194.999 0.000976562v-19c-26.667 -6.66699 -60.667 -25.667 -102 -57l-46 -39c-4.66699 -4 -11.167 -9.16699 -19.5 -15.5s-17.166 -13.5 -26.499 -21.5c-21.333 -18.667 -35 -31 -41 -37v-4c26.667 -40 62.834 -90 108.501 -150s73.5 -90 83.5 -90
c7.33301 0 19.666 7.33301 36.999 22l18 -24c-6 -6 -9.66699 -9.33301 -11 -10c-3.33301 -3.33301 -6.16602 -5.83301 -8.49902 -7.5l-7.5 -5.5c-10 -6.66699 -18 -11.334 -24 -14.001c-10.667 -4.66699 -19.334 -7 -26.001 -7
c-11.333 1.33301 -30.166 13.666 -56.499 36.999s-54.833 52.333 -85.5 87s-55.334 64.5 -74.001 89.5s-28 41.167 -28 48.5c0 4.66699 5 11.334 15 20.001l85 85c1.33301 2 3.83301 4.83301 7.5 8.5s6.16699 6.5 7.5 8.5l12 11.5c4 3.66699 7 6.5 9 8.5l9.5 11
c3 3.33301 5.5 7 7.5 11c3.33301 5.33301 5 9.33301 5 12c-2 12 -16.667 19.333 -44 22v19zM37.999 0.000976562l0.00195312 16l36 8c12.667 3.33301 21.667 6.83301 27 10.5s8.66602 8.83398 9.99902 15.501s2 17.334 2 32.001l-5 480c0 51.333 -3.33301 82.666 -10 93.999
s-22.334 16.333 -47.001 15h-18v28c63.333 3.33301 120.333 15.333 171 36l-14 -653c0 -14.667 0.833008 -25.334 2.5 -32.001s5.5 -12 11.5 -16s14.667 -7.33301 26 -10l35 -8v-16h-227z" />
    <glyph glyph-name="l" unicode="l" horiz-adv-x="300" 
d="M38 0l0.00195312 16l36 8c12.667 3.33301 21.667 6.83301 27 10.5s8.66602 8.83398 9.99902 15.501s2 17.334 2 32.001l-5 480c0 51.333 -3.33301 82.666 -10 93.999s-22.334 16.333 -47.001 15h-18v28c63.333 3.33301 120.333 15.333 171 36l-14 -653
c0 -14.667 0.833008 -25.334 2.5 -32.001s5.5 -12 11.5 -16s14.667 -7.33301 26 -10l35 -8v-16h-227z" />
    <glyph glyph-name="m" unicode="m" horiz-adv-x="895" 
d="M38 0l-0.00390625 16.002l36 8c17.333 4 28.5 9.83301 33.5 17.5s6.83301 21.167 5.5 40.5l-4 194l-1 30c0.666992 49.333 -2.66602 80.166 -9.99902 92.499s-23 17.833 -47 16.5h-18v28c59.333 3.33301 116.333 14.666 171 33.999l-3 -46h3
c50.667 30.667 105.334 46 164.001 46c59.333 2 99 -15.667 119 -53h5c52.667 37.333 110.334 56 173.001 56c81.333 -2.66699 126.666 -29.334 135.999 -80.001c2 -10.667 3 -27.667 3 -51c-0.666992 -16 -1 -39 -1 -69c-2 -26 -3 -52.333 -3 -79
c-1.33301 -34.667 -2.66602 -61 -3.99902 -79c0 -9.33301 -0.166992 -17.166 -0.5 -23.499s-0.5 -13.5 -0.5 -21.5c0 -16.667 1.66699 -28.667 5 -36s13 -13 29 -17l35 -8v-16h-226v16l31 8c26.667 6 41.334 17 44.001 33c0 2 0.166992 3.83301 0.5 5.5
s0.5 3.83398 0.5 6.50098v15c0.666992 9.33301 1 23.333 1 42c0.666992 12 1.16699 22.833 1.5 32.5s0.5 22.834 0.5 39.501c0.666992 29.333 1 63.166 1 101.499s-2 67.666 -6 87.999s-11.667 35.166 -23 44.499s-27.333 13.666 -48 12.999
c-35.333 -1.33301 -83 -20.666 -143 -57.999c0 -22 -0.166992 -40.833 -0.5 -56.5s-0.5 -32.834 -0.5 -51.501c-1.33301 -33.333 -2.66602 -59.333 -3.99902 -78c-1.33301 -41.333 -3 -82.333 -5 -123c0 -17.333 2 -29.5 6 -36.5s14.333 -12.833 31 -17.5l35 -8v-16h-226v16
l32 8c27.333 6.66699 41.333 17.667 42 33c1.33301 2.66699 2 6.66699 2 12c0 6 0.333008 11 1 15v42c0.666992 15.333 1 39.333 1 72c1.33301 72 1.5 123 0.5 153s-6.83301 53.167 -17.5 69.5s-30.334 24.5 -59.001 24.5c-45.333 -1.33301 -91 -20.666 -137 -57.999
l-9 -305c0 -19.333 2.33301 -32.666 7 -39.999s15.667 -13.333 33 -18l35 -8v-16h-227z" />
    <glyph glyph-name="n" unicode="n" horiz-adv-x="607" 
d="M38 0v16l36 8c17.333 4 28.5 9.83301 33.5 17.5s6.83301 21.167 5.5 40.5l-4 194l-1 30c0.666992 49.333 -2.66602 80.166 -9.99902 92.499s-23 17.833 -47 16.5h-18v28c59.333 3.33301 116.333 14.666 171 33.999l-3 -45h3c53.333 30 109 45 167 45
c64 2.66699 104.5 -8.66602 121.5 -33.999s24.833 -57.333 23.5 -96c0 -14 -0.666992 -35.333 -2 -64s-2.33301 -56 -3 -82c0 -9.33301 -0.333008 -21.5 -1 -36.5s-1.33398 -29.167 -2.00098 -42.5c0 -7.33301 -0.166992 -15.333 -0.5 -24s-0.833008 -15.667 -1.5 -21
c0 -16.667 1.83301 -28.667 5.5 -36s13.5 -13 29.5 -17l36 -8v-16h-227v16l31 8c26.667 6 41 17 43 33c0.666992 2.66699 1 6.66699 1 12c0 2.66699 0.166992 5 0.5 7s0.5 4.66699 0.5 8v42c0.666992 15.333 1 39.333 1 72c1.33301 75.333 1.33301 128 0 158
s-7.5 52.333 -18.5 67s-30.167 22 -57.5 22c-47.333 -2 -98 -21.333 -152 -58l-9 -305c0 -19.333 2.33301 -32.666 7 -39.999s15.667 -13.333 33 -18l35 -8v-16h-227z" />
    <glyph glyph-name="o" unicode="o" horiz-adv-x="598" 
d="M300 -12c-66 0 -124.669 21.833 -176.002 65.5s-77.333 103.5 -78 179.5c-0.666992 62 12.833 111.167 40.5 147.5s60.5 61.5 98.5 75.5s74.667 21 110 21c38 1.33301 76.833 -5.16699 116.5 -19.5s73.334 -40 101.001 -77s41.167 -86.167 40.5 -147.5
c-0.666992 -76 -26.667 -135.833 -78 -179.5s-109.666 -65.5 -174.999 -65.5zM299.998 22c42.667 0 78.5 18 107.5 54s43.5 88.333 43.5 157c0 79.333 -14.667 134.5 -44 165.5s-65 46.5 -107 46.5c-102 0 -152.667 -70.667 -152 -212c0 -68.667 14.5 -121 43.5 -157
s65.167 -54 108.5 -54z" />
    <glyph glyph-name="p" unicode="p" horiz-adv-x="608" 
d="M43 -218l-0.00195312 19.001l35 6c18.667 4.66699 30.167 10.667 34.5 18s6.5 21 6.5 41l-8 454c-0.666992 51.333 -4.16699 82.833 -10.5 94.5s-22.5 17.167 -48.5 16.5h-19v26c47.333 0.666992 104.333 11 171 31v-42c51.333 20.667 97.666 31 138.999 31
c30 1.33301 58.333 -2.16699 85 -10.5s50.334 -21.333 71.001 -39s36.834 -41.334 48.501 -71.001s16.5 -64.834 14.5 -105.501c-2 -84 -30 -148.833 -84 -194.5s-118 -68.5 -192 -68.5c-23.333 0.666992 -52.666 5.33398 -87.999 14.001l-4 -136
c0 -20 2.5 -34.167 7.5 -42.5s15.833 -13.833 32.5 -16.5l50 -6v-19h-241zM207.998 397.001l-6.99805 -358c16 -11.333 44.333 -17 85 -17c47.333 0 88.833 16.667 124.5 50s52.5 93 50.5 179c-0.666992 128 -46.334 192 -137.001 192
c-36.667 1.33301 -71.334 -10.667 -104.001 -36z" />
    <glyph glyph-name="q" unicode="q" horiz-adv-x="593" 
d="M506 477l-21 -610.994c-1.33301 -20 0.666992 -33.833 6 -41.5s16.666 -13.5 33.999 -17.5l35 -6v-19h-236v19l48 6c18 3.33301 29.5 9.16602 34.5 17.499s6.83301 22.166 5.5 41.499l-1 175h-6c-38 -35.333 -87 -53 -147 -53c-64.667 0 -116 19.667 -154 59
s-57.333 95.666 -58 168.999c-1.33301 51.333 7.33398 97.166 26.001 137.499s45.5 71.166 80.5 92.499s76.167 31.666 123.5 30.999c36 0 66 -2 90 -6c10.667 0 19.334 -1 26.001 -3c6.66699 -0.666992 16.667 -1 30 -1c15.333 0 26.666 0.333008 33.999 1
c11.333 2 21.333 4.33301 30 7c2.66699 0.666992 6 1.16699 10 1.5s7.33301 0.5 10 0.5zM411 83.0059l-3.99902 323.999c-32.667 25.333 -68.334 38 -107.001 38c-36.667 0 -71.667 -13.667 -105 -41s-49 -88.666 -47 -183.999c4 -131.333 50.667 -197 140 -197
c39.333 0 80.333 20 123 60z" />
    <glyph glyph-name="r" unicode="r" horiz-adv-x="420" 
d="M38 0l-0.000976562 16l36 8c12.667 3.33301 21.667 6.83301 27 10.5s8.66602 8.83398 9.99902 15.501s2 17.334 2 32.001l-4 194l-1 30c0.666992 49.333 -2.66602 80.166 -9.99902 92.499s-23 17.833 -47 16.5h-18v28c69.333 2.66699 118.333 15 147 37
c10.667 -18 16.667 -37.333 18 -58c0 -23.333 -1.66699 -46 -5 -68l8 -4c63.333 84.667 116.666 127 159.999 127c28.667 2 44.334 -12.667 47.001 -44c0.666992 -14.667 -1.66602 -29 -6.99902 -43s-12.5 -25.5 -21.5 -34.5s-19.167 -14.167 -30.5 -15.5
c-14.667 0 -26.5 4.5 -35.5 13.5s-11.833 24.167 -8.5 45.5l-4 2c-24 -13.333 -47 -37.833 -69 -73.5s-34.333 -69.5 -37 -101.5c0 -6 -0.166992 -11 -0.5 -15s-0.5 -8.33301 -0.5 -13s-0.166992 -8.66699 -0.5 -12s-0.5 -7.33301 -0.5 -12l-3 -92
c0 -14.667 0.833008 -25.334 2.5 -32.001s5.5 -12 11.5 -16s14.667 -7.33301 26 -10l35 -8v-16h-227z" />
    <glyph glyph-name="s" unicode="s" horiz-adv-x="460" 
d="M390 477l0.00195312 -134.002c0 -4 -4.66699 -6 -14 -6c-6.66699 0 -11.334 1 -14.001 3c-1.33301 1.33301 -2.16602 2.83301 -2.49902 4.5s-1.5 3.5 -3.5 5.5c-21.333 62 -65 93.667 -131 95c-29.333 0 -52.833 -8.33301 -70.5 -25s-26.167 -36 -25.5 -58
c2 -29.333 24.667 -51.666 68 -66.999c24.667 -6 39.334 -10 44.001 -12c17.333 -4.66699 31.666 -9 42.999 -13c26.667 -6 44 -11 52 -15c52.667 -20 78.667 -58.333 78 -115c-1.33301 -36.667 -14.833 -71.167 -40.5 -103.5s-74.167 -48.5 -145.5 -48.5
c-72.667 0.666992 -118.834 6.16699 -138.501 16.5s-31.834 22.5 -36.501 36.5l-7 97c0 6 4.33301 9 13 9c11.333 0.666992 19 -2.66602 23 -9.99902l2.5 -6.5c1.66699 -4.33301 2.83398 -8.16602 3.50098 -11.499c15.333 -34.667 36 -59.5 62 -74.5s53.667 -22.5 83 -22.5
c30 0 54.333 8.33301 73 25s27 36.667 25 60c0 25.333 -8.83301 45.166 -26.5 59.499s-42.834 26.5 -75.501 36.5c-10.667 4 -20.667 7.16699 -30 9.5l-29 7.5c-84 25.333 -125 69 -123 131c1.33301 36.667 16.333 67.334 45 92.001s71 36 127 34
c20.667 0 38 -1.33301 52 -4c6 0 11.667 -0.333008 17 -1l16 -2l11.5 -2c3.66699 -0.666992 8.16699 -1.66699 13.5 -3c2.66699 0 6 -0.333008 10 -1s7.66699 -1.33398 11 -2.00098c8.66699 3.33301 12.667 8.33301 12 15h28z" />
    <glyph glyph-name="s" horiz-adv-x="460" 
d="M390 477l0.00195312 -134.002c0 -4 -4.66699 -6 -14 -6c-6.66699 0 -11.334 1 -14.001 3c-1.33301 1.33301 -2.16602 2.83301 -2.49902 4.5s-1.5 3.5 -3.5 5.5c-21.333 62 -65 93.667 -131 95c-29.333 0 -52.833 -8.33301 -70.5 -25s-26.167 -36 -25.5 -58
c2 -29.333 24.667 -51.666 68 -66.999c24.667 -6 39.334 -10 44.001 -12c17.333 -4.66699 31.666 -9 42.999 -13c26.667 -6 44 -11 52 -15c52.667 -20 78.667 -58.333 78 -115c-1.33301 -36.667 -14.833 -71.167 -40.5 -103.5s-74.167 -48.5 -145.5 -48.5
c-72.667 0.666992 -118.834 6.16699 -138.501 16.5s-31.834 22.5 -36.501 36.5l-7 97c0 6 4.33301 9 13 9c11.333 0.666992 19 -2.66602 23 -9.99902l2.5 -6.5c1.66699 -4.33301 2.83398 -8.16602 3.50098 -11.499c15.333 -34.667 36 -59.5 62 -74.5s53.667 -22.5 83 -22.5
c30 0 54.333 8.33301 73 25s27 36.667 25 60c0 25.333 -8.83301 45.166 -26.5 59.499s-42.834 26.5 -75.501 36.5c-10.667 4 -20.667 7.16699 -30 9.5l-29 7.5c-84 25.333 -125 69 -123 131c1.33301 36.667 16.333 67.334 45 92.001s71 36 127 34
c20.667 0 38 -1.33301 52 -4c6 0 11.667 -0.333008 17 -1l16 -2l11.5 -2c3.66699 -0.666992 8.16699 -1.66699 13.5 -3c2.66699 0 6 -0.333008 10 -1s7.66699 -1.33398 11 -2.00098c8.66699 3.33301 12.667 8.33301 12 15h28z" />
    <glyph glyph-name="t" unicode="t" horiz-adv-x="432" 
d="M239 613l-3.99805 -148h145v-34h-147l-11 -244c-2.66699 -59.333 0.666016 -99.666 9.99902 -120.999s25 -32 47 -32c27.333 1.33301 52.666 13.666 75.999 36.999l5 2.5c2 1 3.33301 1.83301 4 2.5s2 1 4 1c2.66699 0 6.5 -3.5 11.5 -10.5s7.16699 -12.167 6.5 -15.5
c-4 -10 -21.333 -23 -52 -39s-59.667 -24 -87 -24c-28.667 0 -51.667 7.33301 -69 22s-29.333 37.5 -36 68.5s-10 69.167 -10 114.5l1 238h-102v29c50.667 5.33301 90.167 23.5 118.5 54.5s47.5 63.167 57.5 96.5z" />
    <glyph glyph-name="u" unicode="u" horiz-adv-x="638" 
d="M435 94c-1.33301 38.667 -1.99902 89.6699 -1.99902 153.003v59c0.666992 6 1 12.667 1 20s-0.333008 13 -1 17c0 32.667 -4.16699 53.167 -12.5 61.5s-22.833 11.833 -43.5 10.5h-17v28c59.333 3.33301 115.666 14.666 168.999 33.999l-11 -334
c-1.33301 -36.667 -0.333008 -63.667 3 -81s10.666 -26 21.999 -26c4.66699 0 8 0.333008 10 1c2.66699 0.666992 7.66699 4 15 10c5.33301 2.66699 9.66602 5.66699 12.999 9l17 -24c-2 -4.66699 -5.33301 -8 -10 -10c-8.66699 -7.33301 -15 -12 -19 -14
c-18 -13.333 -39 -20 -63 -20c-38.667 0 -59.667 23 -63 69h-3c-58.667 -43.333 -121 -66.333 -187 -69c-75.333 -3.33301 -120.666 16 -135.999 58c-5.33301 12 -8.66602 34.333 -9.99902 67c0 10.667 -0.166992 19.5 -0.5 26.5s-0.833008 14.5 -1.5 22.5l3 144
c0.666992 49.333 -2.66602 80.166 -9.99902 92.499s-23 17.833 -47 16.5h-18v28c59.333 3.33301 116.333 14.666 171 33.999l-12 -304c-2.66699 -63.333 0.666016 -103.833 9.99902 -121.5s27 -27.167 53 -28.5c59.333 0 119.333 23.667 180 71z" />
    <glyph glyph-name="v" unicode="v" horiz-adv-x="543" 
d="M284 77l107.002 273.999l8 19c6.66699 14.667 10.667 30.334 12 47.001c0 20 -21.333 30.333 -64 31v19h181v-19c-30 -1.33301 -57 -30 -81 -86l-163 -374h-39l-168 382c-10 24 -20.833 43 -32.5 57s-26.5 21 -44.5 21v19h214v-19l-31 -5
c-15.333 -2.66699 -24.333 -6.66699 -27 -12s-3.33398 -12 -2.00098 -20c1.33301 -4.66699 3.66602 -12 6.99902 -22l9 -28l111 -284h3z" />
    <glyph glyph-name="w" unicode="w" horiz-adv-x="819" 
d="M284 77l93.002 237.002l-25 56c-10.667 25.333 -21.5 44.666 -32.5 57.999s-25.833 20 -44.5 20v19h213v-19l-30 -5c-14.667 -2.66699 -23.5 -6.33398 -26.5 -11.001s-4.5 -11.667 -4.5 -21c6.66699 -20 12.667 -36.667 18 -50l111 -284h2l109 274l7 19
c7.33301 16 11 31.667 11 47c2.66699 20 -18.333 30.333 -63 31v19h181v-19c-29.333 -1.33301 -56 -30 -80 -86l-165 -374h-37l-120 268l-117 -268h-39l-168 382c-10 24 -20.833 43 -32.5 57s-26.5 21 -44.5 21v19h214v-19l-31 -5
c-15.333 -2.66699 -24.333 -6.66699 -27 -12s-3.33398 -12 -2.00098 -20c1.33301 -4.66699 3.66602 -12 6.99902 -22l9 -28l111 -284h3z" />
    <glyph glyph-name="x" unicode="x" horiz-adv-x="589" 
d="M314 276l51 71c33.333 46 49 72.333 47 79c-1.33301 8 -13.333 14.667 -36 20l-17 2v19h187v-19c-38.667 -16 -82.667 -51.667 -132 -107l-79 -91l1 -6l93 -118c33.333 -42.667 57 -70.667 71 -84s29.333 -22 46 -26v-16h-195v16l24 3c2 0.666992 4 1.16699 6 1.5
s4 0.5 6 0.5c6 0 10.333 0.666992 13 2s5 4 7 8c0.666992 4 -11.333 20.333 -36 49l-90 109h-5l-61 -90c-24.667 -36 -36.667 -58 -36 -66c0.666992 -9.33301 10.334 -14 29.001 -14l24 -3v-16h-199v16c36 9.33301 76.667 40 122 92l95 110l1 4l-98 119l-41.5 51
c-13.667 17.333 -25.334 30 -35.001 38s-22.167 14 -37.5 18v19h220v-19l-24 -2c-18 0 -27.333 -6.66699 -28 -20c-2 -10 10.667 -33.333 38 -70l61 -80h8z" />
    <glyph glyph-name="y" unicode="y" horiz-adv-x="578" 
d="M318 58l84.002 224.995l15 42l16 45c8 26.667 12 42.334 12 47.001c1.33301 20 -20.334 30.333 -65.001 31v19h181v-19c-22 0 -38.667 -9.83301 -50 -29.5s-31.333 -62.5 -60 -128.5l-122 -293c-62 -150.667 -127.333 -225.667 -196 -225c-32.667 0 -49 14.667 -49 44
c0 15.333 5.66699 29 17 41s27 18.333 47 19c1.33301 0 13 -2 35 -6c5.33301 -2 11.333 -3.33301 18 -4c11.333 0 22.833 6.33301 34.5 19s26.167 38.334 43.5 77.001l-136 332l-10 25c-4 10 -7.66699 18.333 -11 25c-2.66699 5.33301 -5.16699 10.833 -7.5 16.5
s-4.5 10.667 -6.5 15s-5 9.83301 -9 16.5c-15.333 36.667 -37.333 55.334 -66 56.001v19h214v-19l-29 -5c-16.667 -3.33301 -26.334 -8.66602 -29.001 -15.999c-3.33301 -2.66699 -3.33301 -8 0 -16c3.33301 -21.333 15.333 -59.666 36 -114.999l87 -238h6z" />
    <glyph glyph-name="z" unicode="z" horiz-adv-x="528" 
d="M482 467l-328.001 -427.998v-5h109c74.667 0 130.667 41 168 123c2 5.33301 4 9.66602 6 12.999c2.66699 3.33301 7.66699 5 15 5c8.66699 2 13 0 13 -6l-26 -169h-390c-3.33301 0 -4.66602 3.66699 -3.99902 11s2 13 4 17l311 398v6h-80
c-90.667 0 -147.667 -34 -171 -102c0 -2.66699 -1.33301 -6.33398 -4 -11.001c-4 -4.66699 -9.66699 -7 -17 -7c-6.66699 0 -10 2.66699 -10 8l-1 132c0 4.66699 0.333008 8 1 10s2 3.33301 4 4s6 1 12 1h18h370z" />
    <glyph glyph-name="braceleft" unicode="{" 
d="M169 306l-0.00195312 78c42.667 3.33301 70.334 21 83.001 53s20 66.667 22 104c0 6.66699 -0.333008 15.5 -1 26.5s-1.66699 23.167 -3 36.5c0 14 -0.166992 25.5 -0.5 34.5s-0.5 18.5 -0.5 28.5c0 72 18.167 122.333 54.5 151s78.5 43.667 126.5 45v-62
c-53.333 -11.333 -80 -48.666 -80 -111.999c0 -13.333 0.666992 -33.333 2 -60c2 -22.667 3 -45.334 3 -68.001c0 -50.667 -10 -93.167 -30 -127.5s-54.667 -62.166 -104 -83.499v-10c50 -22 84.833 -50 104.5 -84s29.5 -76.333 29.5 -127c0 -23.333 -1 -46 -3 -68
c-1.33301 -26.667 -2 -47 -2 -61c0 -62.667 26.667 -99.667 80 -111v-61c-29.333 1.33301 -57.5 7.5 -84.5 18.5s-49.833 30.833 -68.5 59.5s-28 67.667 -28 117c0 10.667 0.166992 20.167 0.5 28.5s0.5 19.166 0.5 32.499c1.33301 16 2.33301 29.167 3 39.5s1 18.5 1 24.5
c-2 36.667 -9.16699 71.167 -21.5 103.5s-40.166 50.5 -83.499 54.5z" />
    <glyph glyph-name="bar" unicode="|" 
d="M244 -216v1161h92v-1161h-92z" />
    <glyph glyph-name="bar" unicode="&#xa6;" 
d="M244 -216v1161h92v-1161h-92z" />
    <glyph glyph-name="braceright" unicode="}" 
d="M411 384v-77.999c-42.667 -4 -70.834 -22.5 -84.501 -55.5s-20.5 -67.167 -20.5 -102.5c0.666992 -10 1.16699 -19.333 1.5 -28s0.5 -20.667 0.5 -36c2 -20 3 -40.333 3 -61c0 -50 -9.5 -89.333 -28.5 -118s-41.833 -48.334 -68.5 -59.001s-55 -16.667 -85 -18v61
c34 8 56 23.333 66 46s15 44.334 15 65.001c0 14 -0.666992 34.333 -2 61c0 8 -0.666992 19.667 -2 35s-2 26.333 -2 33c0 49.333 10 91.333 30 126s55 63 105 85v10c-49.333 22 -84.166 50.333 -104.499 85s-30.5 76.667 -30.5 126c0 6.66699 0.666992 17.667 2 33
s2 27 2 35c1.33301 26.667 2 46.667 2 60c0 22 -5 44.5 -15 67.5s-32 37.833 -66 44.5v62c48.667 -1.33301 91.167 -16.333 127.5 -45s54.5 -79 54.5 -151c0 -20.667 -1 -41.667 -3 -63c0 -14 -0.166992 -25.333 -0.5 -34s-0.833008 -18.334 -1.5 -29.001
c0 -35.333 7 -69.5 21 -102.5s42 -51.167 84 -54.5z" />
    <glyph glyph-name="asciitilde" unicode="~" 
d="M497 819c-12 -38 -27.3311 -68.499 -45.998 -91.499s-45 -34.833 -79 -35.5c-14.667 0 -36.667 4 -66 12c-8.66699 4 -22.334 9.33301 -41.001 16c-20.667 9.33301 -39 14 -55 14c-24.667 -4.66699 -41.334 -16.334 -50.001 -35.001h-77c18.667 78.667 59 119 121 121
c18 0.666992 40 -3.33301 66 -12l36 -14c30 -10.667 49.667 -16 59 -16c12 0 22.833 4 32.5 12s16.167 17.667 19.5 29h80z" />
    <glyph glyph-name="Agrave" horiz-adv-x="393" 
d="M24 243c0 7.33301 5.00195 16 15.002 26c5.33301 5.33301 10.833 10.5 16.5 15.5s11.167 10.167 16.5 15.5l31 28c8.66699 8 15.667 15 21 21c10.667 9.33301 40.667 37 90 83c6.66699 6 15.334 14.333 26.001 25l30 29c18.667 18 30.667 27 36 27
c2.66699 0 5 -0.666992 7 -2s3 -3.33301 3 -6c2 -8 -25 -50.667 -81 -128c-9.33301 -14 -19 -27.667 -29 -41s-18 -24.333 -24 -33c-26 -36.667 -38.667 -59.667 -38 -69c0 -2 3 -10.833 9 -26.5s13 -31.5 21 -47.5l39 -72c3.33301 -7.33301 7.66602 -16 12.999 -26
s8.33301 -16.333 9 -19l13 -22c2.66699 -4.66699 4.66699 -9 6 -13c1.33301 -6.66699 2 -10.334 2 -11.001c-0.666992 -9.33301 -4.33398 -14 -11.001 -14c-4.66699 -1.33301 -16.334 7.33398 -35.001 26.001c-4.66699 8 -13.667 19.333 -27 34l-29.5 34.5l-28 31.5
l-33.5 39c-45.333 53.333 -68 85 -68 95z" />
    <glyph glyph-name="quoteleft" horiz-adv-x="290" 
d="M209 724c-21.333 -26.667 -39.332 -58.333 -53.999 -95s-22 -64 -22 -82c0 -6 2.33301 -9.33301 7 -10h7c7.33301 0.666992 19.666 3.66699 36.999 9c7.33301 -7.33301 14.5 -19.833 21.5 -37.5s10.5 -37.167 10.5 -58.5c-20.667 -16 -46 -24 -76 -24
c-44.667 0.666992 -67 23.667 -67 69c0.666992 33.333 11.667 74.833 33 124.5s44 93.167 68 130.5z" />
    <glyph glyph-name="quoteleft" unicode="&#x2018;" horiz-adv-x="290" 
d="M209 724c-21.333 -26.667 -39.332 -58.333 -53.999 -95s-22 -64 -22 -82c0 -6 2.33301 -9.33301 7 -10h7c7.33301 0.666992 19.666 3.66699 36.999 9c7.33301 -7.33301 14.5 -19.833 21.5 -37.5s10.5 -37.167 10.5 -58.5c-20.667 -16 -46 -24 -76 -24
c-44.667 0.666992 -67 23.667 -67 69c0.666992 33.333 11.667 74.833 33 124.5s44 93.167 68 130.5z" />
    <glyph glyph-name="quoteright" horiz-adv-x="290" 
d="M80 452c22.667 28 41.166 60 55.499 96s21.5 63 21.5 81c0 6 -3 9.33301 -9 10h-5c-2 0 -14.667 -2.66699 -38 -8c-21.333 29.333 -32 61.333 -32 96c22 15.333 47.333 23 76 23c44.667 0 67 -22.667 67 -68c0 -29.333 -11.167 -70.333 -33.5 -123
s-45.166 -97 -68.499 -133z" />
    <glyph glyph-name="quoteright" unicode="&#x2019;" horiz-adv-x="290" 
d="M80 452c22.667 28 41.166 60 55.499 96s21.5 63 21.5 81c0 6 -3 9.33301 -9 10h-5c-2 0 -14.667 -2.66699 -38 -8c-21.333 29.333 -32 61.333 -32 96c22 15.333 47.333 23 76 23c44.667 0 67 -22.667 67 -68c0 -29.333 -11.167 -70.333 -33.5 -123
s-45.166 -97 -68.499 -133z" />
    <glyph glyph-name="quoteright" unicode="&#x491;" horiz-adv-x="290" 
d="M80 452c22.667 28 41.166 60 55.499 96s21.5 63 21.5 81c0 6 -3 9.33301 -9 10h-5c-2 0 -14.667 -2.66699 -38 -8c-21.333 29.333 -32 61.333 -32 96c22 15.333 47.333 23 76 23c44.667 0 67 -22.667 67 -68c0 -29.333 -11.167 -70.333 -33.5 -123
s-45.166 -97 -68.499 -133z" />
    <glyph glyph-name="quoteright" unicode="&#xb4;" horiz-adv-x="290" 
d="M80 452c22.667 28 41.166 60 55.499 96s21.5 63 21.5 81c0 6 -3 9.33301 -9 10h-5c-2 0 -14.667 -2.66699 -38 -8c-21.333 29.333 -32 61.333 -32 96c22 15.333 47.333 23 76 23c44.667 0 67 -22.667 67 -68c0 -29.333 -11.167 -70.333 -33.5 -123
s-45.166 -97 -68.499 -133z" />
    <glyph glyph-name="quotedblleft" 
d="M490 796c-23.333 -26 -41.333 -53.667 -54 -83s-19 -52.666 -19 -69.999c2 -4 5 -6 9 -6c5.33301 0 20 2 44 6c21.333 -24 32 -51 32 -81c-18.667 -12.667 -43 -19.667 -73 -21c-45.333 -2 -68 16.667 -68 56c0 20 4.83301 43 14.5 69s22.5 54.167 38.5 84.5
s29.667 53.166 41 68.499zM299 796c-21.333 -23.333 -38.833 -50.5 -52.5 -81.5s-19.834 -54.833 -18.501 -71.5c0 -4 2 -6 6 -6c5.33301 0 20 2 44 6c22 -24 33 -51 33 -81c-19.333 -12.667 -43.666 -19.667 -72.999 -21c-28 -0.666992 -46.5 5.33301 -55.5 18
s-13.5 25.334 -13.5 38.001c0 20 4.83301 43 14.5 69s22.5 54.167 38.5 84.5s29.667 53.166 41 68.499z" />
    <glyph glyph-name="quotedblleft" unicode="&#x201c;" 
d="M490 796c-23.333 -26 -41.333 -53.667 -54 -83s-19 -52.666 -19 -69.999c2 -4 5 -6 9 -6c5.33301 0 20 2 44 6c21.333 -24 32 -51 32 -81c-18.667 -12.667 -43 -19.667 -73 -21c-45.333 -2 -68 16.667 -68 56c0 20 4.83301 43 14.5 69s22.5 54.167 38.5 84.5
s29.667 53.166 41 68.499zM299 796c-21.333 -23.333 -38.833 -50.5 -52.5 -81.5s-19.834 -54.833 -18.501 -71.5c0 -4 2 -6 6 -6c5.33301 0 20 2 44 6c22 -24 33 -51 33 -81c-19.333 -12.667 -43.666 -19.667 -72.999 -21c-28 -0.666992 -46.5 5.33301 -55.5 18
s-13.5 25.334 -13.5 38.001c0 20 4.83301 43 14.5 69s22.5 54.167 38.5 84.5s29.667 53.166 41 68.499z" />
    <glyph glyph-name="quotedblright" 
d="M107 556c14.667 22.667 27.5 49.332 38.5 79.999s15.833 53.334 14.5 68.001c0 5.33301 -2 8 -6 8c-8.66699 0.666992 -23 -2.33301 -43 -9c-22.667 24.667 -34 55 -34 91c20.667 14.667 45.667 23 75 25c44.667 0.666992 67 -21 67 -65
c0.666992 -29.333 -8.33301 -66.5 -27 -111.5s-40.667 -89.167 -66 -132.5l-37 23zM281 532.998c22 27.333 39.668 58.501 53.001 93.501s19.333 60.833 18 77.5c0 5.33301 -2 8 -6 8c-6.66699 0.666992 -21.667 -2.33301 -45 -9c-21.333 29.333 -32.333 59.666 -33 90.999
c22.667 14.667 47.667 23 75 25c42 0.666992 64.667 -21 68 -65c0 -30 -9.83301 -68.333 -29.5 -115s-40.834 -89.667 -63.501 -129z" />
    <glyph glyph-name="quotedblright" unicode="&#x201d;" 
d="M107 556c14.667 22.667 27.5 49.332 38.5 79.999s15.833 53.334 14.5 68.001c0 5.33301 -2 8 -6 8c-8.66699 0.666992 -23 -2.33301 -43 -9c-22.667 24.667 -34 55 -34 91c20.667 14.667 45.667 23 75 25c44.667 0.666992 67 -21 67 -65
c0.666992 -29.333 -8.33301 -66.5 -27 -111.5s-40.667 -89.167 -66 -132.5l-37 23zM281 532.998c22 27.333 39.668 58.501 53.001 93.501s19.333 60.833 18 77.5c0 5.33301 -2 8 -6 8c-6.66699 0.666992 -21.667 -2.33301 -45 -9c-21.333 29.333 -32.333 59.666 -33 90.999
c22.667 14.667 47.667 23 75 25c42 0.666992 64.667 -21 68 -65c0 -30 -9.83301 -68.333 -29.5 -115s-40.834 -89.667 -63.501 -129z" />
    <glyph glyph-name="endash" horiz-adv-x="834" 
d="M46 330l21.998 57.001c8 0 14.667 -0.166992 20 -0.5s11 -0.5 17 -0.5c56 -1.33301 97 -2 123 -2c14.667 0 34.834 -0.333008 60.501 -1s49.5 -1.33398 71.5 -2.00098c126 0 219.833 1.83301 281.5 5.5s110.5 7.16699 146.5 10.5l-20 -57
c-9.33301 0.666992 -23.666 1 -42.999 1h-131c-62 0 -108 0.666992 -138 2h-216c-86 0 -150.667 -4.33301 -194 -13z" />
    <glyph glyph-name="endash" unicode="&#x2013;" horiz-adv-x="834" 
d="M46 330l21.998 57.001c8 0 14.667 -0.166992 20 -0.5s11 -0.5 17 -0.5c56 -1.33301 97 -2 123 -2c14.667 0 34.834 -0.333008 60.501 -1s49.5 -1.33398 71.5 -2.00098c126 0 219.833 1.83301 281.5 5.5s110.5 7.16699 146.5 10.5l-20 -57
c-9.33301 0.666992 -23.666 1 -42.999 1h-131c-62 0 -108 0.666992 -138 2h-216c-86 0 -150.667 -4.33301 -194 -13z" />
    <glyph glyph-name="emdash" horiz-adv-x="1162" 
d="M154 251l20.999 58.999c9.33301 -0.666992 17.666 -1.16699 24.999 -1.5s17 -1.16602 29 -2.49902c36.667 -0.666992 92.667 -1 168 -1c40.667 -0.666992 101.334 -1 182.001 -1c130.667 0 225.5 1.5 284.5 4.5s106.5 6.16699 142.5 9.5l-20 -55h-41
c-58.667 0 -102.334 0.333008 -131.001 1h-140c-34 0 -66.167 0.166992 -96.5 0.5s-70.166 0.5 -119.499 0.5c-94.667 0 -163.167 -1.16699 -205.5 -3.5s-75.166 -5.83301 -98.499 -10.5z" />
    <glyph glyph-name="emdash" unicode="&#x2014;" horiz-adv-x="1162" 
d="M154 251l20.999 58.999c9.33301 -0.666992 17.666 -1.16699 24.999 -1.5s17 -1.16602 29 -2.49902c36.667 -0.666992 92.667 -1 168 -1c40.667 -0.666992 101.334 -1 182.001 -1c130.667 0 225.5 1.5 284.5 4.5s106.5 6.16699 142.5 9.5l-20 -55h-41
c-58.667 0 -102.334 0.333008 -131.001 1h-140c-34 0 -66.167 0.166992 -96.5 0.5s-70.166 0.5 -119.499 0.5c-94.667 0 -163.167 -1.16699 -205.5 -3.5s-75.166 -5.83301 -98.499 -10.5z" />
    <glyph glyph-name="trademark" horiz-adv-x="1078" 
d="M145 411v13.998l33 6c14.667 2.66699 23.667 6.5 27 11.5s5 12.5 5 22.5v12v15l-6 303h-42c-19.333 0 -37.5 -9.5 -54.5 -28.5s-28.833 -39.833 -35.5 -62.5l-23 -4l7 119h360l6 -111l-21 -4l-10 20c-5.33301 12.667 -9.33301 21.334 -12 26.001
c-17.333 30 -39.666 45 -66.999 45h-46l-7 -303c0 -21.333 0.166992 -34.166 0.5 -38.499s2.66602 -8.33301 6.99902 -12s12.5 -7.16699 24.5 -10.5l34 -6v-14h-180zM755 593.998l100.001 225.003h154v-15l-39 -10c-4 -2.66699 -6.66699 -4 -8 -4l-1 -0.5
c-0.666992 -0.333008 -1.33398 -0.833008 -2.00098 -1.5c-4 -2 -6 -11.333 -6 -28l8 -293c0.666992 -14.667 2.16699 -23.334 4.5 -26.001s7.83301 -5.33398 16.5 -8.00098l31 -8v-14h-168v14l28 7c16.667 4.66699 27 8.66699 31 12s5.66699 11 5 23l-25 329h-8l-123 -286
l-23 -4l-114 290h-8l-27 -329c-1.33301 -4.66699 -2 -10.334 -2 -17.001c1.33301 -6.66699 9 -11.667 23 -15l42 -10v-14h-157v14c16.667 2 30.5 11.333 41.5 28s20.333 50.5 28 101.5s12.834 118.833 15.501 203.5v16c-0.666992 8.66699 -4.33398 14 -11.001 16
c-2.66699 2 -8.66699 4 -18 6c-4 1.33301 -9 2.5 -15 3.5s-13 2.5 -21 4.5v15h178l68 -225h2z" />
    <glyph glyph-name="trademark" unicode="&#x2122;" horiz-adv-x="1078" 
d="M145 411v13.998l33 6c14.667 2.66699 23.667 6.5 27 11.5s5 12.5 5 22.5v12v15l-6 303h-42c-19.333 0 -37.5 -9.5 -54.5 -28.5s-28.833 -39.833 -35.5 -62.5l-23 -4l7 119h360l6 -111l-21 -4l-10 20c-5.33301 12.667 -9.33301 21.334 -12 26.001
c-17.333 30 -39.666 45 -66.999 45h-46l-7 -303c0 -21.333 0.166992 -34.166 0.5 -38.499s2.66602 -8.33301 6.99902 -12s12.5 -7.16699 24.5 -10.5l34 -6v-14h-180zM755 593.998l100.001 225.003h154v-15l-39 -10c-4 -2.66699 -6.66699 -4 -8 -4l-1 -0.5
c-0.666992 -0.333008 -1.33398 -0.833008 -2.00098 -1.5c-4 -2 -6 -11.333 -6 -28l8 -293c0.666992 -14.667 2.16699 -23.334 4.5 -26.001s7.83301 -5.33398 16.5 -8.00098l31 -8v-14h-168v14l28 7c16.667 4.66699 27 8.66699 31 12s5.66699 11 5 23l-25 329h-8l-123 -286
l-23 -4l-114 290h-8l-27 -329c-1.33301 -4.66699 -2 -10.334 -2 -17.001c1.33301 -6.66699 9 -11.667 23 -15l42 -10v-14h-157v14c16.667 2 30.5 11.333 41.5 28s20.333 50.5 28 101.5s12.834 118.833 15.501 203.5v16c-0.666992 8.66699 -4.33398 14 -11.001 16
c-2.66699 2 -8.66699 4 -18 6c-4 1.33301 -9 2.5 -15 3.5s-13 2.5 -21 4.5v15h178l68 -225h2z" />
    <glyph glyph-name="Atilde" horiz-adv-x="378" 
d="M351 252c1.33301 -10 -19.999 -41.667 -63.999 -95c-8.66699 -12 -20.334 -26.833 -35.001 -44.5l-52 -62.5c-2 -2 -5 -5.5 -9 -10.5l-9.5 -12l-8.5 -10.5c-16.667 -20 -27.334 -29.667 -32.001 -29c-7.33301 0 -11 4.66699 -11 14c0 4 1 8 3 12c2 8 7.33301 20 16 36
l13.5 27.5c3.66699 7.66699 6.5 13.834 8.5 18.501c10.667 20 22.334 43.667 35.001 71c20.667 42.667 31 68 31 76c0 7.33301 -5.33301 18.666 -16 33.999l-12 18c-4 6 -8 11 -12 15c-89.333 124 -133 190.333 -131 199c0 6.66699 3 10 9 10c5.33301 0 17.333 -9 36 -27
l55 -54c45.333 -42 74 -69.333 86 -82l51 -47c8 -6.66699 14.833 -12.667 20.5 -18l13.5 -13c9.33301 -9.33301 14 -18 14 -26z" />
    <glyph glyph-name="ydieresis" unicode="&#xa1;" horiz-adv-x="824" 
d="M485 222c17.333 44.667 39.6631 99.335 66.9961 164.002l23.5 59.5l16.5 42.5l24 65c22 59.333 33 96.333 33 111c0 13.333 -7.33301 21.666 -22 24.999c-6.66699 2 -16.667 3.66699 -30 5c-9.33301 2.66699 -23.666 4.66699 -42.999 6v25h254v-25
c-20 -0.666992 -37.167 -9.66699 -51.5 -27s-29.333 -42.333 -45 -75l-103.5 -222c-21.333 -46.667 -37.333 -80.667 -48 -102c-40.667 -86 -72.667 -148.167 -96 -186.5s-46.833 -65.333 -70.5 -81s-54.5 -24.167 -92.5 -25.5c-41.333 0 -83.666 7.33301 -126.999 22
l-7 165l34 7c32.667 -87.333 71.667 -132 117 -134c42.667 -2 77.334 27.333 104.001 88l-47 87c-19.333 38.667 -34.333 67 -45 85l-31.5 60l-32.5 60l-58 107c-13.333 27.333 -27.666 54 -42.999 80c-8.66699 20 -18.667 36.667 -30 50c-14.667 20.667 -35 33.667 -61 39
l-25 3v25h294v-25c-43.333 -5.33301 -65 -14 -65 -26c-0.666992 -8.66699 7 -33 23 -73s35.5 -84.333 58.5 -133l50.5 -106l19 -36.5c6 -11.667 12.333 -25.5 19 -41.5c11.333 -22.667 21 -43.334 29 -62.001h8z" />
    <glyph glyph-name="ydieresis" unicode="&#x40e;" horiz-adv-x="824" 
d="M485 222c17.333 44.667 39.6631 99.335 66.9961 164.002l23.5 59.5l16.5 42.5l24 65c22 59.333 33 96.333 33 111c0 13.333 -7.33301 21.666 -22 24.999c-6.66699 2 -16.667 3.66699 -30 5c-9.33301 2.66699 -23.666 4.66699 -42.999 6v25h254v-25
c-20 -0.666992 -37.167 -9.66699 -51.5 -27s-29.333 -42.333 -45 -75l-103.5 -222c-21.333 -46.667 -37.333 -80.667 -48 -102c-40.667 -86 -72.667 -148.167 -96 -186.5s-46.833 -65.333 -70.5 -81s-54.5 -24.167 -92.5 -25.5c-41.333 0 -83.666 7.33301 -126.999 22
l-7 165l34 7c32.667 -87.333 71.667 -132 117 -134c42.667 -2 77.334 27.333 104.001 88l-47 87c-19.333 38.667 -34.333 67 -45 85l-31.5 60l-32.5 60l-58 107c-13.333 27.333 -27.666 54 -42.999 80c-8.66699 20 -18.667 36.667 -30 50c-14.667 20.667 -35 33.667 -61 39
l-25 3v25h294v-25c-43.333 -5.33301 -65 -14 -65 -26c-0.666992 -8.66699 7 -33 23 -73s35.5 -84.333 58.5 -133l50.5 -106l19 -36.5c6 -11.667 12.333 -25.5 19 -41.5c11.333 -22.667 21 -43.334 29 -62.001h8z" />
    <glyph glyph-name="Ydieresis" unicode="&#xa2;" horiz-adv-x="578" 
d="M318 58l84.002 224.995l15 42l16 45c8 26.667 12 42.334 12 47.001c1.33301 20 -20.334 30.333 -65.001 31v19h181v-19c-22 0 -38.667 -9.83301 -50 -29.5s-31.333 -62.5 -60 -128.5l-122 -293c-62 -150.667 -127.333 -225.667 -196 -225c-32.667 0 -49 14.667 -49 44
c0 15.333 5.66699 29 17 41s27 18.333 47 19c1.33301 0 13 -2 35 -6c5.33301 -2 11.333 -3.33301 18 -4c11.333 0 22.833 6.33301 34.5 19s26.167 38.334 43.5 77.001l-136 332l-10 25c-4 10 -7.66699 18.333 -11 25c-2.66699 5.33301 -5.16699 10.833 -7.5 16.5
s-4.5 10.667 -6.5 15s-5 9.83301 -9 16.5c-15.333 36.667 -37.333 55.334 -66 56.001v19h214v-19l-29 -5c-16.667 -3.33301 -26.334 -8.66602 -29.001 -15.999c-3.33301 -2.66699 -3.33301 -8 0 -16c3.33301 -21.333 15.333 -59.666 36 -114.999l87 -238h6z" />
    <glyph glyph-name="Ydieresis" unicode="&#x45e;" horiz-adv-x="578" 
d="M318 58l84.002 224.995l15 42l16 45c8 26.667 12 42.334 12 47.001c1.33301 20 -20.334 30.333 -65.001 31v19h181v-19c-22 0 -38.667 -9.83301 -50 -29.5s-31.333 -62.5 -60 -128.5l-122 -293c-62 -150.667 -127.333 -225.667 -196 -225c-32.667 0 -49 14.667 -49 44
c0 15.333 5.66699 29 17 41s27 18.333 47 19c1.33301 0 13 -2 35 -6c5.33301 -2 11.333 -3.33301 18 -4c11.333 0 22.833 6.33301 34.5 19s26.167 38.334 43.5 77.001l-136 332l-10 25c-4 10 -7.66699 18.333 -11 25c-2.66699 5.33301 -5.16699 10.833 -7.5 16.5
s-4.5 10.667 -6.5 15s-5 9.83301 -9 16.5c-15.333 36.667 -37.333 55.334 -66 56.001v19h214v-19l-29 -5c-16.667 -3.33301 -26.334 -8.66602 -29.001 -15.999c-3.33301 -2.66699 -3.33301 -8 0 -16c3.33301 -21.333 15.333 -59.666 36 -114.999l87 -238h6z" />
    <glyph glyph-name="Ydieresis" unicode="&#x178;" horiz-adv-x="578" 
d="M318 58l84.002 224.995l15 42l16 45c8 26.667 12 42.334 12 47.001c1.33301 20 -20.334 30.333 -65.001 31v19h181v-19c-22 0 -38.667 -9.83301 -50 -29.5s-31.333 -62.5 -60 -128.5l-122 -293c-62 -150.667 -127.333 -225.667 -196 -225c-32.667 0 -49 14.667 -49 44
c0 15.333 5.66699 29 17 41s27 18.333 47 19c1.33301 0 13 -2 35 -6c5.33301 -2 11.333 -3.33301 18 -4c11.333 0 22.833 6.33301 34.5 19s26.167 38.334 43.5 77.001l-136 332l-10 25c-4 10 -7.66699 18.333 -11 25c-2.66699 5.33301 -5.16699 10.833 -7.5 16.5
s-4.5 10.667 -6.5 15s-5 9.83301 -9 16.5c-15.333 36.667 -37.333 55.334 -66 56.001v19h214v-19l-29 -5c-16.667 -3.33301 -26.334 -8.66602 -29.001 -15.999c-3.33301 -2.66699 -3.33301 -8 0 -16c3.33301 -21.333 15.333 -59.666 36 -114.999l87 -238h6z" />
    <glyph glyph-name="lozenge" unicode="&#xa3;" 
d="M146 -149c14.667 22.667 27.5 49.332 38.5 79.999s15.833 53.334 14.5 68.001c0 5.33301 -2 8 -6 8c-8.66699 0.666992 -23 -2.33301 -43 -9c-22.667 24.667 -34 55 -34 91c20.667 14.667 45.667 23 75 25c44.667 0.666992 67 -21 67 -65
c0.666992 -29.333 -8.33301 -66.5 -27 -111.5s-40.667 -89.167 -66 -132.5l-37 23zM320 -172.002c22 27.333 39.668 58.501 53.001 93.501s19.333 60.833 18 77.5c0 5.33301 -2 8 -6 8c-6.66699 0.666992 -21.667 -2.33301 -45 -9c-21.333 29.333 -32.333 59.666 -33 90.999
c22.667 14.667 47.667 23 75 25c42 0.666992 64.667 -21 68 -65c0 -30 -9.83301 -68.333 -29.5 -115s-40.834 -89.667 -63.501 -129z" />
    <glyph glyph-name="lozenge" unicode="&#x408;" 
d="M146 -149c14.667 22.667 27.5 49.332 38.5 79.999s15.833 53.334 14.5 68.001c0 5.33301 -2 8 -6 8c-8.66699 0.666992 -23 -2.33301 -43 -9c-22.667 24.667 -34 55 -34 91c20.667 14.667 45.667 23 75 25c44.667 0.666992 67 -21 67 -65
c0.666992 -29.333 -8.33301 -66.5 -27 -111.5s-40.667 -89.167 -66 -132.5l-37 23zM320 -172.002c22 27.333 39.668 58.501 53.001 93.501s19.333 60.833 18 77.5c0 5.33301 -2 8 -6 8c-6.66699 0.666992 -21.667 -2.33301 -45 -9c-21.333 29.333 -32.333 59.666 -33 90.999
c22.667 14.667 47.667 23 75 25c42 0.666992 64.667 -21 68 -65c0 -30 -9.83301 -68.333 -29.5 -115s-40.834 -89.667 -63.501 -129z" />
    <glyph glyph-name="section" unicode="&#xa7;" horiz-adv-x="557" 
d="M155 437c-4.66699 6 -8.33496 9.66895 -11.002 11.002c-16 19.333 -25 30.666 -27 33.999c-24 29.333 -35 63 -33 101c4.66699 40 24.334 73.667 59.001 101s85 41 151 41c59.333 0 106.333 -10 141 -30s51.334 -42.333 50.001 -67c0 -26 -13.333 -40.667 -40 -44
c-34.667 -2.66699 -62.334 16.333 -83.001 57c-0.666992 2 -2.33398 5.66699 -5.00098 11s-4.66699 9 -6 11c-12.667 20 -35 29 -67 27c-36 -0.666992 -63.333 -9.33398 -82 -26.001s-28.667 -36 -30 -58c-3.33301 -35.333 4 -61.5 22 -78.5s42 -32.833 72 -47.5
c12.667 -6 29 -13.167 49 -21.5s39.667 -17.166 59 -26.499c40 -18 71.167 -37.667 93.5 -59s33.5 -51 33.5 -89c0 -28.667 -8.66699 -57.834 -26 -87.501s-47 -65.5 -89 -107.5c50.667 -24 76 -57.667 76 -101c-1.33301 -32.667 -12.333 -66 -33 -100
s-48.5 -62.5 -83.5 -85.5s-71.833 -34.5 -110.5 -34.5c-44 0 -85 12.333 -123 37c-34 22 -51 49 -51 81c0 26.667 12.667 41.667 38 45c32 4.66699 56.333 -16.666 73 -63.999c2 -4 4.66699 -10 8 -18s6.33301 -14 9 -18c10.667 -17.333 27.334 -26 50.001 -26
c34.667 -0.666992 64.334 11.666 89.001 36.999s38.667 54.333 42 87c2.66699 32.667 -3.83301 56.167 -19.5 70.5s-46.5 33.833 -92.5 58.5l-84 44c-38 22 -68.167 43.833 -90.5 65.5s-33.833 50.5 -34.5 86.5c-1.33301 59.333 34 120.333 106 183zM181.999 417.002
c-46.667 -48.667 -69.334 -90.666 -68.001 -125.999c2 -15.333 6.5 -27.5 13.5 -36.5s17.167 -18.833 30.5 -29.5c16 -12 39.667 -26.333 71 -43l75 -44c8 -4 16 -8.33301 24 -13l24 -14c22.667 17.333 43 39 61 65s26.667 48.667 26 68
c-1.33301 29.333 -19.333 53.333 -54 72c-11.333 7.33301 -24.166 14.666 -38.499 21.999l-42.5 21c-24 10 -64.667 29.333 -122 58z" />
    <glyph glyph-name="guilsinglright" unicode="&#xa8;" horiz-adv-x="753" 
d="M249 786c-26 0 -45.334 8.5 -58.001 25.5s-17 36.5 -13 58.5c16.667 16.667 40.334 25 71.001 25c30 0 53.333 -8.33301 70 -25c4 -22 -0.166992 -41.5 -12.5 -58.5s-31.5 -25.5 -57.5 -25.5zM517.999 786c-25.333 0 -44.334 8.16797 -57.001 24.501
s-17.334 36.166 -14.001 59.499c16.667 16.667 40.334 25 71.001 25s54.334 -8.33301 71.001 -25c4 -22 -0.5 -41.5 -13.5 -58.5s-32.167 -25.5 -57.5 -25.5zM640.998 725.001l0.000976562 -168l-39 -9c-12 52.667 -29.167 88.334 -51.5 107.001s-56.5 28 -102.5 28h-177
l-10 -269c56 -4 96 -5.5 120 -4.5s43.5 8.16699 58.5 21.5s24.5 37 28.5 71h30v-233h-37c-4.66699 33.333 -14.334 57.666 -29.001 72.999s-35.5 24.333 -62.5 27s-63.167 2.33398 -108.5 -0.999023l-8 -315c64 -8 124 -12 180 -12c38 0 74.167 8.66699 108.5 26
s64.5 55.666 90.5 114.999l37 7l-22 -189h-589v24l49 12c30.667 6.66699 48.667 15 54 25s7.33301 37.333 6 82l-10 440c0 7.33301 -0.166992 13.166 -0.5 17.499s-0.833008 8.83301 -1.5 13.5v23c0 19.333 -3.33301 32.333 -10 39s-24 12.334 -52 17.001l-41 7v25h589z" />
    <glyph glyph-name="guilsinglright" unicode="&#x203a;" horiz-adv-x="753" 
d="M249 786c-26 0 -45.334 8.5 -58.001 25.5s-17 36.5 -13 58.5c16.667 16.667 40.334 25 71.001 25c30 0 53.333 -8.33301 70 -25c4 -22 -0.166992 -41.5 -12.5 -58.5s-31.5 -25.5 -57.5 -25.5zM517.999 786c-25.333 0 -44.334 8.16797 -57.001 24.501
s-17.334 36.166 -14.001 59.499c16.667 16.667 40.334 25 71.001 25s54.334 -8.33301 71.001 -25c4 -22 -0.5 -41.5 -13.5 -58.5s-32.167 -25.5 -57.5 -25.5zM640.998 725.001l0.000976562 -168l-39 -9c-12 52.667 -29.167 88.334 -51.5 107.001s-56.5 28 -102.5 28h-177
l-10 -269c56 -4 96 -5.5 120 -4.5s43.5 8.16699 58.5 21.5s24.5 37 28.5 71h30v-233h-37c-4.66699 33.333 -14.334 57.666 -29.001 72.999s-35.5 24.333 -62.5 27s-63.167 2.33398 -108.5 -0.999023l-8 -315c64 -8 124 -12 180 -12c38 0 74.167 8.66699 108.5 26
s64.5 55.666 90.5 114.999l37 7l-22 -189h-589v24l49 12c30.667 6.66699 48.667 15 54 25s7.33301 37.333 6 82l-10 440c0 7.33301 -0.166992 13.166 -0.5 17.499s-0.833008 8.83301 -1.5 13.5v23c0 19.333 -3.33301 32.333 -10 39s-24 12.334 -52 17.001l-41 7v25h589z" />
    <glyph glyph-name="guilsinglright" unicode="&#x401;" horiz-adv-x="753" 
d="M249 786c-26 0 -45.334 8.5 -58.001 25.5s-17 36.5 -13 58.5c16.667 16.667 40.334 25 71.001 25c30 0 53.333 -8.33301 70 -25c4 -22 -0.166992 -41.5 -12.5 -58.5s-31.5 -25.5 -57.5 -25.5zM517.999 786c-25.333 0 -44.334 8.16797 -57.001 24.501
s-17.334 36.166 -14.001 59.499c16.667 16.667 40.334 25 71.001 25s54.334 -8.33301 71.001 -25c4 -22 -0.5 -41.5 -13.5 -58.5s-32.167 -25.5 -57.5 -25.5zM640.998 725.001l0.000976562 -168l-39 -9c-12 52.667 -29.167 88.334 -51.5 107.001s-56.5 28 -102.5 28h-177
l-10 -269c56 -4 96 -5.5 120 -4.5s43.5 8.16699 58.5 21.5s24.5 37 28.5 71h30v-233h-37c-4.66699 33.333 -14.334 57.666 -29.001 72.999s-35.5 24.333 -62.5 27s-63.167 2.33398 -108.5 -0.999023l-8 -315c64 -8 124 -12 180 -12c38 0 74.167 8.66699 108.5 26
s64.5 55.666 90.5 114.999l37 7l-22 -189h-589v24l49 12c30.667 6.66699 48.667 15 54 25s7.33301 37.333 6 82l-10 440c0 7.33301 -0.166992 13.166 -0.5 17.499s-0.833008 8.83301 -1.5 13.5v23c0 19.333 -3.33301 32.333 -10 39s-24 12.334 -52 17.001l-41 7v25h589z" />
    <glyph glyph-name="copyright" unicode="&#xa9;" horiz-adv-x="763" 
d="M0 362c0 65.333 16.5 127.666 49.5 186.999s78.833 106.666 137.5 141.999s123 53 193 53c71.333 0 136.5 -17.667 195.5 -53s105 -82.666 138 -141.999s49.5 -121.666 49.5 -186.999c0 -64.667 -16.5 -126.334 -49.5 -185.001s-79 -105.667 -138 -141
s-124.167 -53 -195.5 -53s-136.333 17.667 -195 53s-104.167 82.333 -136.5 141s-48.5 120.334 -48.5 185.001zM53 362c0 -62 15.333 -117.833 46 -167.5s71.167 -88.5 121.5 -116.5s103.5 -42 159.5 -42c56.667 -0.666992 110.334 13 161.001 41s91.167 67.333 121.5 118
s45.5 106.334 45.5 167.001c0 46.667 -8.66699 90 -26 130s-41.5 75 -72.5 105s-65.833 53 -104.5 69s-80.334 24 -125.001 24c-54.667 0 -107.5 -14.167 -158.5 -42.5s-91.833 -67.333 -122.5 -117s-46 -105.834 -46 -168.501zM511 462
c-8.66699 27.333 -21.834 47.8311 -39.501 61.498s-41.167 20.5 -70.5 20.5c-39.333 1.33301 -75 -10.167 -107 -34.5s-47.667 -71.5 -47 -141.5c2 -68.667 19.833 -119.667 53.5 -153s72.167 -50 115.5 -50c34.667 0.666992 61.167 13 79.5 37s27.5 41 27.5 51h20l-11 -84
c-38.667 -17.333 -83 -26 -133 -26c-48.667 0 -89.667 10.333 -123 31s-59 47.834 -77 81.501s-27 69.834 -27 108.501c0 48.667 11.833 88.667 35.5 120s52.334 53.5 86.001 66.5s65.5 18.833 95.5 17.5c18 0 35 -2 51 -6c16 -1.33301 28 -2 36 -2
c12.667 0 31 2.66699 55 8l2 -100z" />
    <glyph glyph-name="guillemotleft" unicode="&#xab;" 
d="M24 243c0 7.33301 5.00195 16 15.002 26c5.33301 5.33301 10.833 10.5 16.5 15.5s11.167 10.167 16.5 15.5l31 28c8.66699 8 15.667 15 21 21c10.667 9.33301 40.667 37 90 83c6.66699 6 15.334 14.333 26.001 25l30 29c18.667 18 30.667 27 36 27
c2.66699 0 5 -0.666992 7 -2s3 -3.33301 3 -6c2 -8 -25 -50.667 -81 -128c-9.33301 -14 -19 -27.667 -29 -41s-18 -24.333 -24 -33c-26 -36.667 -38.667 -59.667 -38 -69c0 -2 3 -10.833 9 -26.5s13 -31.5 21 -47.5l39 -72c3.33301 -7.33301 7.66602 -16 12.999 -26
s8.33301 -16.333 9 -19l13 -22c2.66699 -4.66699 4.66699 -9 6 -13c1.33301 -6.66699 2 -10.334 2 -11.001c-0.666992 -9.33301 -4.33398 -14 -11.001 -14c-4.66699 -1.33301 -16.334 7.33398 -35.001 26.001c-4.66699 8 -13.667 19.333 -27 34l-29.5 34.5l-28 31.5
l-33.5 39c-45.333 53.333 -68 85 -68 95zM249.002 238c0 0.666992 0.5 1.83105 1.5 3.49805s2.5 4.5 4.5 8.5l51 53l46.5 44l47.5 45c4 4.66699 9.16699 10 15.5 16l21.5 21c7.33301 6 14.333 13 21 21c8.66699 7.33301 14.667 10 18 8c6.66699 0 9.66699 -4.33301 9 -13
c-2 -6 -4.66699 -10.667 -8 -14c-1.33301 -2.66699 -2.5 -4.5 -3.5 -5.5s-2.16699 -2.83301 -3.5 -5.5c-4 -6.66699 -13 -19.667 -27 -39l-38.5 -54.5l-35 -53.5c-11.667 -18.667 -17.5 -30 -17.5 -34c0 -5.33301 2.33301 -11.666 7 -18.999l14 -28
c4.66699 -9.33301 9 -19 13 -29l40 -75c4 -5.33301 7.33301 -10.166 10 -14.499l7 -11.5c8 -16 13 -25.667 15 -29c4 -6.66699 7.33301 -12.667 10 -18v-8c-0.666992 -4 -3 -6.33301 -7 -7c-8.66699 -4.66699 -24 6.66602 -46 33.999l-12 14.5c-4 5 -8 9.5 -12 13.5
c-22.667 29.333 -45 56.333 -67 81l-27 30.5l-28 31.5c-8.66699 10.667 -13.667 17.334 -15 20.001c-3.33301 4.66699 -5 9 -5 13z" />
    <glyph glyph-name="logicalnot" unicode="&#xac;" horiz-adv-x="386" 
d="M52 232l17.001 51c26.667 -2.66699 59.667 -4 99 -4c41.333 0 80 0.666992 116 2s52.667 2 50 2l-15 -45c-50.667 1.33301 -89.334 2 -116.001 2c-64 -1.33301 -114.333 -4 -151 -8z" />
    <glyph glyph-name="registered" unicode="&#xae;" horiz-adv-x="541" 
d="M0 517c0 47.333 11.666 91.6641 34.999 132.997s55.333 74.666 96 99.999s86.667 38 138 38c52 0 98.5 -12.667 139.5 -38s73.333 -59.166 97 -101.499s35.5 -86.166 35.5 -131.499s-11.833 -89.166 -35.5 -131.499s-56.167 -76 -97.5 -101s-87.666 -37.5 -138.999 -37.5
c-76 0 -139.833 26.833 -191.5 80.5s-77.5 116.834 -77.5 189.501zM37.999 516.998c0 -39.333 10.001 -77.001 30.001 -113.001s47.5 -64.667 82.5 -86s74.5 -32.666 118.5 -33.999c66 0 121.167 23.167 165.5 69.5s66.5 100.833 66.5 163.5c0 30 -5.66699 59.167 -17 87.5
s-26.833 52.833 -46.5 73.5s-44.334 37.667 -74.001 51s-61.167 20 -94.5 20c-44 0 -83.5 -10.667 -118.5 -32s-62.5 -50 -82.5 -86s-30 -74 -30 -114zM208 385.997l-60.002 -0.00195312v10l20 4c14.667 2.66699 22 10 22 22v18l-5 168v11v9
c0 8.66699 -1.66699 14.334 -5 17.001s-9.33301 4.33398 -18 5.00098l-15 3v10h86h22c26.667 0 47 -0.333008 61 -1c49.333 -6 74 -30.333 74 -73c-1.33301 -36 -21.666 -58 -60.999 -66c-1.33301 0 -3.33301 -0.166992 -6 -0.5s-4.33398 -0.833008 -5.00098 -1.5
c-5.33301 -0.666992 -7.66602 -2 -6.99902 -4c0 -4 12.333 -24.333 37 -61s40.667 -55 48 -55c2 0 8.66699 4.33301 20 13l9 -12c-4.66699 -1.33301 -8 -3 -10 -5c-2.66699 -1.33301 -5 -2.66602 -7 -3.99902s-4.33301 -2.66602 -7 -3.99902
c-1.33301 -0.666992 -3.5 -1.83398 -6.5 -3.50098s-5.5 -3.16699 -7.5 -4.5c-1.33301 -1.33301 -4 -2 -8 -2c-8.66699 -0.666992 -29.334 19.5 -62.001 60.5s-53 69.5 -61 85.5l-1 6c58.667 -2.66699 88 16.666 88 57.999c0.666992 27.333 -9.16602 44.5 -29.499 51.5
s-48.166 8.83301 -83.499 5.5l-5 -206v-9v-9c0 -8 1.5 -13.333 4.5 -16s8.83301 -4.66699 17.5 -6l19 -4v-10h-58z" />
    <glyph glyph-name="integral" unicode="&#xaf;" horiz-adv-x="441" 
d="M58 0v24.001l53 12c32.667 7.33301 51.5 16.166 56.5 26.499s6.83301 37.166 5.5 80.499l-11 440v48c0 15.333 -1.33301 26.5 -4 33.5s-8.66699 12.833 -18 17.5s-24 8.33398 -44 11.001l-44 7v25h337v-25l-43 -7c-29.333 -4.66699 -47.5 -10 -54.5 -16
s-11.167 -19.333 -12.5 -40v-23v-31l-11 -440c-1.33301 -32 -1.33301 -53.5 0 -64.5s6 -19.5 14 -25.5s24 -11.667 48 -17l54 -12v-24h-326zM87 786.001c-26 0 -45.334 8.5 -58.001 25.5s-17 36.5 -13 58.5c16.667 16.667 40.334 25 71.001 25c30 0 53.333 -8.33301 70 -25
c4 -22 -0.166992 -41.5 -12.5 -58.5s-31.5 -25.5 -57.5 -25.5zM355.999 786.001c-25.333 0 -44.334 8.16797 -57.001 24.501s-17.334 36.166 -14.001 59.499c16.667 16.667 40.334 25 71.001 25s54.334 -8.33301 71.001 -25c4 -22 -0.5 -41.5 -13.5 -58.5
s-32.167 -25.5 -57.5 -25.5z" />
    <glyph glyph-name="integral" unicode="&#x407;" horiz-adv-x="441" 
d="M58 0v24.001l53 12c32.667 7.33301 51.5 16.166 56.5 26.499s6.83301 37.166 5.5 80.499l-11 440v48c0 15.333 -1.33301 26.5 -4 33.5s-8.66699 12.833 -18 17.5s-24 8.33398 -44 11.001l-44 7v25h337v-25l-43 -7c-29.333 -4.66699 -47.5 -10 -54.5 -16
s-11.167 -19.333 -12.5 -40v-23v-31l-11 -440c-1.33301 -32 -1.33301 -53.5 0 -64.5s6 -19.5 14 -25.5s24 -11.667 48 -17l54 -12v-24h-326zM87 786.001c-26 0 -45.334 8.5 -58.001 25.5s-17 36.5 -13 58.5c16.667 16.667 40.334 25 71.001 25c30 0 53.333 -8.33301 70 -25
c4 -22 -0.166992 -41.5 -12.5 -58.5s-31.5 -25.5 -57.5 -25.5zM355.999 786.001c-25.333 0 -44.334 8.16797 -57.001 24.501s-17.334 36.166 -14.001 59.499c16.667 16.667 40.334 25 71.001 25s54.334 -8.33301 71.001 -25c4 -22 -0.5 -41.5 -13.5 -58.5
s-32.167 -25.5 -57.5 -25.5z" />
    <glyph glyph-name="degree" unicode="&#xb0;" horiz-adv-x="278" 
d="M15 613c0 36.667 7.16602 65.5 21.499 86.5s31.833 34.5 52.5 40.5c10.667 2.66699 27 4 49 4c22.667 0 39 -1.33301 49 -4c21.333 -6 39.333 -19.333 54 -40s22 -49.667 22 -87c0 -36.667 -7.5 -65.667 -22.5 -87s-32.833 -35 -53.5 -41
c-7.33301 -2 -23.666 -3 -48.999 -3c-24.667 0 -41 1 -49 3c-21.333 7.33301 -39 21.5 -53 42.5s-21 49.5 -21 85.5zM67.999 613c0 -34.667 6.83398 -57.001 20.501 -67.001s30.167 -15 49.5 -15c20 0 36.833 4.83301 50.5 14.5s20.5 32.167 20.5 67.5
c0 34.667 -6.83301 56.834 -20.5 66.501s-30.5 14.5 -50.5 14.5c-12 0 -22.833 -1.33301 -32.5 -4s-18.334 -10 -26.001 -22s-11.5 -30.333 -11.5 -55z" />
    <glyph glyph-name="plusminus" unicode="&#xb1;" horiz-adv-x="834" 
d="M450 38l-58.0029 21.0029c0.666992 6.66699 1.33398 14 2.00098 22s1 13.667 1 17c0.666992 13.333 1.16699 32 1.5 56s0.5 46 0.5 66c0 64 0.666992 105 2 123h-13c-11.333 -0.666992 -25.333 -0.833984 -42 -0.500977s-36 0.5 -58 0.5
c-89.333 0 -153.666 -4.33301 -192.999 -13l20 57c8.66699 0 15.834 -0.166992 21.501 -0.5s11.834 -0.5 18.501 -0.5c53.333 -1.33301 94 -2 122 -2c10.667 0 25.334 -0.333008 44.001 -1s36 -1.33398 52 -2.00098h28c-6 162 -11 264 -15 306l55 -20v-42v-130
c0 -22.667 -0.166992 -40.834 -0.5 -54.501s-0.833008 -28.5 -1.5 -44.5v-15h23c26 2 51.5 3.33301 76.5 4l74.5 2c53.333 2 96.333 5.33301 129 10l-20 -57c-8.66699 0.666992 -22.334 1 -41.001 1h-132c-21.333 0.666992 -40.833 1.16699 -58.5 1.5
s-34.834 0.5 -51.501 0.5v-48v-63c0 -34 0.666992 -66.667 2 -98s5 -63.333 11 -96zM77.9971 -104.997l19.9971 51.002h33c50.667 -1.33301 87.667 -2 111 -2c12.667 0 30.667 -0.333008 54 -1s45 -1.33398 65 -2.00098c82.667 0 150.834 1 204.501 3
s98.167 4.33301 133.5 7s51 4 47 4l-18 -51c-8.66699 0.666992 -21.667 1 -39 1h-118c-55.333 0 -96.666 0.666992 -123.999 2h-194c-48.667 0 -84.167 -0.833008 -106.5 -2.5s-45.166 -4.83398 -68.499 -9.50098z" />
    <glyph glyph-name="germandbls" unicode="&#xb2;" horiz-adv-x="441" 
d="M58 0v24.001l53 12c32.667 7.33301 51.5 16.166 56.5 26.499s6.83301 37.166 5.5 80.499l-11 440v48c0 15.333 -1.33301 26.5 -4 33.5s-8.66699 12.833 -18 17.5s-24 8.33398 -44 11.001l-44 7v25h337v-25l-43 -7c-29.333 -4.66699 -47.5 -10 -54.5 -16
s-11.167 -19.333 -12.5 -40v-23v-31l-11 -440c-1.33301 -32 -1.33301 -53.5 0 -64.5s6 -19.5 14 -25.5s24 -11.667 48 -17l54 -12v-24h-326zM222 786.001c-26 0 -45.334 8.5 -58.001 25.5s-17 36.5 -13 58.5c16.667 16.667 40.334 25 71.001 25c30 0 53.333 -8.33301 70 -25
c4 -22 -0.166992 -41.5 -12.5 -58.5s-31.5 -25.5 -57.5 -25.5z" />
    <glyph glyph-name="germandbls" unicode="&#x406;" horiz-adv-x="441" 
d="M58 0v24.001l53 12c32.667 7.33301 51.5 16.166 56.5 26.499s6.83301 37.166 5.5 80.499l-11 440v48c0 15.333 -1.33301 26.5 -4 33.5s-8.66699 12.833 -18 17.5s-24 8.33398 -44 11.001l-44 7v25h337v-25l-43 -7c-29.333 -4.66699 -47.5 -10 -54.5 -16
s-11.167 -19.333 -12.5 -40v-23v-31l-11 -440c-1.33301 -32 -1.33301 -53.5 0 -64.5s6 -19.5 14 -25.5s24 -11.667 48 -17l54 -12v-24h-326zM222 786.001c-26 0 -45.334 8.5 -58.001 25.5s-17 36.5 -13 58.5c16.667 16.667 40.334 25 71.001 25c30 0 53.333 -8.33301 70 -25
c4 -22 -0.166992 -41.5 -12.5 -58.5s-31.5 -25.5 -57.5 -25.5z" />
    <glyph glyph-name="paragraph" unicode="&#xb6;" 
d="M239 -216v648c-57.333 2 -103.833 21.833 -139.5 59.5s-53.5 82.167 -53.5 133.5s18 96 54 134s82.333 58 139 60h92v-1035h-92zM408 -216v1035h93v-1035h-93z" />
    <glyph glyph-name="bullet" unicode="&#xb7;" horiz-adv-x="401" 
d="M77 360c0 33.333 11.834 62.167 35.501 86.5s52.5 36.5 86.5 36.5c23.333 0 44.666 -5.83301 63.999 -17.5s34.333 -27 45 -46s16 -38.833 16 -59.5c0 -34 -12 -63.333 -36 -88s-53.667 -37 -89 -37c-32 0 -60.333 12.333 -85 37s-37 54 -37 88z" />
    <glyph glyph-name="bullet" unicode="&#x2022;" horiz-adv-x="401" 
d="M77 360c0 33.333 11.834 62.167 35.501 86.5s52.5 36.5 86.5 36.5c23.333 0 44.666 -5.83301 63.999 -17.5s34.333 -27 45 -46s16 -38.833 16 -59.5c0 -34 -12 -63.333 -36 -88s-53.667 -37 -89 -37c-32 0 -60.333 12.333 -85 37s-37 54 -37 88z" />
    <glyph glyph-name="fi" unicode="&#xb8;" horiz-adv-x="516" 
d="M114 643c3.33301 12.667 11.334 20.667 24.001 24c10 1.33301 23.667 2 41 2c16.667 0 29.667 -0.666992 39 -2c15.333 -5.33301 23 -16.333 23 -33c1.33301 -16.667 -4.33398 -33.5 -17.001 -50.5s-28 -25.5 -46 -25.5c-18.667 0 -34.5 9.66699 -47.5 29
s-18.5 38 -16.5 56zM316.001 643c2.66699 12 10.667 20 24 24c9.33301 1.33301 22.333 2 39 2c17.333 0 31 -0.666992 41 -2c15.333 -6 23 -17 23 -33c0 -16.667 -6.5 -33.5 -19.5 -50.5s-27.833 -25.5 -44.5 -25.5c-18 0 -33.5 9.66699 -46.5 29s-18.5 38 -16.5 56z
M427.001 74l17.999 -31c-46.667 -36 -100.334 -54.333 -161.001 -55c-64.667 0 -120.5 19.333 -167.5 58s-70.5 100.667 -70.5 186c0 49.333 10.667 92.833 32 130.5s49.833 66.167 85.5 85.5s72.834 29 111.501 29c72.667 0 122.834 -21.333 150.501 -64
s41.5 -85 41.5 -127c0 -14 -2.33301 -22.667 -7 -26s-13 -5 -25 -5h-287c-6 -81.333 8.16699 -139 42.5 -173s73.5 -51 117.5 -51c40 -2 79.667 12.333 119 43zM375 290c1.33301 105.333 -30.667 158 -96 158c-35.333 0 -65.5 -15.5 -90.5 -46.5s-38.5 -68.167 -40.5 -111.5
h227z" />
    <glyph glyph-name="fi" unicode="&#x451;" horiz-adv-x="516" 
d="M114 643c3.33301 12.667 11.334 20.667 24.001 24c10 1.33301 23.667 2 41 2c16.667 0 29.667 -0.666992 39 -2c15.333 -5.33301 23 -16.333 23 -33c1.33301 -16.667 -4.33398 -33.5 -17.001 -50.5s-28 -25.5 -46 -25.5c-18.667 0 -34.5 9.66699 -47.5 29
s-18.5 38 -16.5 56zM316.001 643c2.66699 12 10.667 20 24 24c9.33301 1.33301 22.333 2 39 2c17.333 0 31 -0.666992 41 -2c15.333 -6 23 -17 23 -33c0 -16.667 -6.5 -33.5 -19.5 -50.5s-27.833 -25.5 -44.5 -25.5c-18 0 -33.5 9.66699 -46.5 29s-18.5 38 -16.5 56z
M427.001 74l17.999 -31c-46.667 -36 -100.334 -54.333 -161.001 -55c-64.667 0 -120.5 19.333 -167.5 58s-70.5 100.667 -70.5 186c0 49.333 10.667 92.833 32 130.5s49.833 66.167 85.5 85.5s72.834 29 111.501 29c72.667 0 122.834 -21.333 150.501 -64
s41.5 -85 41.5 -127c0 -14 -2.33301 -22.667 -7 -26s-13 -5 -25 -5h-287c-6 -81.333 8.16699 -139 42.5 -173s73.5 -51 117.5 -51c40 -2 79.667 12.333 119 43zM375 290c1.33301 105.333 -30.667 158 -96 158c-35.333 0 -65.5 -15.5 -90.5 -46.5s-38.5 -68.167 -40.5 -111.5
h227z" />
    <glyph glyph-name="guilsinglleft" unicode="&#xb9;" horiz-adv-x="1162" 
d="M674 98h4l-1 485c0 14 -0.666992 24.333 -2 31v23c0 19.333 -3.33301 32.333 -10 39s-24 12.334 -52 17.001l-42 7v25h279v-25l-41 -7c-26 -4.66699 -43 -10.834 -51 -18.501s-12 -18.167 -12 -31.5v-60l-36 -600h-60l-458 670h-7l7 -510c0 -30.667 0.666992 -52 2 -64
s6.33301 -21 15 -27s23.667 -11.333 45 -16l50 -12v-24h-272v24l30 10c21.333 7.33301 35.5 13.5 42.5 18.5s11.5 13.167 13.5 24.5c0.666992 4.66699 1 11 1 19c0 4 0.166992 7.5 0.5 10.5s0.5 7.16699 0.5 12.5c0.666992 4 1.16699 7.66699 1.5 11s0.5 7.66602 0.5 12.999
l20 488c0.666992 21.333 -3.5 34.833 -12.5 40.5s-29.167 11.834 -60.5 18.501l-37 10v25h259zM976 235c-58 0 -99.332 16.833 -123.999 50.5s-37 73.167 -37 118.5s13.833 84.166 41.5 116.499s67.5 48.5 119.5 48.5s91.833 -16.167 119.5 -48.5
s41.5 -71.166 41.5 -116.499c1.33301 -44 -10.834 -83.167 -36.501 -117.5s-67.167 -51.5 -124.5 -51.5zM826.001 160c4.66699 0 21.167 -0.833008 49.5 -2.5s59.833 -2.5 94.5 -2.5c34 0 60.5 0.333008 79.5 1s35.833 1.5 50.5 2.5s23.334 1.5 26.001 1.5l-13 -47
c-1.33301 0 -13.333 0.833008 -36 2.5s-46.334 2.5 -71.001 2.5h-41h-54c-42 0 -76.333 -1.66699 -103 -5zM882.001 404c0 -92 31.333 -138 94 -138c61.333 0 92 46 92 138c0 91.333 -30.667 137 -92 137c-62.667 0 -94 -45.667 -94 -137z" />
    <glyph glyph-name="guilsinglleft" unicode="&#x2116;" horiz-adv-x="1162" 
d="M674 98h4l-1 485c0 14 -0.666992 24.333 -2 31v23c0 19.333 -3.33301 32.333 -10 39s-24 12.334 -52 17.001l-42 7v25h279v-25l-41 -7c-26 -4.66699 -43 -10.834 -51 -18.501s-12 -18.167 -12 -31.5v-60l-36 -600h-60l-458 670h-7l7 -510c0 -30.667 0.666992 -52 2 -64
s6.33301 -21 15 -27s23.667 -11.333 45 -16l50 -12v-24h-272v24l30 10c21.333 7.33301 35.5 13.5 42.5 18.5s11.5 13.167 13.5 24.5c0.666992 4.66699 1 11 1 19c0 4 0.166992 7.5 0.5 10.5s0.5 7.16699 0.5 12.5c0.666992 4 1.16699 7.66699 1.5 11s0.5 7.66602 0.5 12.999
l20 488c0.666992 21.333 -3.5 34.833 -12.5 40.5s-29.167 11.834 -60.5 18.501l-37 10v25h259zM976 235c-58 0 -99.332 16.833 -123.999 50.5s-37 73.167 -37 118.5s13.833 84.166 41.5 116.499s67.5 48.5 119.5 48.5s91.833 -16.167 119.5 -48.5
s41.5 -71.166 41.5 -116.499c1.33301 -44 -10.834 -83.167 -36.501 -117.5s-67.167 -51.5 -124.5 -51.5zM826.001 160c4.66699 0 21.167 -0.833008 49.5 -2.5s59.833 -2.5 94.5 -2.5c34 0 60.5 0.333008 79.5 1s35.833 1.5 50.5 2.5s23.334 1.5 26.001 1.5l-13 -47
c-1.33301 0 -13.333 0.833008 -36 2.5s-46.334 2.5 -71.001 2.5h-41h-54c-42 0 -76.333 -1.66699 -103 -5zM882.001 404c0 -92 31.333 -138 94 -138c61.333 0 92 46 92 138c0 91.333 -30.667 137 -92 137c-62.667 0 -94 -45.667 -94 -137z" />
    <glyph glyph-name="guilsinglleft" unicode="&#x2039;" horiz-adv-x="1162" 
d="M674 98h4l-1 485c0 14 -0.666992 24.333 -2 31v23c0 19.333 -3.33301 32.333 -10 39s-24 12.334 -52 17.001l-42 7v25h279v-25l-41 -7c-26 -4.66699 -43 -10.834 -51 -18.501s-12 -18.167 -12 -31.5v-60l-36 -600h-60l-458 670h-7l7 -510c0 -30.667 0.666992 -52 2 -64
s6.33301 -21 15 -27s23.667 -11.333 45 -16l50 -12v-24h-272v24l30 10c21.333 7.33301 35.5 13.5 42.5 18.5s11.5 13.167 13.5 24.5c0.666992 4.66699 1 11 1 19c0 4 0.166992 7.5 0.5 10.5s0.5 7.16699 0.5 12.5c0.666992 4 1.16699 7.66699 1.5 11s0.5 7.66602 0.5 12.999
l20 488c0.666992 21.333 -3.5 34.833 -12.5 40.5s-29.167 11.834 -60.5 18.501l-37 10v25h259zM976 235c-58 0 -99.332 16.833 -123.999 50.5s-37 73.167 -37 118.5s13.833 84.166 41.5 116.499s67.5 48.5 119.5 48.5s91.833 -16.167 119.5 -48.5
s41.5 -71.166 41.5 -116.499c1.33301 -44 -10.834 -83.167 -36.501 -117.5s-67.167 -51.5 -124.5 -51.5zM826.001 160c4.66699 0 21.167 -0.833008 49.5 -2.5s59.833 -2.5 94.5 -2.5c34 0 60.5 0.333008 79.5 1s35.833 1.5 50.5 2.5s23.334 1.5 26.001 1.5l-13 -47
c-1.33301 0 -13.333 0.833008 -36 2.5s-46.334 2.5 -71.001 2.5h-41h-54c-42 0 -76.333 -1.66699 -103 -5zM882.001 404c0 -92 31.333 -138 94 -138c61.333 0 92 46 92 138c0 91.333 -30.667 137 -92 137c-62.667 0 -94 -45.667 -94 -137z" />
    <glyph glyph-name="guillemotright" unicode="&#xbb;" horiz-adv-x="571" 
d="M546 243c1.33301 -10 -19.999 -41.667 -63.999 -95c-8.66699 -12 -20.334 -26.833 -35.001 -44.5l-52 -62.5c-2 -2 -5 -5.5 -9 -10.5l-9.5 -12l-8.5 -10.5c-16.667 -20 -27.334 -29.667 -32.001 -29c-7.33301 0 -11 4.66699 -11 14c0 4 1 8 3 12c2 8 7.33301 20 16 36
l13.5 27.5c3.66699 7.66699 6.5 13.834 8.5 18.501c10.667 20 22.334 43.667 35.001 71c20.667 42.667 31 68 31 76c0 7.33301 -5.33301 18.666 -16 33.999l-12 18c-4 6 -8 11 -12 15c-89.333 124 -133 190.333 -131 199c0 6.66699 3 10 9 10c5.33301 0 17.333 -9 36 -27
l55 -54c45.333 -42 74 -69.333 86 -82l51 -47c8 -6.66699 14.833 -12.667 20.5 -18l13.5 -13c9.33301 -9.33301 14 -18 14 -26zM326.001 241c0 -4.66699 -6.99805 -15.332 -20.998 -31.999c-1.33301 -2 -8.83301 -11.333 -22.5 -28s-22.834 -28.667 -27.501 -36
c-8 -9.33301 -29.667 -36.333 -65 -81c-8 -9.33301 -15.333 -18.666 -22 -27.999l-23 -27c-4 -4 -6.66699 -6.33301 -8 -7c-3.33301 -2 -8 -2.33301 -14 -1c-3.33301 1.33301 -5 3.66602 -5 6.99902c-3.33301 6 4.66699 24.333 24 55c2.66699 6.66699 5.5 13.167 8.5 19.5
l4.5 9.5c10.667 18 25.167 45.833 43.5 83.5s27.166 59.5 26.499 65.5c0 5.33301 -4 15 -12 29l-30 46l-21.5 33c-7 10.667 -14.833 21.334 -23.5 32.001c-6 9.33301 -15.667 22.666 -29 39.999c0 -0.666992 -2.33301 3 -7 11c-4 5.33301 -6 10 -6 14
c-2 8.66699 0.666992 13.667 8 15c4.66699 0.666992 17.334 -9 38.001 -29c15.333 -16.667 27.666 -28.667 36.999 -36l46 -44.5c15.333 -15 30 -30.167 44 -45.5c38 -36.667 57 -58.334 57 -65.001z" />
    <glyph glyph-name="divide" unicode="&#xbc;" horiz-adv-x="290" 
d="M210 462c2 -26.667 -3 -49.501 -15 -68.501s-29 -28.5 -51 -28.5s-39 10.333 -51 31s-17 43.334 -15 68.001c22.667 12 44.667 18 66 18c24.667 0 46.667 -6.66699 66 -20zM210 83.999c2 -26 -2.83203 -48.5 -14.499 -67.5s-28.834 -28.5 -51.501 -28.5
c-22 0 -39 10.167 -51 30.5s-17 42.833 -15 67.5c19.333 10.667 41.333 16.667 66 18c26 0 48 -6.66699 66 -20zM16.001 213.999l17.001 51c26.667 -2.66699 59.667 -4 99 -4c41.333 0 80 0.666992 116 2s52.667 2 50 2l-15 -45c-50.667 1.33301 -89.334 2 -116.001 2
c-64 -1.33301 -114.333 -4 -151 -8z" />
    <glyph glyph-name="divide" unicode="&#x458;" horiz-adv-x="290" 
d="M210 462c2 -26.667 -3 -49.501 -15 -68.501s-29 -28.5 -51 -28.5s-39 10.333 -51 31s-17 43.334 -15 68.001c22.667 12 44.667 18 66 18c24.667 0 46.667 -6.66699 66 -20zM210 83.999c2 -26 -2.83203 -48.5 -14.499 -67.5s-28.834 -28.5 -51.501 -28.5
c-22 0 -39 10.167 -51 30.5s-17 42.833 -15 67.5c19.333 10.667 41.333 16.667 66 18c26 0 48 -6.66699 66 -20zM16.001 213.999l17.001 51c26.667 -2.66699 59.667 -4 99 -4c41.333 0 80 0.666992 116 2s52.667 2 50 2l-15 -45c-50.667 1.33301 -89.334 2 -116.001 2
c-64 -1.33301 -114.333 -4 -151 -8z" />
    <glyph glyph-name="dieresis" unicode="&#xbd;" horiz-adv-x="771" 
d="M641 151l-56 -26.0049c-4 5.33301 -8.5 10.833 -13.5 16.5s-8.83301 9.83398 -11.5 12.501l-35.5 36.5l-49.5 51.5c-45.333 45.333 -74 75 -86 89c-2 -2 -3.5 -3.66699 -4.5 -5s-2.5 -3 -4.5 -5c-10 -11.333 -33.667 -34.666 -71 -69.999
c-62 -62.667 -104.333 -111.334 -127 -146.001l-26 54c6.66699 6.66699 12 11.834 16 15.501l13 12.5c48.667 46.667 77.667 75 87 85l21.5 20l25.5 23.5c10.667 9.66699 18.667 17.167 24 22.5l9.5 9.5l9.5 9.5c-116 108 -191.667 176.667 -227 206l53 25
c5.33301 -4.66699 10.5 -9.5 15.5 -14.5s9.83301 -10.167 14.5 -15.5l30.5 -30.5l31 -31l30.5 -30.5l38 -38.5l31 -32.5c4.66699 -4.66699 8 -8.33398 10 -11.001c7.33301 7.33301 12.666 13 15.999 17l60 65.5l43 45.5c34.667 36.667 62.667 69.334 84 98.001l26 -55
c-9.33301 -7.33301 -19 -16.666 -29 -27.999l-42.5 -42l-51.5 -51l-46 -45l-33 -32l13.5 -13.5l27.5 -27.5l38 -37c31.333 -31.333 57.333 -56.166 78 -74.499s43.334 -36.166 68.001 -53.499z" />
    <glyph glyph-name="dieresis" unicode="&#x405;" horiz-adv-x="771" 
d="M641 151l-56 -26.0049c-4 5.33301 -8.5 10.833 -13.5 16.5s-8.83301 9.83398 -11.5 12.501l-35.5 36.5l-49.5 51.5c-45.333 45.333 -74 75 -86 89c-2 -2 -3.5 -3.66699 -4.5 -5s-2.5 -3 -4.5 -5c-10 -11.333 -33.667 -34.666 -71 -69.999
c-62 -62.667 -104.333 -111.334 -127 -146.001l-26 54c6.66699 6.66699 12 11.834 16 15.501l13 12.5c48.667 46.667 77.667 75 87 85l21.5 20l25.5 23.5c10.667 9.66699 18.667 17.167 24 22.5l9.5 9.5l9.5 9.5c-116 108 -191.667 176.667 -227 206l53 25
c5.33301 -4.66699 10.5 -9.5 15.5 -14.5s9.83301 -10.167 14.5 -15.5l30.5 -30.5l31 -31l30.5 -30.5l38 -38.5l31 -32.5c4.66699 -4.66699 8 -8.33398 10 -11.001c7.33301 7.33301 12.666 13 15.999 17l60 65.5l43 45.5c34.667 36.667 62.667 69.334 84 98.001l26 -55
c-9.33301 -7.33301 -19 -16.666 -29 -27.999l-42.5 -42l-51.5 -51l-46 -45l-33 -32l13.5 -13.5l27.5 -27.5l38 -37c31.333 -31.333 57.333 -56.166 78 -74.499s43.334 -36.166 68.001 -53.499z" />
    <glyph glyph-name="ellipsis" unicode="&#xbe;" horiz-adv-x="777" 
d="M466 84c1.33301 -25.333 -4.33301 -47.667 -17 -67s-31 -29 -55 -29s-42.167 9.83301 -54.5 29.5s-17.833 42.5 -16.5 68.5c19.333 10 43 16 71 18c26.667 0 50.667 -6.66699 72 -20zM716.001 83.999c1.33301 -25.333 -4.33301 -47.667 -17 -67s-31 -29 -55 -29
s-42.167 9.83301 -54.5 29.5s-17.833 42.5 -16.5 68.5c19.333 10 43 16 71 18c26.667 0 50.667 -6.66699 72 -20zM216.002 83.998c1.33301 -25.333 -4.33301 -47.667 -17 -67s-31 -29 -55 -29s-42.167 9.83301 -54.5 29.5s-17.833 42.5 -16.5 68.5c19.333 10 43 16 71 18
c26.667 0 50.667 -6.66699 72 -20z" />
    <glyph glyph-name="ellipsis" unicode="&#x2026;" horiz-adv-x="777" 
d="M466 84c1.33301 -25.333 -4.33301 -47.667 -17 -67s-31 -29 -55 -29s-42.167 9.83301 -54.5 29.5s-17.833 42.5 -16.5 68.5c19.333 10 43 16 71 18c26.667 0 50.667 -6.66699 72 -20zM716.001 83.999c1.33301 -25.333 -4.33301 -47.667 -17 -67s-31 -29 -55 -29
s-42.167 9.83301 -54.5 29.5s-17.833 42.5 -16.5 68.5c19.333 10 43 16 71 18c26.667 0 50.667 -6.66699 72 -20zM216.002 83.998c1.33301 -25.333 -4.33301 -47.667 -17 -67s-31 -29 -55 -29s-42.167 9.83301 -54.5 29.5s-17.833 42.5 -16.5 68.5c19.333 10 43 16 71 18
c26.667 0 50.667 -6.66699 72 -20z" />
    <glyph glyph-name="ellipsis" unicode="&#x455;" horiz-adv-x="777" 
d="M466 84c1.33301 -25.333 -4.33301 -47.667 -17 -67s-31 -29 -55 -29s-42.167 9.83301 -54.5 29.5s-17.833 42.5 -16.5 68.5c19.333 10 43 16 71 18c26.667 0 50.667 -6.66699 72 -20zM716.001 83.999c1.33301 -25.333 -4.33301 -47.667 -17 -67s-31 -29 -55 -29
s-42.167 9.83301 -54.5 29.5s-17.833 42.5 -16.5 68.5c19.333 10 43 16 71 18c26.667 0 50.667 -6.66699 72 -20zM216.002 83.998c1.33301 -25.333 -4.33301 -47.667 -17 -67s-31 -29 -55 -29s-42.167 9.83301 -54.5 29.5s-17.833 42.5 -16.5 68.5c19.333 10 43 16 71 18
c26.667 0 50.667 -6.66699 72 -20z" />
    <glyph glyph-name="ordfeminine" unicode="&#xbf;" horiz-adv-x="300" 
d="M38 0v16.001l36 8c12.667 3.33301 21.667 6.83301 27 10.5s8.66602 8.83398 9.99902 15.501s2 17.334 2 32.001l-4 194l-1 30c0.666992 49.333 -2.66602 80.166 -9.99902 92.499s-23 17.833 -47 16.5h-18v28c59.333 3.33301 116.333 14.666 171 33.999l-14 -395
c0 -14.667 0.833008 -25.334 2.5 -32.001s5.5 -12 11.5 -16s14.667 -7.33301 26 -10l35 -8v-16h-227zM-15 643.001c3.33301 12.667 11.334 20.667 24.001 24c10 1.33301 23.667 2 41 2c16.667 0 29.667 -0.666992 39 -2c15.333 -5.33301 23 -16.333 23 -33
c1.33301 -16.667 -4.33398 -33.5 -17.001 -50.5s-28 -25.5 -46 -25.5c-18.667 0 -34.5 9.66699 -47.5 29s-18.5 38 -16.5 56zM187.001 643.001c2.66699 12 10.667 20 24 24c9.33301 1.33301 22.333 2 39 2c17.333 0 31 -0.666992 41 -2c15.333 -6 23 -17 23 -33
c0 -16.667 -6.5 -33.5 -19.5 -50.5s-27.833 -25.5 -44.5 -25.5c-18 0 -33.5 9.66699 -46.5 29s-18.5 38 -16.5 56z" />
    <glyph glyph-name="ordfeminine" unicode="&#x457;" horiz-adv-x="300" 
d="M38 0v16.001l36 8c12.667 3.33301 21.667 6.83301 27 10.5s8.66602 8.83398 9.99902 15.501s2 17.334 2 32.001l-4 194l-1 30c0.666992 49.333 -2.66602 80.166 -9.99902 92.499s-23 17.833 -47 16.5h-18v28c59.333 3.33301 116.333 14.666 171 33.999l-14 -395
c0 -14.667 0.833008 -25.334 2.5 -32.001s5.5 -12 11.5 -16s14.667 -7.33301 26 -10l35 -8v-16h-227zM-15 643.001c3.33301 12.667 11.334 20.667 24.001 24c10 1.33301 23.667 2 41 2c16.667 0 29.667 -0.666992 39 -2c15.333 -5.33301 23 -16.333 23 -33
c1.33301 -16.667 -4.33398 -33.5 -17.001 -50.5s-28 -25.5 -46 -25.5c-18.667 0 -34.5 9.66699 -47.5 29s-18.5 38 -16.5 56zM187.001 643.001c2.66699 12 10.667 20 24 24c9.33301 1.33301 22.333 2 39 2c17.333 0 31 -0.666992 41 -2c15.333 -6 23 -17 23 -33
c0 -16.667 -6.5 -33.5 -19.5 -50.5s-27.833 -25.5 -44.5 -25.5c-18 0 -33.5 9.66699 -46.5 29s-18.5 38 -16.5 56z" />
    <glyph glyph-name="Adieresis" unicode="&#xc0;" horiz-adv-x="777" 
d="M476 744c2.66699 -4.66699 4.66895 -12.6699 6.00195 -24.0029c0.666992 -2 1.66699 -5.33301 3 -10s2 -8.66699 2 -12l3 -15l3.5 -10.5c1 -3 1.83301 -6.16699 2.5 -9.5l120 -456c0.666992 -5.33301 4.33398 -17 11.001 -35c6.66699 -24 10.667 -37.333 12 -40
c12 -37.333 21.667 -61.666 29 -72.999s17.333 -19 30 -23l36 -12v-24h-253l-1 24l37 9c34 7.33301 51 17.333 51 30c-1.33301 8.66699 -4 20 -8 34l-63 203c-8 1.33301 -21.333 2.5 -40 3.5s-42.667 1.5 -72 1.5h-36c-8.66699 0 -15.5 -0.166992 -20.5 -0.5
s-10.5 -0.5 -16.5 -0.5c-27.333 0 -47 -0.333008 -59 -1c-8 -2 -15.667 -3 -23 -3l-37 -113l-32.5 -91.5c-5 -14.333 -7.5 -25.166 -7.5 -32.499c0 -5.33301 2 -9.83301 6 -13.5s9.33301 -6.5 16 -8.5s13 -3.66699 19 -5l41 -12l3 -24h-238v24c26 4 47.833 17.833 65.5 41.5
s40.167 65.834 67.5 126.501l15.5 38l15.5 38l15 37c13.333 30 24.666 58.333 33.999 85c37.333 100.667 60.666 182 69.999 244v18c-2.66699 16 -17.334 24.667 -44.001 26h-23l-24 -3c-6.66699 0 -11.334 -0.333008 -14.001 -1c-9.33301 17.333 -7.33301 32 6 44
c6.66699 -0.666992 16.667 -1 30 -1h52c30 1.33301 52.667 3.33301 68 6c24.667 2 47.334 5 68.001 9c12 2 28.667 4.33301 50 7c9.33301 1.33301 17.333 3 24 5zM249.002 349.997c32 -6 66.332 -9 102.999 -9c44 0 87 3 129 9l-104 313
c-0.666992 2.66699 -1.66699 6.16699 -3 10.5s-2.33301 7.16602 -3 8.49902l-22 -2c0 0.666992 -1 -3 -3 -11c-3.33301 -6 -5.33301 -12.333 -6 -19c-2 -6.66699 -3.66699 -12.667 -5 -18s-3.33301 -12.333 -6 -21l-17 -58c-4 -14.667 -7.16699 -26.667 -9.5 -36
s-5.16602 -19.666 -8.49902 -30.999c-16.667 -56 -31.667 -101.333 -45 -136z" />
    <glyph glyph-name="Adieresis" unicode="&#x410;" horiz-adv-x="777" 
d="M476 744c2.66699 -4.66699 4.66895 -12.6699 6.00195 -24.0029c0.666992 -2 1.66699 -5.33301 3 -10s2 -8.66699 2 -12l3 -15l3.5 -10.5c1 -3 1.83301 -6.16699 2.5 -9.5l120 -456c0.666992 -5.33301 4.33398 -17 11.001 -35c6.66699 -24 10.667 -37.333 12 -40
c12 -37.333 21.667 -61.666 29 -72.999s17.333 -19 30 -23l36 -12v-24h-253l-1 24l37 9c34 7.33301 51 17.333 51 30c-1.33301 8.66699 -4 20 -8 34l-63 203c-8 1.33301 -21.333 2.5 -40 3.5s-42.667 1.5 -72 1.5h-36c-8.66699 0 -15.5 -0.166992 -20.5 -0.5
s-10.5 -0.5 -16.5 -0.5c-27.333 0 -47 -0.333008 -59 -1c-8 -2 -15.667 -3 -23 -3l-37 -113l-32.5 -91.5c-5 -14.333 -7.5 -25.166 -7.5 -32.499c0 -5.33301 2 -9.83301 6 -13.5s9.33301 -6.5 16 -8.5s13 -3.66699 19 -5l41 -12l3 -24h-238v24c26 4 47.833 17.833 65.5 41.5
s40.167 65.834 67.5 126.501l15.5 38l15.5 38l15 37c13.333 30 24.666 58.333 33.999 85c37.333 100.667 60.666 182 69.999 244v18c-2.66699 16 -17.334 24.667 -44.001 26h-23l-24 -3c-6.66699 0 -11.334 -0.333008 -14.001 -1c-9.33301 17.333 -7.33301 32 6 44
c6.66699 -0.666992 16.667 -1 30 -1h52c30 1.33301 52.667 3.33301 68 6c24.667 2 47.334 5 68.001 9c12 2 28.667 4.33301 50 7c9.33301 1.33301 17.333 3 24 5zM249.002 349.997c32 -6 66.332 -9 102.999 -9c44 0 87 3 129 9l-104 313
c-0.666992 2.66699 -1.66699 6.16699 -3 10.5s-2.33301 7.16602 -3 8.49902l-22 -2c0 0.666992 -1 -3 -3 -11c-3.33301 -6 -5.33301 -12.333 -6 -19c-2 -6.66699 -3.66699 -12.667 -5 -18s-3.33301 -12.333 -6 -21l-17 -58c-4 -14.667 -7.16699 -26.667 -9.5 -36
s-5.16602 -19.666 -8.49902 -30.999c-16.667 -56 -31.667 -101.333 -45 -136z" />
    <glyph glyph-name="Aring" unicode="&#xc1;" horiz-adv-x="773" 
d="M603 725l3.00195 -161.002l-37 -10c-18.667 56 -37.334 91.5 -56.001 106.5s-47.667 22.5 -87 22.5h-157l-19 -626c33.333 -10.667 67.333 -16 102 -16c78.667 0 132.667 18.333 162 55s44 84.667 44 144c1.33301 42.667 -7 77.5 -25 104.5s-55 40.5 -111 40.5
c-40 0 -81 -7 -123 -21c-8.66699 10.667 -11.334 25 -8.00098 43c49.333 12.667 99.333 19 150 19c164 0 245.333 -56 244 -168c0 -41.333 -11.5 -81.666 -34.5 -120.999s-59.5 -72 -109.5 -98s-111.667 -39 -185 -39h-298v24l49 12c30 8 47.5 17 52.5 27s6.83301 37 5.5 81
l-11 439v31v23c0 19.333 -3.33301 32.333 -10 39s-23.667 12.334 -51 17.001l-41 7v25h551z" />
    <glyph glyph-name="Aring" unicode="&#x411;" horiz-adv-x="773" 
d="M603 725l3.00195 -161.002l-37 -10c-18.667 56 -37.334 91.5 -56.001 106.5s-47.667 22.5 -87 22.5h-157l-19 -626c33.333 -10.667 67.333 -16 102 -16c78.667 0 132.667 18.333 162 55s44 84.667 44 144c1.33301 42.667 -7 77.5 -25 104.5s-55 40.5 -111 40.5
c-40 0 -81 -7 -123 -21c-8.66699 10.667 -11.334 25 -8.00098 43c49.333 12.667 99.333 19 150 19c164 0 245.333 -56 244 -168c0 -41.333 -11.5 -81.666 -34.5 -120.999s-59.5 -72 -109.5 -98s-111.667 -39 -185 -39h-298v24l49 12c30 8 47.5 17 52.5 27s6.83301 37 5.5 81
l-11 439v31v23c0 19.333 -3.33301 32.333 -10 39s-23.667 12.334 -51 17.001l-41 7v25h551z" />
    <glyph glyph-name="Ccedilla" unicode="&#xc2;" horiz-adv-x="780" 
d="M415 725c164.667 0 247.333 -44.334 248 -133.001c0.666992 -45.333 -16.333 -86.5 -51 -123.5s-76 -59.5 -124 -67.5v-11c65.333 -6 116.5 -19.667 153.5 -41s54.5 -58.333 52.5 -111c0 -28 -5.83301 -55.667 -17.5 -83s-30.667 -53 -57 -77s-62 -43 -107 -57
s-98.5 -21 -160.5 -21h-294v24l49 12c31.333 7.33301 49.5 16.333 54.5 27s6.83301 37.334 5.5 80.001l-12 440v31v23c0 18.667 -3.66699 31.5 -11 38.5s-24.333 12.833 -51 17.5l-41 7v25h363zM253.999 62.999c24 -12.667 59 -19.9961 105 -21.9961c46 0 83 6 111 18
s49.167 27.833 63.5 47.5s24 41.667 29 66s6.5 48.166 4.5 71.499c-6.66699 80 -61 120.333 -163 121c-16 0 -32.667 -1 -50 -3c-17.333 -1.33301 -29 -2 -35 -2c-3.33301 5.33301 -5 13.666 -5 24.999c1.33301 11.333 5 19.666 11 24.999
c52 -10.667 100.5 -3.83398 145.5 20.499s70.5 63.5 76.5 117.5c6 52 -4.5 87.5 -31.5 106.5s-72.167 28.5 -135.5 28.5c-40 0 -77.333 -3 -112 -9z" />
    <glyph glyph-name="Ccedilla" unicode="&#x412;" horiz-adv-x="780" 
d="M415 725c164.667 0 247.333 -44.334 248 -133.001c0.666992 -45.333 -16.333 -86.5 -51 -123.5s-76 -59.5 -124 -67.5v-11c65.333 -6 116.5 -19.667 153.5 -41s54.5 -58.333 52.5 -111c0 -28 -5.83301 -55.667 -17.5 -83s-30.667 -53 -57 -77s-62 -43 -107 -57
s-98.5 -21 -160.5 -21h-294v24l49 12c31.333 7.33301 49.5 16.333 54.5 27s6.83301 37.334 5.5 80.001l-12 440v31v23c0 18.667 -3.66699 31.5 -11 38.5s-24.333 12.833 -51 17.5l-41 7v25h363zM253.999 62.999c24 -12.667 59 -19.9961 105 -21.9961c46 0 83 6 111 18
s49.167 27.833 63.5 47.5s24 41.667 29 66s6.5 48.166 4.5 71.499c-6.66699 80 -61 120.333 -163 121c-16 0 -32.667 -1 -50 -3c-17.333 -1.33301 -29 -2 -35 -2c-3.33301 5.33301 -5 13.666 -5 24.999c1.33301 11.333 5 19.666 11 24.999
c52 -10.667 100.5 -3.83398 145.5 20.499s70.5 63.5 76.5 117.5c6 52 -4.5 87.5 -31.5 106.5s-72.167 28.5 -135.5 28.5c-40 0 -77.333 -3 -112 -9z" />
    <glyph glyph-name="Eacute" unicode="&#xc3;" horiz-adv-x="679" 
d="M220 0l-162.002 -0.00195312v24l53 12c31.333 8 49.833 16.667 55.5 26s7.83398 36.333 6.50098 81l-11 440v31c-1.33301 4.66699 -2 12.334 -2 23.001c0 19.333 -3.33301 32.333 -10 39s-24.667 12.334 -54 17.001l-44 7v25h556l6 -182l-42 -8
c-19.333 58 -38.166 97.167 -56.499 117.5s-52.833 30.5 -103.5 30.5h-132l-14 -539v-24v-22v-20c0 -11.333 4.66699 -20 14 -26c5.33301 -4 17.333 -7.66699 36 -11c10 -2 22.667 -4.33301 38 -7l68 -8v-26h-202z" />
    <glyph glyph-name="Eacute" unicode="&#x413;" horiz-adv-x="679" 
d="M220 0l-162.002 -0.00195312v24l53 12c31.333 8 49.833 16.667 55.5 26s7.83398 36.333 6.50098 81l-11 440v31c-1.33301 4.66699 -2 12.334 -2 23.001c0 19.333 -3.33301 32.333 -10 39s-24.667 12.334 -54 17.001l-44 7v25h556l6 -182l-42 -8
c-19.333 58 -38.166 97.167 -56.499 117.5s-52.833 30.5 -103.5 30.5h-132l-14 -539v-24v-22v-20c0 -11.333 4.66699 -20 14 -26c5.33301 -4 17.333 -7.66699 36 -11c10 -2 22.667 -4.33301 38 -7l68 -8v-26h-202z" />
    <glyph glyph-name="Ntilde" unicode="&#xc4;" horiz-adv-x="836" 
d="M685 52l92.001 0.000976562l1 -220l-40 -17c-11.333 55.333 -23.5 96.666 -36.5 123.999s-26.667 44.333 -41 51s-32.166 10 -53.499 10h-403h-24c-21.333 -13.333 -40.333 -32.833 -57 -58.5s-32.334 -64.167 -47.001 -115.5l-40 -11l-3 237h35
c18.667 0 30.5 0.5 35.5 1.5s10.167 6.33301 15.5 16s15 31.167 29 64.5l23 57l19 48c4 9.33301 17 42.666 39 99.999c48 133.333 75 226.333 81 279c3.33301 26 -0.833984 43.167 -12.501 51.5s-39.167 11.5 -82.5 9.5h-16c4 20.667 7.33301 34.334 10 41.001
c96 -4 205.667 4 329 24zM592.001 41.001l-170 636.999l-30 -3c-3.33301 -14.667 -7 -26 -11 -34c-6.66699 -24.667 -11 -39 -13 -43c-8 -22.667 -13.667 -40 -17 -52c-4.66699 -21.333 -11.667 -43 -21 -65c-8.66699 -31.333 -17.334 -58.333 -26.001 -81l-14.5 -49.5
c-4.33301 -14.333 -8.16602 -26.166 -11.499 -35.499c-8 -24 -13.5 -40.833 -16.5 -50.5s-9.16699 -28.167 -18.5 -55.5c-20 -59.333 -33 -101.333 -39 -126c-2.66699 -6.66699 -6 -20.667 -10 -42h398z" />
    <glyph glyph-name="Ntilde" unicode="&#x414;" horiz-adv-x="836" 
d="M685 52l92.001 0.000976562l1 -220l-40 -17c-11.333 55.333 -23.5 96.666 -36.5 123.999s-26.667 44.333 -41 51s-32.166 10 -53.499 10h-403h-24c-21.333 -13.333 -40.333 -32.833 -57 -58.5s-32.334 -64.167 -47.001 -115.5l-40 -11l-3 237h35
c18.667 0 30.5 0.5 35.5 1.5s10.167 6.33301 15.5 16s15 31.167 29 64.5l23 57l19 48c4 9.33301 17 42.666 39 99.999c48 133.333 75 226.333 81 279c3.33301 26 -0.833984 43.167 -12.501 51.5s-39.167 11.5 -82.5 9.5h-16c4 20.667 7.33301 34.334 10 41.001
c96 -4 205.667 4 329 24zM592.001 41.001l-170 636.999l-30 -3c-3.33301 -14.667 -7 -26 -11 -34c-6.66699 -24.667 -11 -39 -13 -43c-8 -22.667 -13.667 -40 -17 -52c-4.66699 -21.333 -11.667 -43 -21 -65c-8.66699 -31.333 -17.334 -58.333 -26.001 -81l-14.5 -49.5
c-4.33301 -14.333 -8.16602 -26.166 -11.499 -35.499c-8 -24 -13.5 -40.833 -16.5 -50.5s-9.16699 -28.167 -18.5 -55.5c-20 -59.333 -33 -101.333 -39 -126c-2.66699 -6.66699 -6 -20.667 -10 -42h398z" />
    <glyph glyph-name="Odieresis" unicode="&#xc5;" horiz-adv-x="753" 
d="M641 725l0.000976562 -168l-39 -9c-12 52.667 -29.167 88.334 -51.5 107.001s-56.5 28 -102.5 28h-177l-10 -269c56 -4 96 -5.5 120 -4.5s43.5 8.16699 58.5 21.5s24.5 37 28.5 71h30v-233h-37c-4.66699 33.333 -14.334 57.666 -29.001 72.999s-35.5 24.333 -62.5 27
s-63.167 2.33398 -108.5 -0.999023l-8 -315c64 -8 124 -12 180 -12c38 0 74.167 8.66699 108.5 26s64.5 55.666 90.5 114.999l37 7l-22 -189h-589v24l49 12c30.667 6.66699 48.667 15 54 25s7.33301 37.333 6 82l-10 440c0 7.33301 -0.166992 13.166 -0.5 17.499
s-0.833008 8.83301 -1.5 13.5v23c0 19.333 -3.33301 32.333 -10 39s-24 12.334 -52 17.001l-41 7v25h589z" />
    <glyph glyph-name="Odieresis" unicode="&#x415;" horiz-adv-x="753" 
d="M641 725l0.000976562 -168l-39 -9c-12 52.667 -29.167 88.334 -51.5 107.001s-56.5 28 -102.5 28h-177l-10 -269c56 -4 96 -5.5 120 -4.5s43.5 8.16699 58.5 21.5s24.5 37 28.5 71h30v-233h-37c-4.66699 33.333 -14.334 57.666 -29.001 72.999s-35.5 24.333 -62.5 27
s-63.167 2.33398 -108.5 -0.999023l-8 -315c64 -8 124 -12 180 -12c38 0 74.167 8.66699 108.5 26s64.5 55.666 90.5 114.999l37 7l-22 -189h-589v24l49 12c30.667 6.66699 48.667 15 54 25s7.33301 37.333 6 82l-10 440c0 7.33301 -0.166992 13.166 -0.5 17.499
s-0.833008 8.83301 -1.5 13.5v23c0 19.333 -3.33301 32.333 -10 39s-24 12.334 -52 17.001l-41 7v25h589z" />
    <glyph glyph-name="Udieresis" unicode="&#xc6;" horiz-adv-x="1195" 
d="M43 725h256.998v-25l-26 -3c-2 -0.666992 -4 -1.5 -6 -2.5l-5 -2.5c-2 0 -5 -1 -9 -3c-2 -2 -3 -4 -3 -6c-0.666992 -6 17.333 -30 54 -72l167 -190c17.333 -18.667 26 -32 26 -40c0 -5.33301 -4 -12.666 -12 -21.999c-4 -6.66699 -7.83301 -12.667 -11.5 -18l-7.5 -11
l-24 -30l-29 -36l-33.5 -41.5l-21.5 -27.5l-27.5 -32.5c-9.66699 -11.667 -17.5 -20.834 -23.5 -27.501c-55.333 -62 -95.833 -102.833 -121.5 -122.5s-42.834 -29.5 -51.501 -29.5c-9.33301 0 -24.833 6.5 -46.5 19.5s-42.167 26.5 -61.5 40.5l19 26
c2.66699 -1.33301 5.33398 -2.83301 8.00098 -4.5s4.33398 -3.5 5.00098 -5.5c1.33301 -0.666992 6 -4 14 -10c8.66699 -5.33301 15.334 -8 20.001 -8c12 -0.666992 24.667 6.33301 38 21s33 38.334 59 71.001l35.5 46.5l23.5 30.5c12.667 18.667 33.667 47 63 85l18 25.5
l17.5 25.5c5.66699 8.66699 11.5 17 17.5 25l25 37c1.33301 2 2.33301 3.66699 3 5l4 8v12c-1.33301 2 -3.66602 4.66699 -6.99902 8c-1.33301 2 -3.33301 4.5 -6 7.5s-5.33398 5.5 -8.00098 7.5l-30.5 29.5l-26.5 24.5c-29.333 29.333 -55.333 53.666 -78 72.999
c-37.333 34.667 -70.833 61.167 -100.5 79.5s-62.167 30.833 -97.5 37.5v25zM1152 725l-0.00292969 -25.0029c-36 -7.33301 -67.167 -19.166 -93.5 -35.499s-61.5 -43.5 -105.5 -81.5c-12 -10.667 -38 -35 -78 -73l-55 -54c-2.66699 -2 -4.66699 -3.66699 -6 -5l-10 -10
c-0.666992 -1.33301 -1.5 -2.66602 -2.5 -3.99902s-1.83301 -2.66602 -2.5 -3.99902v-12c0.666992 -3.33301 3 -7.66602 7 -12.999l12.5 -19.5l10.5 -17.5c6.66699 -8 15.334 -19.5 26.001 -34.5l29 -41.5c16.667 -21.333 37.334 -49.666 62.001 -84.999l32 -42l27 -35
c26 -32.667 46 -56.334 60 -71.001s26.667 -21.667 38 -21c2 0 8.33301 2.66699 19 8c2.66699 2 5 3.66699 7 5s4.66699 3 8 5c2.66699 2.66699 4.83398 4.5 6.50098 5.5s3.5 2.5 5.5 4.5l18 -26c-12 -10.667 -30.5 -23.334 -55.5 -38.001s-42.833 -22 -53.5 -22
c-8 0 -24.167 9.33301 -48.5 28s-64.833 60 -121.5 124l-50 60l-58 69l-27 36l-24 30c-4 6.66699 -7.5 12 -10.5 16s-6.5 8.33301 -10.5 13c-7.33301 10.667 -11 18 -11 22c0 8 8.66699 21.333 26 40l166 190c38 42 56.667 66 56 72c0 3.33301 -1 5.33301 -3 6
c-4 2 -6.66699 3 -8 3c-6 1.33301 -10.333 3 -13 5l-25 3v25h256zM439.995 724.997l313.999 -0.00585938v-26l-40 -7c-26.667 -4.66699 -43.167 -10.167 -49.5 -16.5s-10.166 -20.166 -11.499 -41.499v-20c0 -6.66699 -0.166992 -12.167 -0.5 -16.5
s-0.5 -9.16602 -0.5 -14.499l-10 -443c-1.33301 -43.333 0.5 -69.666 5.5 -78.999s22.5 -17.666 52.5 -24.999l50 -10v-26h-304v26l49 10c30 6.66699 47.667 14.834 53 24.501s7.33301 36.167 6 79.5l-11 444v32c0 8.66699 -0.333008 15.667 -1 21
c0 19.333 -3.5 32.333 -10.5 39s-23.833 12.334 -50.5 17.001l-41 7v25z" />
    <glyph glyph-name="Udieresis" unicode="&#x416;" horiz-adv-x="1195" 
d="M43 725h256.998v-25l-26 -3c-2 -0.666992 -4 -1.5 -6 -2.5l-5 -2.5c-2 0 -5 -1 -9 -3c-2 -2 -3 -4 -3 -6c-0.666992 -6 17.333 -30 54 -72l167 -190c17.333 -18.667 26 -32 26 -40c0 -5.33301 -4 -12.666 -12 -21.999c-4 -6.66699 -7.83301 -12.667 -11.5 -18l-7.5 -11
l-24 -30l-29 -36l-33.5 -41.5l-21.5 -27.5l-27.5 -32.5c-9.66699 -11.667 -17.5 -20.834 -23.5 -27.501c-55.333 -62 -95.833 -102.833 -121.5 -122.5s-42.834 -29.5 -51.501 -29.5c-9.33301 0 -24.833 6.5 -46.5 19.5s-42.167 26.5 -61.5 40.5l19 26
c2.66699 -1.33301 5.33398 -2.83301 8.00098 -4.5s4.33398 -3.5 5.00098 -5.5c1.33301 -0.666992 6 -4 14 -10c8.66699 -5.33301 15.334 -8 20.001 -8c12 -0.666992 24.667 6.33301 38 21s33 38.334 59 71.001l35.5 46.5l23.5 30.5c12.667 18.667 33.667 47 63 85l18 25.5
l17.5 25.5c5.66699 8.66699 11.5 17 17.5 25l25 37c1.33301 2 2.33301 3.66699 3 5l4 8v12c-1.33301 2 -3.66602 4.66699 -6.99902 8c-1.33301 2 -3.33301 4.5 -6 7.5s-5.33398 5.5 -8.00098 7.5l-30.5 29.5l-26.5 24.5c-29.333 29.333 -55.333 53.666 -78 72.999
c-37.333 34.667 -70.833 61.167 -100.5 79.5s-62.167 30.833 -97.5 37.5v25zM1152 725l-0.00292969 -25.0029c-36 -7.33301 -67.167 -19.166 -93.5 -35.499s-61.5 -43.5 -105.5 -81.5c-12 -10.667 -38 -35 -78 -73l-55 -54c-2.66699 -2 -4.66699 -3.66699 -6 -5l-10 -10
c-0.666992 -1.33301 -1.5 -2.66602 -2.5 -3.99902s-1.83301 -2.66602 -2.5 -3.99902v-12c0.666992 -3.33301 3 -7.66602 7 -12.999l12.5 -19.5l10.5 -17.5c6.66699 -8 15.334 -19.5 26.001 -34.5l29 -41.5c16.667 -21.333 37.334 -49.666 62.001 -84.999l32 -42l27 -35
c26 -32.667 46 -56.334 60 -71.001s26.667 -21.667 38 -21c2 0 8.33301 2.66699 19 8c2.66699 2 5 3.66699 7 5s4.66699 3 8 5c2.66699 2.66699 4.83398 4.5 6.50098 5.5s3.5 2.5 5.5 4.5l18 -26c-12 -10.667 -30.5 -23.334 -55.5 -38.001s-42.833 -22 -53.5 -22
c-8 0 -24.167 9.33301 -48.5 28s-64.833 60 -121.5 124l-50 60l-58 69l-27 36l-24 30c-4 6.66699 -7.5 12 -10.5 16s-6.5 8.33301 -10.5 13c-7.33301 10.667 -11 18 -11 22c0 8 8.66699 21.333 26 40l166 190c38 42 56.667 66 56 72c0 3.33301 -1 5.33301 -3 6
c-4 2 -6.66699 3 -8 3c-6 1.33301 -10.333 3 -13 5l-25 3v25h256zM439.995 724.997l313.999 -0.00585938v-26l-40 -7c-26.667 -4.66699 -43.167 -10.167 -49.5 -16.5s-10.166 -20.166 -11.499 -41.499v-20c0 -6.66699 -0.166992 -12.167 -0.5 -16.5
s-0.5 -9.16602 -0.5 -14.499l-10 -443c-1.33301 -43.333 0.5 -69.666 5.5 -78.999s22.5 -17.666 52.5 -24.999l50 -10v-26h-304v26l49 10c30 6.66699 47.667 14.834 53 24.501s7.33301 36.167 6 79.5l-11 444v32c0 8.66699 -0.333008 15.667 -1 21
c0 19.333 -3.5 32.333 -10.5 39s-23.833 12.334 -50.5 17.001l-41 7v25z" />
    <glyph glyph-name="aacute" unicode="&#xc7;" horiz-adv-x="728" 
d="M134 744c25.333 -10 45.334 -15.335 60.001 -16.002c12.667 -0.666992 24.667 -0.666992 36 0c13.333 0.666992 29.333 3 48 7c32 6 67.667 9 107 9c70.667 0 127 -9.33301 169 -28s64.333 -53.667 67 -105c2 -44.667 -13.833 -86.834 -47.5 -126.501
s-70.834 -66.5 -111.501 -80.5v-8c69.333 -7.33301 117 -24.5 143 -51.5s38.333 -61.5 37 -103.5c-0.666992 -48.667 -15 -92.834 -43 -132.501s-65.833 -70.667 -113.5 -93s-99.167 -33.166 -154.5 -32.499c-77.333 0 -148.666 10 -213.999 30l-12 170l39 -8
c13.333 -44.667 37.833 -81.167 73.5 -109.5s74.834 -42.5 117.501 -42.5c31.333 0 60.333 7.5 87 22.5s48 37.167 64 66.5s24 65 24 107c-1.33301 101.333 -56 152 -164 152c-40.667 0.666992 -68.334 -1 -83.001 -5c-5.33301 11.333 -7 21 -5 29c0 8 2.66699 16.667 8 26
c32 -6.66699 56.333 -9.66699 73 -9c54.667 0.666992 93.667 15.834 117 45.501s35.666 62.834 36.999 99.501c6 94.667 -39.667 143.334 -137 146.001c-44.667 0 -83 -10.333 -115 -31s-58 -58 -78 -112l-40 -6z" />
    <glyph glyph-name="aacute" unicode="&#x417;" horiz-adv-x="728" 
d="M134 744c25.333 -10 45.334 -15.335 60.001 -16.002c12.667 -0.666992 24.667 -0.666992 36 0c13.333 0.666992 29.333 3 48 7c32 6 67.667 9 107 9c70.667 0 127 -9.33301 169 -28s64.333 -53.667 67 -105c2 -44.667 -13.833 -86.834 -47.5 -126.501
s-70.834 -66.5 -111.501 -80.5v-8c69.333 -7.33301 117 -24.5 143 -51.5s38.333 -61.5 37 -103.5c-0.666992 -48.667 -15 -92.834 -43 -132.501s-65.833 -70.667 -113.5 -93s-99.167 -33.166 -154.5 -32.499c-77.333 0 -148.666 10 -213.999 30l-12 170l39 -8
c13.333 -44.667 37.833 -81.167 73.5 -109.5s74.834 -42.5 117.501 -42.5c31.333 0 60.333 7.5 87 22.5s48 37.167 64 66.5s24 65 24 107c-1.33301 101.333 -56 152 -164 152c-40.667 0.666992 -68.334 -1 -83.001 -5c-5.33301 11.333 -7 21 -5 29c0 8 2.66699 16.667 8 26
c32 -6.66699 56.333 -9.66699 73 -9c54.667 0.666992 93.667 15.834 117 45.501s35.666 62.834 36.999 99.501c6 94.667 -39.667 143.334 -137 146.001c-44.667 0 -83 -10.333 -115 -31s-58 -58 -78 -112l-40 -6z" />
    <glyph glyph-name="agrave" unicode="&#xc8;" horiz-adv-x="940" 
d="M662 567l-246.501 -295.496l-208.5 -269.5l-149 -2v24l50 12c32.667 7.33301 51.5 16.666 56.5 27.999s6.5 37.666 4.5 78.999l-10 440c-0.666992 6.66699 -1 17 -1 31v23c0 19.333 -3.5 32.333 -10.5 39s-24.833 12.334 -53.5 17.001l-42 7v25h325v-25l-41 -7
c-28 -5.33301 -45.333 -11 -52 -17s-11 -19 -13 -39v-23c0 -14 -0.333008 -24.333 -1 -31l-11 -425h7l153.5 183l166.5 209.5l131 173.5l169 1v-25l-42 -7c-28 -4.66699 -45.167 -10.167 -51.5 -16.5s-10.5 -19.5 -12.5 -39.5c0 -10.667 -0.333008 -18.334 -1 -23.001v-31
l-11 -440c0 -37.333 0.333008 -59.833 1 -67.5s5.66699 -15 15 -22s24.333 -12.833 45 -17.5l52 -12v-24h-315v24l51 12c22 4.66699 37.333 10.667 46 18s13.334 14.666 14.001 21.999s1 29.666 1 66.999l-11 424h-5z" />
    <glyph glyph-name="agrave" unicode="&#x418;" horiz-adv-x="940" 
d="M662 567l-246.501 -295.496l-208.5 -269.5l-149 -2v24l50 12c32.667 7.33301 51.5 16.666 56.5 27.999s6.5 37.666 4.5 78.999l-10 440c-0.666992 6.66699 -1 17 -1 31v23c0 19.333 -3.5 32.333 -10.5 39s-24.833 12.334 -53.5 17.001l-42 7v25h325v-25l-41 -7
c-28 -5.33301 -45.333 -11 -52 -17s-11 -19 -13 -39v-23c0 -14 -0.333008 -24.333 -1 -31l-11 -425h7l153.5 183l166.5 209.5l131 173.5l169 1v-25l-42 -7c-28 -4.66699 -45.167 -10.167 -51.5 -16.5s-10.5 -19.5 -12.5 -39.5c0 -10.667 -0.333008 -18.334 -1 -23.001v-31
l-11 -440c0 -37.333 0.333008 -59.833 1 -67.5s5.66699 -15 15 -22s24.333 -12.833 45 -17.5l52 -12v-24h-315v24l51 12c22 4.66699 37.333 10.667 46 18s13.334 14.666 14.001 21.999s1 29.666 1 66.999l-11 424h-5z" />
    <glyph glyph-name="acircumflex" unicode="&#xc9;" horiz-adv-x="940" 
d="M690 978l-27.002 -34.002c-14.667 -20 -28.334 -37.333 -41.001 -52c-11.333 -14.667 -18 -23.5 -20 -26.5s-10.333 -13.5 -25 -31.5c-35.333 -40.667 -59 -61 -71 -61c-10.667 -0.666992 -32.334 8 -65.001 26s-63 38.333 -91 61l25 31
c4.66699 -4.66699 11.334 -9.66699 20.001 -15c2.66699 -1.33301 4.83398 -2.66602 6.50098 -3.99902s3.83398 -2.83301 6.50098 -4.5s5.33398 -3.16699 8.00098 -4.5c14 -6.66699 24.667 -10 32 -10c21.333 -0.666992 52 13.833 92 43.5s72.333 56.834 97 81.501h53z
M661.998 566.998l-155.001 -183.496l-166 -206.5l-136 -177h-147v24l50 12c32.667 7.33301 51.5 16.666 56.5 27.999s6.5 37.666 4.5 78.999l-10 440c-0.666992 6.66699 -1 17 -1 31v23c0 19.333 -3.5 32.333 -10.5 39s-24.833 12.334 -53.5 17.001l-42 7v25h325v-25l-41 -7
c-28 -5.33301 -45.333 -11 -52 -17s-11 -19 -13 -39v-23c0 -14 -0.333008 -24.333 -1 -31l-11 -425h7l167.5 200l150 188.5l134.5 178.5h168v-25l-42 -7c-28 -4.66699 -45.167 -10.167 -51.5 -16.5s-10.5 -19.5 -12.5 -39.5c0 -10.667 -0.333008 -18.334 -1 -23.001v-31
l-11 -440c0 -37.333 0.333008 -59.833 1 -67.5s5.66699 -15 15 -22s24.333 -12.833 45 -17.5l52 -12v-24h-315v24l51 12c22 4.66699 37.333 10.667 46 18s13.334 14.666 14.001 21.999s1 29.666 1 66.999l-11 424h-5z" />
    <glyph glyph-name="acircumflex" unicode="&#x419;" horiz-adv-x="940" 
d="M690 978l-27.002 -34.002c-14.667 -20 -28.334 -37.333 -41.001 -52c-11.333 -14.667 -18 -23.5 -20 -26.5s-10.333 -13.5 -25 -31.5c-35.333 -40.667 -59 -61 -71 -61c-10.667 -0.666992 -32.334 8 -65.001 26s-63 38.333 -91 61l25 31
c4.66699 -4.66699 11.334 -9.66699 20.001 -15c2.66699 -1.33301 4.83398 -2.66602 6.50098 -3.99902s3.83398 -2.83301 6.50098 -4.5s5.33398 -3.16699 8.00098 -4.5c14 -6.66699 24.667 -10 32 -10c21.333 -0.666992 52 13.833 92 43.5s72.333 56.834 97 81.501h53z
M661.998 566.998l-155.001 -183.496l-166 -206.5l-136 -177h-147v24l50 12c32.667 7.33301 51.5 16.666 56.5 27.999s6.5 37.666 4.5 78.999l-10 440c-0.666992 6.66699 -1 17 -1 31v23c0 19.333 -3.5 32.333 -10.5 39s-24.833 12.334 -53.5 17.001l-42 7v25h325v-25l-41 -7
c-28 -5.33301 -45.333 -11 -52 -17s-11 -19 -13 -39v-23c0 -14 -0.333008 -24.333 -1 -31l-11 -425h7l167.5 200l150 188.5l134.5 178.5h168v-25l-42 -7c-28 -4.66699 -45.167 -10.167 -51.5 -16.5s-10.5 -19.5 -12.5 -39.5c0 -10.667 -0.333008 -18.334 -1 -23.001v-31
l-11 -440c0 -37.333 0.333008 -59.833 1 -67.5s5.66699 -15 15 -22s24.333 -12.833 45 -17.5l52 -12v-24h-315v24l51 12c22 4.66699 37.333 10.667 46 18s13.334 14.666 14.001 21.999s1 29.666 1 66.999l-11 424h-5z" />
    <glyph glyph-name="adieresis" unicode="&#xca;" horiz-adv-x="808" 
d="M764 725v-25.001c-36.667 -7.33301 -68.5 -19.5 -95.5 -36.5s-61.167 -43.833 -102.5 -80.5c-22.667 -18.667 -49 -43 -79 -73l-30 -29c-10.667 -10.667 -19.334 -19 -26.001 -25l-7 -7l-8 -8c-1.33301 -1.33301 -3.33301 -4 -6 -8v-12
c1.33301 -2 2.66602 -4.16699 3.99902 -6.5s2 -4.5 2 -6.5c4 -6 8.16699 -11.833 12.5 -17.5s8.5 -12.167 12.5 -19.5c2.66699 -3.33301 10.167 -13.666 22.5 -30.999l31.5 -45c23.333 -30 44.333 -58.333 63 -85l32 -42l27 -35c26 -32.667 45.667 -56.334 59 -71.001
s26 -21.667 38 -21c2.66699 0 9.33398 2.66699 20.001 8c2.66699 2 5 3.83301 7 5.5s4.33301 3.16699 7 4.5c2 2 4.16699 3.83301 6.5 5.5l6.5 4.5l18 -26c-10.667 -9.33301 -28.667 -21.666 -54 -36.999s-43.333 -23 -54 -23c-24 0 -81 50.667 -171 152
c-22.667 25.333 -40 45.333 -52 60c-5.33301 8 -24 31 -56 69c-8 11.333 -15.5 21.5 -22.5 30.5l-28.5 35.5c-2.66699 5.33301 -6 10.333 -10 15s-7.66699 9.33398 -11 14.001c-8 10.667 -12 18 -12 22c0 7.33301 9 20.666 27 39.999l166 190c37.333 42.667 56 66.667 56 72
c-1.33301 2.66699 -2.66602 4.66699 -3.99902 6c-2 2 -5 3 -9 3l-5 2.5c-2 1 -4 1.83301 -6 2.5l-26 3v25h257zM52 724.999l313.999 0.00292969v-26l-40 -7c-27.333 -4.66699 -44.333 -10.334 -51 -17.001s-10 -20.334 -10 -41.001c0 -4 -0.166992 -7.5 -0.5 -10.5
s-0.5 -6.16699 -0.5 -9.5v-31l-11 -443c-1.33301 -43.333 0.666992 -69.833 6 -79.5s23 -17.834 53 -24.501l49 -10v-26h-303v26l49 10c20.667 4 35 8.83301 43 14.5s12.833 14 14.5 25s1.83398 32.5 0.500977 64.5l-10 444c0 13.333 -0.333008 24 -1 32v21
c0 18.667 -3.5 31.5 -10.5 38.5s-23.833 12.833 -50.5 17.5l-41 7v25z" />
    <glyph glyph-name="adieresis" unicode="&#x41a;" horiz-adv-x="808" 
d="M764 725v-25.001c-36.667 -7.33301 -68.5 -19.5 -95.5 -36.5s-61.167 -43.833 -102.5 -80.5c-22.667 -18.667 -49 -43 -79 -73l-30 -29c-10.667 -10.667 -19.334 -19 -26.001 -25l-7 -7l-8 -8c-1.33301 -1.33301 -3.33301 -4 -6 -8v-12
c1.33301 -2 2.66602 -4.16699 3.99902 -6.5s2 -4.5 2 -6.5c4 -6 8.16699 -11.833 12.5 -17.5s8.5 -12.167 12.5 -19.5c2.66699 -3.33301 10.167 -13.666 22.5 -30.999l31.5 -45c23.333 -30 44.333 -58.333 63 -85l32 -42l27 -35c26 -32.667 45.667 -56.334 59 -71.001
s26 -21.667 38 -21c2.66699 0 9.33398 2.66699 20.001 8c2.66699 2 5 3.83301 7 5.5s4.33301 3.16699 7 4.5c2 2 4.16699 3.83301 6.5 5.5l6.5 4.5l18 -26c-10.667 -9.33301 -28.667 -21.666 -54 -36.999s-43.333 -23 -54 -23c-24 0 -81 50.667 -171 152
c-22.667 25.333 -40 45.333 -52 60c-5.33301 8 -24 31 -56 69c-8 11.333 -15.5 21.5 -22.5 30.5l-28.5 35.5c-2.66699 5.33301 -6 10.333 -10 15s-7.66699 9.33398 -11 14.001c-8 10.667 -12 18 -12 22c0 7.33301 9 20.666 27 39.999l166 190c37.333 42.667 56 66.667 56 72
c-1.33301 2.66699 -2.66602 4.66699 -3.99902 6c-2 2 -5 3 -9 3l-5 2.5c-2 1 -4 1.83301 -6 2.5l-26 3v25h257zM52 724.999l313.999 0.00292969v-26l-40 -7c-27.333 -4.66699 -44.333 -10.334 -51 -17.001s-10 -20.334 -10 -41.001c0 -4 -0.166992 -7.5 -0.5 -10.5
s-0.5 -6.16699 -0.5 -9.5v-31l-11 -443c-1.33301 -43.333 0.666992 -69.833 6 -79.5s23 -17.834 53 -24.501l49 -10v-26h-303v26l49 10c20.667 4 35 8.83301 43 14.5s12.833 14 14.5 25s1.83398 32.5 0.500977 64.5l-10 444c0 13.333 -0.333008 24 -1 32v21
c0 18.667 -3.5 31.5 -10.5 38.5s-23.833 12.833 -50.5 17.5l-41 7v25z" />
    <glyph glyph-name="atilde" unicode="&#xcb;" horiz-adv-x="780" 
d="M513 744c1.33301 -5.33301 5.66602 -24.3311 12.999 -56.998c4 -18 9 -42.667 15 -74l17 -87l19.5 -86l16.5 -74c4 -14.667 8.5 -33.334 13.5 -56.001l13.5 -60c13.333 -50.667 21 -81.667 23 -93c7.33301 -27.333 14 -48.333 20 -63
c3.33301 -8 6.83301 -15.833 10.5 -23.5s9.5 -14.834 17.5 -21.501s16.667 -11.667 26 -15l26 -10l-1 -24h-266v24l48 12c6 0.666992 12.333 3 19 7c6.66699 1.33301 11.334 3.33301 14.001 6c4.66699 4.66699 7.66699 10.334 9 17.001
c0.666992 8.66699 -1.83301 26 -7.5 52s-11.834 52.333 -18.501 79l-136 478h-39c-2.66699 -8 -4.5 -14.667 -5.5 -20s-3.16699 -11 -6.5 -17l-6 -23c-2 -8 -4.33301 -15.333 -7 -22c-4.66699 -18 -13 -46.333 -25 -85l-30 -107l-16 -54c-5.33301 -18 -11 -36 -17 -54
l-14.5 -44.5l-15.5 -45.5c-8 -29.333 -16.333 -57.333 -25 -84c-1.33301 -5.33301 -2.83301 -11 -4.5 -17l-4.5 -16c-2.66699 -8.66699 -4.33398 -14.334 -5.00098 -17.001c-1.33301 -14 14 -25 46 -33l46 -12v-24h-245v24c27.333 10.667 62.666 60.167 105.999 148.5
s80.833 181 112.5 278s46.5 162.167 44.5 195.5c0 14.667 -8.33301 24.834 -25 30.501s-48.667 6.83398 -96 3.50098c-2.66699 7.33301 -4 14.666 -4 21.999c0.666992 6.66699 2.33398 13.667 5.00098 21c2.66699 0 6.83398 -0.333008 12.501 -1
s10.5 -1.33398 14.5 -2.00098h57h70c38.667 3.33301 100.334 11.333 185.001 24z" />
    <glyph glyph-name="atilde" unicode="&#x41b;" horiz-adv-x="780" 
d="M513 744c1.33301 -5.33301 5.66602 -24.3311 12.999 -56.998c4 -18 9 -42.667 15 -74l17 -87l19.5 -86l16.5 -74c4 -14.667 8.5 -33.334 13.5 -56.001l13.5 -60c13.333 -50.667 21 -81.667 23 -93c7.33301 -27.333 14 -48.333 20 -63
c3.33301 -8 6.83301 -15.833 10.5 -23.5s9.5 -14.834 17.5 -21.501s16.667 -11.667 26 -15l26 -10l-1 -24h-266v24l48 12c6 0.666992 12.333 3 19 7c6.66699 1.33301 11.334 3.33301 14.001 6c4.66699 4.66699 7.66699 10.334 9 17.001
c0.666992 8.66699 -1.83301 26 -7.5 52s-11.834 52.333 -18.501 79l-136 478h-39c-2.66699 -8 -4.5 -14.667 -5.5 -20s-3.16699 -11 -6.5 -17l-6 -23c-2 -8 -4.33301 -15.333 -7 -22c-4.66699 -18 -13 -46.333 -25 -85l-30 -107l-16 -54c-5.33301 -18 -11 -36 -17 -54
l-14.5 -44.5l-15.5 -45.5c-8 -29.333 -16.333 -57.333 -25 -84c-1.33301 -5.33301 -2.83301 -11 -4.5 -17l-4.5 -16c-2.66699 -8.66699 -4.33398 -14.334 -5.00098 -17.001c-1.33301 -14 14 -25 46 -33l46 -12v-24h-245v24c27.333 10.667 62.666 60.167 105.999 148.5
s80.833 181 112.5 278s46.5 162.167 44.5 195.5c0 14.667 -8.33301 24.834 -25 30.501s-48.667 6.83398 -96 3.50098c-2.66699 7.33301 -4 14.666 -4 21.999c0.666992 6.66699 2.33398 13.667 5.00098 21c2.66699 0 6.83398 -0.333008 12.501 -1
s10.5 -1.33398 14.5 -2.00098h57h70c38.667 3.33301 100.334 11.333 185.001 24z" />
    <glyph glyph-name="aring" unicode="&#xcc;" horiz-adv-x="1051" 
d="M529 328l174.002 397.005h275v-25l-69 -20c-6 -1.33301 -10.333 -3 -13 -5c-1.33301 0 -4 -0.666992 -8 -2c-3.33301 -2.66699 -5.66602 -6.83398 -6.99902 -12.501s-1.83301 -11.5 -1.5 -17.5s0.5 -13 0.5 -21l14 -523c0.666992 -3.33301 1 -8.66602 1 -15.999
c0.666992 -3.33301 1 -7.33301 1 -12c2.66699 -9.33301 5.66699 -15.833 9 -19.5s12 -7.83398 26 -12.501l54 -15v-24h-300v24l50 14c30 8.66699 48.833 15.667 56.5 21s10.5 18.666 8.5 39.999l-45 589h-11l-222 -513l-40 -7l-203 520h-15l-49 -589
c-0.666992 -8 -1 -18 -1 -30c0 -2 0.666992 -5.66699 2 -11c2 -3.33301 7.66699 -6.33301 17 -9l8 -2l12 -3l76 -20v-24h-280v24c21.333 4.66699 40.166 14.667 56.499 30s30.666 42.666 42.999 81.999s23.166 99.333 32.499 180s15.333 180.667 18 300v30
c0 8.66699 -1.16699 15.167 -3.5 19.5s-6.83301 8.16602 -13.5 11.499c-14 3.33301 -25.333 6.66602 -34 9.99902l-42 9c-12 2.66699 -19.333 4 -22 4l-1 25h319l120 -397h7z" />
    <glyph glyph-name="aring" unicode="&#x41c;" horiz-adv-x="1051" 
d="M529 328l174.002 397.005h275v-25l-69 -20c-6 -1.33301 -10.333 -3 -13 -5c-1.33301 0 -4 -0.666992 -8 -2c-3.33301 -2.66699 -5.66602 -6.83398 -6.99902 -12.501s-1.83301 -11.5 -1.5 -17.5s0.5 -13 0.5 -21l14 -523c0.666992 -3.33301 1 -8.66602 1 -15.999
c0.666992 -3.33301 1 -7.33301 1 -12c2.66699 -9.33301 5.66699 -15.833 9 -19.5s12 -7.83398 26 -12.501l54 -15v-24h-300v24l50 14c30 8.66699 48.833 15.667 56.5 21s10.5 18.666 8.5 39.999l-45 589h-11l-222 -513l-40 -7l-203 520h-15l-49 -589
c-0.666992 -8 -1 -18 -1 -30c0 -2 0.666992 -5.66699 2 -11c2 -3.33301 7.66699 -6.33301 17 -9l8 -2l12 -3l76 -20v-24h-280v24c21.333 4.66699 40.166 14.667 56.499 30s30.666 42.666 42.999 81.999s23.166 99.333 32.499 180s15.333 180.667 18 300v30
c0 8.66699 -1.16699 15.167 -3.5 19.5s-6.83301 8.16602 -13.5 11.499c-14 3.33301 -25.333 6.66602 -34 9.99902l-42 9c-12 2.66699 -19.333 4 -22 4l-1 25h319l120 -397h7z" />
    <glyph glyph-name="ccedilla" unicode="&#xcd;" horiz-adv-x="926" 
d="M713 0h-155.998v24l50 12c31.333 7.33301 49.666 16.5 54.999 27.5s7.33301 37.5 6 79.5l-5 212c-8.66699 1.33301 -21 3 -37 5s-32 3.33301 -48 4c-20 0.666992 -49.333 1 -88 1h-90c-52 -1.33301 -97.333 -4.66602 -136 -9.99902l-6 -212
c-1.33301 -31.333 -1.5 -52.5 -0.5 -63.5s5.66699 -19.667 14 -26s23.833 -12.166 46.5 -17.499l52 -12v-24h-312v24l50 12c31.333 7.33301 49.5 16.166 54.5 26.499s6.83301 37.166 5.5 80.499l-10 440c0 6.66699 -0.166992 12.167 -0.5 16.5s-0.5 9.16602 -0.5 14.499v23
c-1.33301 20.667 -5.5 34 -12.5 40s-23.833 11.333 -50.5 16l-42 7v25h322v-25l-43 -7c-26.667 -4.66699 -43.334 -10.167 -50.001 -16.5s-10.667 -19.5 -12 -39.5v-23c0 -14 -0.333008 -24.333 -1 -31l-4 -171c38.667 -5.33301 85.334 -8 140.001 -8h88
c10 0.666992 23.667 1 41 1h48c26.667 0 54 2.33301 82 7l-6 171v31c0 4.66699 -0.166992 8.66699 -0.5 12s-0.5 7 -0.5 11c0 19.333 -3.33301 32.333 -10 39s-24.334 12.334 -53.001 17.001l-41 7v25h322v-25l-41 -7c-28 -4.66699 -45.167 -10.167 -51.5 -16.5
s-10.166 -19.5 -11.499 -39.5c0 -10.667 -0.666992 -18.334 -2 -23.001v-31l-10 -440c-1.33301 -31.333 -1.5 -52.666 -0.5 -63.999s5.66699 -20 14 -26s24.166 -11.667 47.499 -17l50 -12v-24h-156z" />
    <glyph glyph-name="ccedilla" unicode="&#x41d;" horiz-adv-x="926" 
d="M713 0h-155.998v24l50 12c31.333 7.33301 49.666 16.5 54.999 27.5s7.33301 37.5 6 79.5l-5 212c-8.66699 1.33301 -21 3 -37 5s-32 3.33301 -48 4c-20 0.666992 -49.333 1 -88 1h-90c-52 -1.33301 -97.333 -4.66602 -136 -9.99902l-6 -212
c-1.33301 -31.333 -1.5 -52.5 -0.5 -63.5s5.66699 -19.667 14 -26s23.833 -12.166 46.5 -17.499l52 -12v-24h-312v24l50 12c31.333 7.33301 49.5 16.166 54.5 26.499s6.83301 37.166 5.5 80.499l-10 440c0 6.66699 -0.166992 12.167 -0.5 16.5s-0.5 9.16602 -0.5 14.499v23
c-1.33301 20.667 -5.5 34 -12.5 40s-23.833 11.333 -50.5 16l-42 7v25h322v-25l-43 -7c-26.667 -4.66699 -43.334 -10.167 -50.001 -16.5s-10.667 -19.5 -12 -39.5v-23c0 -14 -0.333008 -24.333 -1 -31l-4 -171c38.667 -5.33301 85.334 -8 140.001 -8h88
c10 0.666992 23.667 1 41 1h48c26.667 0 54 2.33301 82 7l-6 171v31c0 4.66699 -0.166992 8.66699 -0.5 12s-0.5 7 -0.5 11c0 19.333 -3.33301 32.333 -10 39s-24.334 12.334 -53.001 17.001l-41 7v25h322v-25l-41 -7c-28 -4.66699 -45.167 -10.167 -51.5 -16.5
s-10.166 -19.5 -11.499 -39.5c0 -10.667 -0.666992 -18.334 -2 -23.001v-31l-10 -440c-1.33301 -31.333 -1.5 -52.666 -0.5 -63.999s5.66699 -20 14 -26s24.166 -11.667 47.499 -17l50 -12v-24h-156z" />
    <glyph glyph-name="eacute" unicode="&#xce;" horiz-adv-x="922" 
d="M461 -17c-43.333 0 -86.835 7.83301 -130.502 23.5s-84.5 39.5 -122.5 71.5s-68.667 72.167 -92 120.5s-36.333 105.5 -39 171.5c-4 109.333 30.333 199 103 269s166.334 105 281.001 105c76 0 143.833 -15.833 203.5 -47.5s105.334 -76.167 137.001 -133.5
s46.5 -121.666 44.5 -192.999c-2 -63.333 -14.833 -119.833 -38.5 -169.5s-54 -90.334 -91 -122.001s-77.833 -55.5 -122.5 -71.5s-89 -24 -133 -24zM460.998 23c47.333 0 90.002 12.168 128.002 36.501s68.333 62.833 91 115.5s35 118 37 196
c0.666992 75.333 -10.5 137.666 -33.5 186.999s-54 85.833 -93 109.5s-82.167 35.5 -129.5 35.5c-73.333 0 -134.5 -27.333 -183.5 -82s-72.5 -138 -70.5 -250c0.666992 -76.667 12.167 -141 34.5 -193s52.666 -90.833 90.999 -116.5s81.166 -38.5 128.499 -38.5z" />
    <glyph glyph-name="eacute" unicode="&#x41e;" horiz-adv-x="922" 
d="M461 -17c-43.333 0 -86.835 7.83301 -130.502 23.5s-84.5 39.5 -122.5 71.5s-68.667 72.167 -92 120.5s-36.333 105.5 -39 171.5c-4 109.333 30.333 199 103 269s166.334 105 281.001 105c76 0 143.833 -15.833 203.5 -47.5s105.334 -76.167 137.001 -133.5
s46.5 -121.666 44.5 -192.999c-2 -63.333 -14.833 -119.833 -38.5 -169.5s-54 -90.334 -91 -122.001s-77.833 -55.5 -122.5 -71.5s-89 -24 -133 -24zM460.998 23c47.333 0 90.002 12.168 128.002 36.501s68.333 62.833 91 115.5s35 118 37 196
c0.666992 75.333 -10.5 137.666 -33.5 186.999s-54 85.833 -93 109.5s-82.167 35.5 -129.5 35.5c-73.333 0 -134.5 -27.333 -183.5 -82s-72.5 -138 -70.5 -250c0.666992 -76.667 12.167 -141 34.5 -193s52.666 -90.833 90.999 -116.5s81.166 -38.5 128.499 -38.5z" />
    <glyph glyph-name="egrave" unicode="&#xcf;" horiz-adv-x="915" 
d="M220 0l-162 -0.00195312v24l53 12c32.667 8 51.667 16.833 57 26.5s7.33301 36.5 6 80.5l-11 440c-0.666992 6.66699 -1 17 -1 31v23c-1.33301 20 -5.33301 33.167 -12 39.5s-24.667 11.833 -54 16.5l-44 7v25h809v-25l-45 -7c-28 -5.33301 -45.333 -10.833 -52 -16.5
s-10.667 -18.834 -12 -39.501v-23c0 -6.66699 -0.166992 -12.167 -0.5 -16.5s-0.833008 -9.16602 -1.5 -14.499l-11 -440c0 -36.667 0.833008 -59.667 2.5 -69s6.66699 -16.666 15 -21.999s23.833 -10.666 46.5 -15.999l53 -12v-24h-327v24l53 12
c22 4 37.167 8.66699 45.5 14s13.5 13.833 15.5 25.5s3 34.167 3 67.5l-15 540h-348l-15 -540c-1.33301 -30.667 -0.833008 -52.5 1.5 -65.5s8 -22.167 17 -27.5s23.833 -10 44.5 -14l54 -12v-24h-165z" />
    <glyph glyph-name="egrave" unicode="&#x41f;" horiz-adv-x="915" 
d="M220 0l-162 -0.00195312v24l53 12c32.667 8 51.667 16.833 57 26.5s7.33301 36.5 6 80.5l-11 440c-0.666992 6.66699 -1 17 -1 31v23c-1.33301 20 -5.33301 33.167 -12 39.5s-24.667 11.833 -54 16.5l-44 7v25h809v-25l-45 -7c-28 -5.33301 -45.333 -10.833 -52 -16.5
s-10.667 -18.834 -12 -39.501v-23c0 -6.66699 -0.166992 -12.167 -0.5 -16.5s-0.833008 -9.16602 -1.5 -14.499l-11 -440c0 -36.667 0.833008 -59.667 2.5 -69s6.66699 -16.666 15 -21.999s23.833 -10.666 46.5 -15.999l53 -12v-24h-327v24l53 12
c22 4 37.167 8.66699 45.5 14s13.5 13.833 15.5 25.5s3 34.167 3 67.5l-15 540h-348l-15 -540c-1.33301 -30.667 -0.833008 -52.5 1.5 -65.5s8 -22.167 17 -27.5s23.833 -10 44.5 -14l54 -12v-24h-165z" />
    <glyph glyph-name="ecircumflex" unicode="&#xd0;" horiz-adv-x="738" 
d="M216 0l-158 -0.000976562v24l51 12c30.667 7.33301 48.834 16.166 54.501 26.499s7.83398 37.166 6.50098 80.499l-11 440v31c-0.666992 4.66699 -1 12.334 -1 23.001c0 19.333 -3.33301 32.333 -10 39s-24.667 12.334 -54 17.001l-42 7v25h345
c58.667 0 107 -3.5 145 -10.5s68.667 -21.167 92 -42.5s36.333 -52.666 39 -93.999c2 -40.667 -5.83301 -81 -23.5 -121s-46.5 -73.5 -86.5 -100.5s-89.667 -41.833 -149 -44.5c-44 -2 -85.667 3.66699 -125 17c1.33301 12.667 5 24.667 11 36
c29.333 -10.667 59.666 -16 90.999 -16c100.667 1.33301 151 60 151 176c0.666992 46 -6.16602 80.5 -20.499 103.5s-34.833 38.167 -61.5 45.5s-58.334 10.333 -95.001 9c-36 0 -66 -2 -90 -6l-14 -534c-1.33301 -28.667 -1.33301 -49 0 -61s6.16602 -21.667 14.499 -29
s24.5 -13 48.5 -17l67 -12v-24h-175z" />
    <glyph glyph-name="ecircumflex" unicode="&#x420;" horiz-adv-x="738" 
d="M216 0l-158 -0.000976562v24l51 12c30.667 7.33301 48.834 16.166 54.501 26.499s7.83398 37.166 6.50098 80.499l-11 440v31c-0.666992 4.66699 -1 12.334 -1 23.001c0 19.333 -3.33301 32.333 -10 39s-24.667 12.334 -54 17.001l-42 7v25h345
c58.667 0 107 -3.5 145 -10.5s68.667 -21.167 92 -42.5s36.333 -52.666 39 -93.999c2 -40.667 -5.83301 -81 -23.5 -121s-46.5 -73.5 -86.5 -100.5s-89.667 -41.833 -149 -44.5c-44 -2 -85.667 3.66699 -125 17c1.33301 12.667 5 24.667 11 36
c29.333 -10.667 59.666 -16 90.999 -16c100.667 1.33301 151 60 151 176c0.666992 46 -6.16602 80.5 -20.499 103.5s-34.833 38.167 -61.5 45.5s-58.334 10.333 -95.001 9c-36 0 -66 -2 -90 -6l-14 -534c-1.33301 -28.667 -1.33301 -49 0 -61s6.16602 -21.667 14.499 -29
s24.5 -13 48.5 -17l67 -12v-24h-175z" />
    <glyph glyph-name="edieresis" unicode="&#xd1;" horiz-adv-x="819" 
d="M683 554c-16 49.333 -39.8301 86.334 -71.4971 111.001s-73.5 37.334 -125.5 38.001c-44 0 -86.333 -7.5 -127 -22.5s-76.334 -46.5 -107.001 -94.5s-45 -114.667 -43 -200c2.66699 -124 35 -215.5 97 -274.5s130.667 -88.5 206 -88.5
c47.333 0 88.666 15.167 123.999 45.5s58.333 67.166 69 110.499l35 1l-21 -152c-6.66699 -2.66699 -18 -6.83398 -34 -12.501s-32.5 -10.667 -49.5 -15s-40.667 -8.33301 -71 -12s-57.833 -5.5 -82.5 -5.5c-81.333 0 -152.666 17.833 -213.999 53.5
s-108.5 83.667 -141.5 144s-49.5 126.5 -49.5 198.5c0 86.667 20.167 157.5 60.5 212.5s90.166 94.667 149.499 119s118.333 35.5 177 33.5c14 -0.666992 45 -4 93 -10c21.333 -4 42.666 -6 63.999 -6c32 0 64.333 5.33301 97 16l5 -178z" />
    <glyph glyph-name="edieresis" unicode="&#x421;" horiz-adv-x="819" 
d="M683 554c-16 49.333 -39.8301 86.334 -71.4971 111.001s-73.5 37.334 -125.5 38.001c-44 0 -86.333 -7.5 -127 -22.5s-76.334 -46.5 -107.001 -94.5s-45 -114.667 -43 -200c2.66699 -124 35 -215.5 97 -274.5s130.667 -88.5 206 -88.5
c47.333 0 88.666 15.167 123.999 45.5s58.333 67.166 69 110.499l35 1l-21 -152c-6.66699 -2.66699 -18 -6.83398 -34 -12.501s-32.5 -10.667 -49.5 -15s-40.667 -8.33301 -71 -12s-57.833 -5.5 -82.5 -5.5c-81.333 0 -152.666 17.833 -213.999 53.5
s-108.5 83.667 -141.5 144s-49.5 126.5 -49.5 198.5c0 86.667 20.167 157.5 60.5 212.5s90.166 94.667 149.499 119s118.333 35.5 177 33.5c14 -0.666992 45 -4 93 -10c21.333 -4 42.666 -6 63.999 -6c32 0 64.333 5.33301 97 16l5 -178z" />
    <glyph glyph-name="iacute" unicode="&#xd2;" horiz-adv-x="794" 
d="M235 0v24l59 12c21.333 4 36.166 9.83301 44.499 17.5s13 17.334 14 29.001s0.833008 31.834 -0.5 60.501l-13 540h-74c-23.333 0 -45.666 -7.83301 -66.999 -23.5s-40.166 -36.167 -56.499 -61.5s-27.833 -50.333 -34.5 -75l-43 -6l12 208h643l9 -194l-38 -8
c-1.33301 4 -3.5 9.16699 -6.5 15.5l-9.5 19.5c-2 5.33301 -4.33301 10.5 -7 15.5s-5.16699 10.167 -7.5 15.5s-4.83301 10.333 -7.5 15c-29.333 52.667 -69 79 -119 79h-83l-11 -540c-1.33301 -28.667 -1.5 -48.834 -0.5 -60.501s5.66699 -21.334 14 -29.001
s23.166 -13.5 44.499 -17.5l57 -12v-24h-319z" />
    <glyph glyph-name="iacute" unicode="&#x422;" horiz-adv-x="794" 
d="M235 0v24l59 12c21.333 4 36.166 9.83301 44.499 17.5s13 17.334 14 29.001s0.833008 31.834 -0.5 60.501l-13 540h-74c-23.333 0 -45.666 -7.83301 -66.999 -23.5s-40.166 -36.167 -56.499 -61.5s-27.833 -50.333 -34.5 -75l-43 -6l12 208h643l9 -194l-38 -8
c-1.33301 4 -3.5 9.16699 -6.5 15.5l-9.5 19.5c-2 5.33301 -4.33301 10.5 -7 15.5s-5.16699 10.167 -7.5 15.5s-4.83301 10.333 -7.5 15c-29.333 52.667 -69 79 -119 79h-83l-11 -540c-1.33301 -28.667 -1.5 -48.834 -0.5 -60.501s5.66699 -21.334 14 -29.001
s23.166 -13.5 44.499 -17.5l57 -12v-24h-319z" />
    <glyph glyph-name="igrave" unicode="&#xd3;" horiz-adv-x="824" 
d="M485 222c17.333 44.667 39.6631 99.335 66.9961 164.002l23.5 59.5l16.5 42.5l24 65c22 59.333 33 96.333 33 111c0 13.333 -7.33301 21.666 -22 24.999c-6.66699 2 -16.667 3.66699 -30 5c-9.33301 2.66699 -23.666 4.66699 -42.999 6v25h254v-25
c-20 -0.666992 -37.167 -9.66699 -51.5 -27s-29.333 -42.333 -45 -75l-103.5 -222c-21.333 -46.667 -37.333 -80.667 -48 -102c-40.667 -86 -72.667 -148.167 -96 -186.5s-46.833 -65.333 -70.5 -81s-54.5 -24.167 -92.5 -25.5c-41.333 0 -83.666 7.33301 -126.999 22
l-7 165l34 7c32.667 -87.333 71.667 -132 117 -134c42.667 -2 77.334 27.333 104.001 88l-47 87c-19.333 38.667 -34.333 67 -45 85l-31.5 60l-32.5 60l-58 107c-13.333 27.333 -27.666 54 -42.999 80c-8.66699 20 -18.667 36.667 -30 50c-14.667 20.667 -35 33.667 -61 39
l-25 3v25h294v-25c-43.333 -5.33301 -65 -14 -65 -26c-0.666992 -8.66699 7 -33 23 -73s35.5 -84.333 58.5 -133l50.5 -106l19 -36.5c6 -11.667 12.333 -25.5 19 -41.5c11.333 -22.667 21 -43.334 29 -62.001h8z" />
    <glyph glyph-name="igrave" unicode="&#x423;" horiz-adv-x="824" 
d="M485 222c17.333 44.667 39.6631 99.335 66.9961 164.002l23.5 59.5l16.5 42.5l24 65c22 59.333 33 96.333 33 111c0 13.333 -7.33301 21.666 -22 24.999c-6.66699 2 -16.667 3.66699 -30 5c-9.33301 2.66699 -23.666 4.66699 -42.999 6v25h254v-25
c-20 -0.666992 -37.167 -9.66699 -51.5 -27s-29.333 -42.333 -45 -75l-103.5 -222c-21.333 -46.667 -37.333 -80.667 -48 -102c-40.667 -86 -72.667 -148.167 -96 -186.5s-46.833 -65.333 -70.5 -81s-54.5 -24.167 -92.5 -25.5c-41.333 0 -83.666 7.33301 -126.999 22
l-7 165l34 7c32.667 -87.333 71.667 -132 117 -134c42.667 -2 77.334 27.333 104.001 88l-47 87c-19.333 38.667 -34.333 67 -45 85l-31.5 60l-32.5 60l-58 107c-13.333 27.333 -27.666 54 -42.999 80c-8.66699 20 -18.667 36.667 -30 50c-14.667 20.667 -35 33.667 -61 39
l-25 3v25h294v-25c-43.333 -5.33301 -65 -14 -65 -26c-0.666992 -8.66699 7 -33 23 -73s35.5 -84.333 58.5 -133l50.5 -106l19 -36.5c6 -11.667 12.333 -25.5 19 -41.5c11.333 -22.667 21 -43.334 29 -62.001h8z" />
    <glyph glyph-name="icircumflex" unicode="&#xd4;" horiz-adv-x="1018" 
d="M467 144c-66 -11.333 -129.166 -7 -189.499 13s-108.833 53 -145.5 99s-55 100.667 -55 164c-0.666992 72.667 19.333 127 60 163s89.667 58 147 66s114.333 8.33301 171 1c2.66699 24 0.166992 40 -7.5 48s-24.834 14.667 -51.501 20l-41 7v25h309v-25l-41 -7
c-27.333 -5.33301 -44 -11.5 -50 -18.5s-9 -23.5 -9 -49.5c36 5.33301 76.167 7 120.5 5s86 -10.833 125 -26.5s71 -40.5 96 -74.5s37.167 -78.667 36.5 -134c0 -66 -19 -121.833 -57 -167.5s-87 -77.834 -147 -96.501s-121.667 -23 -185 -13c-1.33301 -44 0.5 -71 5.5 -81
s22.5 -18.667 52.5 -26l47 -12v-24h-298v24l48 12c30.667 6.66699 48.667 15.834 54 27.501s7 38.5 5 80.5zM465.001 182l-7.99902 426.001c-38.667 11.333 -75.667 14.666 -111 9.99902c-34.667 -3.33301 -67.5 -19 -98.5 -47s-46.5 -77.667 -46.5 -149
c0.666992 -58.667 13.667 -108.167 39 -148.5s58.666 -68.333 99.999 -84s83 -18.167 125 -7.5zM553.002 182.001c42 -10.667 83.833 -8.16992 125.5 7.49707s75 43.667 100 84s37.5 89.833 37.5 148.5c0 70.667 -14.833 120.334 -44.5 149.001s-62.5 44.334 -98.5 47.001
c-35.333 4.66699 -72.333 1.33398 -111 -9.99902z" />
    <glyph glyph-name="icircumflex" unicode="&#x424;" horiz-adv-x="1018" 
d="M467 144c-66 -11.333 -129.166 -7 -189.499 13s-108.833 53 -145.5 99s-55 100.667 -55 164c-0.666992 72.667 19.333 127 60 163s89.667 58 147 66s114.333 8.33301 171 1c2.66699 24 0.166992 40 -7.5 48s-24.834 14.667 -51.501 20l-41 7v25h309v-25l-41 -7
c-27.333 -5.33301 -44 -11.5 -50 -18.5s-9 -23.5 -9 -49.5c36 5.33301 76.167 7 120.5 5s86 -10.833 125 -26.5s71 -40.5 96 -74.5s37.167 -78.667 36.5 -134c0 -66 -19 -121.833 -57 -167.5s-87 -77.834 -147 -96.501s-121.667 -23 -185 -13c-1.33301 -44 0.5 -71 5.5 -81
s22.5 -18.667 52.5 -26l47 -12v-24h-298v24l48 12c30.667 6.66699 48.667 15.834 54 27.501s7 38.5 5 80.5zM465.001 182l-7.99902 426.001c-38.667 11.333 -75.667 14.666 -111 9.99902c-34.667 -3.33301 -67.5 -19 -98.5 -47s-46.5 -77.667 -46.5 -149
c0.666992 -58.667 13.667 -108.167 39 -148.5s58.666 -68.333 99.999 -84s83 -18.167 125 -7.5zM553.002 182.001c42 -10.667 83.833 -8.16992 125.5 7.49707s75 43.667 100 84s37.5 89.833 37.5 148.5c0 70.667 -14.833 120.334 -44.5 149.001s-62.5 44.334 -98.5 47.001
c-35.333 4.66699 -72.333 1.33398 -111 -9.99902z" />
    <glyph glyph-name="idieresis" unicode="&#xd5;" horiz-adv-x="831" 
d="M439 427l87 118.997l31 45c29.333 40 45.666 67.333 48.999 82c0 16 -22.667 25 -68 27v25h246v-25c-21.333 -2.66699 -42.5 -11.5 -63.5 -26.5s-45.5 -39.167 -73.5 -72.5c-4 -6 -11.333 -14.333 -22 -25c-8 -10 -17 -20 -27 -30l-131 -151l135 -203
c38.667 -59.333 69.334 -101.166 92.001 -125.499s50.667 -38.5 84 -42.5v-24h-282v24l35 7c26.667 3.33301 40.667 9.33301 42 18c0 9.33301 -2 17 -6 23c-3.33301 6 -7 11.333 -11 16l-28.5 41.5c-15.667 23 -26.167 37.833 -31.5 44.5l-105 152l-111 -157l-14.5 -21
l-12.5 -18c-2.66699 -3.33301 -6.16699 -8.16602 -10.5 -14.499l-13.5 -19.5c-12.667 -20 -19.667 -32.667 -21 -38c-0.666992 -6.66699 1.16602 -11.5 5.49902 -14.5s15.5 -6.16699 33.5 -9.5l52 -10v-24h-262v24c28 9.33301 58.667 31 92 65l43 46
c14.667 16 25.667 28.333 33 37l155 188l-153 209c-14.667 19.333 -24 32.333 -28 39c-12 16 -21 28.667 -27 38c-15.333 20 -29.666 33.833 -42.999 41.5s-35.333 11.834 -66 12.501v25h317v-25c-16.667 0 -31.667 -2.83301 -45 -8.5s-20.666 -12.5 -21.999 -20.5
c-4.66699 -9.33301 14.666 -46.333 57.999 -111z" />
    <glyph glyph-name="idieresis" unicode="&#x425;" horiz-adv-x="831" 
d="M439 427l87 118.997l31 45c29.333 40 45.666 67.333 48.999 82c0 16 -22.667 25 -68 27v25h246v-25c-21.333 -2.66699 -42.5 -11.5 -63.5 -26.5s-45.5 -39.167 -73.5 -72.5c-4 -6 -11.333 -14.333 -22 -25c-8 -10 -17 -20 -27 -30l-131 -151l135 -203
c38.667 -59.333 69.334 -101.166 92.001 -125.499s50.667 -38.5 84 -42.5v-24h-282v24l35 7c26.667 3.33301 40.667 9.33301 42 18c0 9.33301 -2 17 -6 23c-3.33301 6 -7 11.333 -11 16l-28.5 41.5c-15.667 23 -26.167 37.833 -31.5 44.5l-105 152l-111 -157l-14.5 -21
l-12.5 -18c-2.66699 -3.33301 -6.16699 -8.16602 -10.5 -14.499l-13.5 -19.5c-12.667 -20 -19.667 -32.667 -21 -38c-0.666992 -6.66699 1.16602 -11.5 5.49902 -14.5s15.5 -6.16699 33.5 -9.5l52 -10v-24h-262v24c28 9.33301 58.667 31 92 65l43 46
c14.667 16 25.667 28.333 33 37l155 188l-153 209c-14.667 19.333 -24 32.333 -28 39c-12 16 -21 28.667 -27 38c-15.333 20 -29.666 33.833 -42.999 41.5s-35.333 11.834 -66 12.501v25h317v-25c-16.667 0 -31.667 -2.83301 -45 -8.5s-20.666 -12.5 -21.999 -20.5
c-4.66699 -9.33301 14.666 -46.333 57.999 -111z" />
    <glyph glyph-name="ntilde" unicode="&#xd6;" horiz-adv-x="932" 
d="M58 0l-0.00195312 23.999l49 12c30.667 7.33301 48.5 16.333 53.5 27s6.5 37.334 4.5 80.001l-10 440c0 14 -0.333008 24.333 -1 31v23c0 18.667 -3.5 31.5 -10.5 38.5s-23.833 12.833 -50.5 17.5l-41 7v25h319v-25l-41 -7c-26.667 -4.66699 -43.167 -10.167 -49.5 -16.5
s-10.166 -19.5 -11.499 -39.5v-23c0 -6.66699 -0.166992 -12.167 -0.5 -16.5s-0.5 -9.16602 -0.5 -14.499l-13 -542h428l-14 542v31v23c0 18.667 -3.5 31.5 -10.5 38.5s-23.833 12.833 -50.5 17.5l-41 7v25h319v-25l-41 -7c-26.667 -4.66699 -43.167 -10.167 -49.5 -16.5
s-10.166 -19.5 -11.499 -39.5v-23v-31l-13 -534l104 -1c-10.667 -62 -23.5 -111 -38.5 -147s-38.667 -65 -71 -87s-77.833 -39.333 -136.5 -52v45c41.333 7.33301 70.333 26.666 87 57.999s28.667 74 36 128c0 3.33301 -0.833008 5.33301 -2.5 6s-8.16699 1 -19.5 1h-672z
" />
    <glyph glyph-name="ntilde" unicode="&#x426;" horiz-adv-x="932" 
d="M58 0l-0.00195312 23.999l49 12c30.667 7.33301 48.5 16.333 53.5 27s6.5 37.334 4.5 80.001l-10 440c0 14 -0.333008 24.333 -1 31v23c0 18.667 -3.5 31.5 -10.5 38.5s-23.833 12.833 -50.5 17.5l-41 7v25h319v-25l-41 -7c-26.667 -4.66699 -43.167 -10.167 -49.5 -16.5
s-10.166 -19.5 -11.499 -39.5v-23c0 -6.66699 -0.166992 -12.167 -0.5 -16.5s-0.5 -9.16602 -0.5 -14.499l-13 -542h428l-14 542v31v23c0 18.667 -3.5 31.5 -10.5 38.5s-23.833 12.833 -50.5 17.5l-41 7v25h319v-25l-41 -7c-26.667 -4.66699 -43.167 -10.167 -49.5 -16.5
s-10.166 -19.5 -11.499 -39.5v-23v-31l-13 -534l104 -1c-10.667 -62 -23.5 -111 -38.5 -147s-38.667 -65 -71 -87s-77.833 -39.333 -136.5 -52v45c41.333 7.33301 70.333 26.666 87 57.999s28.667 74 36 128c0 3.33301 -0.833008 5.33301 -2.5 6s-8.16699 1 -19.5 1h-672z
" />
    <glyph glyph-name="oacute" unicode="&#xd7;" horiz-adv-x="810" 
d="M597 0l-170.999 0.00488281v24l67 12c31.333 5.33301 49.5 14.5 54.5 27.5s6.83301 39.5 5.5 79.5l-6 218c-60 -12.667 -109.667 -21.667 -149 -27s-75.666 -7 -108.999 -5c-48.667 2.66699 -84.334 12.167 -107.001 28.5s-37 37.166 -43 62.499s-9 57.666 -9 96.999v76
c1.33301 9.33301 2 24 2 44c-1.33301 20 -5.5 33.167 -12.5 39.5s-23.833 11.833 -50.5 16.5l-42 7v25h322v-25l-43 -7c-26.667 -4.66699 -44.334 -11.5 -53.001 -20.5s-13 -25.833 -13 -50.5s0.333008 -51.334 1 -80.001c0 -44.667 2.5 -78.667 7.5 -102
s15.667 -40.5 32 -51.5s43.166 -16.5 80.499 -16.5c50 0 112 11 186 33l-4 178c-0.666992 6.66699 -1 17 -1 31v23c0 19.333 -3.5 32.333 -10.5 39s-24.167 12.334 -51.5 17.001l-43 7v25h322v-25l-42 -7c-28 -4.66699 -45.167 -10.167 -51.5 -16.5
s-10.166 -19.5 -11.499 -39.5c0 -10.667 -0.333008 -18.334 -1 -23.001v-31l-11 -440c0 -36.667 0.666992 -59.834 2 -69.501s6 -17.334 14 -23.001s23 -10.5 45 -14.5l50 -12v-24h-156z" />
    <glyph glyph-name="oacute" unicode="&#x427;" horiz-adv-x="810" 
d="M597 0l-170.999 0.00488281v24l67 12c31.333 5.33301 49.5 14.5 54.5 27.5s6.83301 39.5 5.5 79.5l-6 218c-60 -12.667 -109.667 -21.667 -149 -27s-75.666 -7 -108.999 -5c-48.667 2.66699 -84.334 12.167 -107.001 28.5s-37 37.166 -43 62.499s-9 57.666 -9 96.999v76
c1.33301 9.33301 2 24 2 44c-1.33301 20 -5.5 33.167 -12.5 39.5s-23.833 11.833 -50.5 16.5l-42 7v25h322v-25l-43 -7c-26.667 -4.66699 -44.334 -11.5 -53.001 -20.5s-13 -25.833 -13 -50.5s0.333008 -51.334 1 -80.001c0 -44.667 2.5 -78.667 7.5 -102
s15.667 -40.5 32 -51.5s43.166 -16.5 80.499 -16.5c50 0 112 11 186 33l-4 178c-0.666992 6.66699 -1 17 -1 31v23c0 19.333 -3.5 32.333 -10.5 39s-24.167 12.334 -51.5 17.001l-43 7v25h322v-25l-42 -7c-28 -4.66699 -45.167 -10.167 -51.5 -16.5
s-10.166 -19.5 -11.499 -39.5c0 -10.667 -0.333008 -18.334 -1 -23.001v-31l-11 -440c0 -36.667 0.666992 -59.834 2 -69.501s6 -17.334 14 -23.001s23 -10.5 45 -14.5l50 -12v-24h-156z" />
    <glyph glyph-name="ograve" unicode="&#xd8;" horiz-adv-x="1279" 
d="M58 0v23.998l49 12c30.667 7.33301 48.5 16.333 53.5 27s6.5 37.334 4.5 80.001l-10 440c0 14 -0.333008 24.333 -1 31v23c0 18.667 -3.5 31.5 -10.5 38.5s-23.833 12.833 -50.5 17.5l-41 7v25h314v-25l-40 -7c-27.333 -4.66699 -44.333 -10.334 -51 -17.001
s-10 -19.667 -10 -39c0 -5.33301 -0.166992 -9.5 -0.5 -12.5s-0.5 -6.5 -0.5 -10.5v-31l-10 -542h340l-10 542v31c-0.666992 4.66699 -1 12.334 -1 23.001c0 19.333 -3.33301 32.333 -10 39s-23.667 12.334 -51 17.001l-40 7v25h314v-25l-41 -7
c-26 -4.66699 -42.167 -10.167 -48.5 -16.5s-10.5 -19.5 -12.5 -39.5c0 -10.667 -0.333008 -18.334 -1 -23.001v-31l-10 -542h342l-10 542v31c0 4.66699 -0.166992 8.66699 -0.5 12s-0.833008 7 -1.5 11c0 19.333 -3.33301 32.333 -10 39s-23.667 12.334 -51 17.001l-41 7
v25h314v-25l-39 -7c-27.333 -4.66699 -44.166 -10.167 -50.499 -16.5s-10.166 -19.5 -11.499 -39.5v-23c-0.666992 -6.66699 -1 -17 -1 -31l-10 -440c-1.33301 -32 -1.33301 -53.667 0 -65s5.66602 -19.833 12.999 -25.5s22.666 -11.167 45.999 -16.5l48 -12v-24h-1162z" />
    <glyph glyph-name="ograve" unicode="&#x428;" horiz-adv-x="1279" 
d="M58 0v23.998l49 12c30.667 7.33301 48.5 16.333 53.5 27s6.5 37.334 4.5 80.001l-10 440c0 14 -0.333008 24.333 -1 31v23c0 18.667 -3.5 31.5 -10.5 38.5s-23.833 12.833 -50.5 17.5l-41 7v25h314v-25l-40 -7c-27.333 -4.66699 -44.333 -10.334 -51 -17.001
s-10 -19.667 -10 -39c0 -5.33301 -0.166992 -9.5 -0.5 -12.5s-0.5 -6.5 -0.5 -10.5v-31l-10 -542h340l-10 542v31c-0.666992 4.66699 -1 12.334 -1 23.001c0 19.333 -3.33301 32.333 -10 39s-23.667 12.334 -51 17.001l-40 7v25h314v-25l-41 -7
c-26 -4.66699 -42.167 -10.167 -48.5 -16.5s-10.5 -19.5 -12.5 -39.5c0 -10.667 -0.333008 -18.334 -1 -23.001v-31l-10 -542h342l-10 542v31c0 4.66699 -0.166992 8.66699 -0.5 12s-0.833008 7 -1.5 11c0 19.333 -3.33301 32.333 -10 39s-23.667 12.334 -51 17.001l-41 7
v25h314v-25l-39 -7c-27.333 -4.66699 -44.166 -10.167 -50.499 -16.5s-10.166 -19.5 -11.499 -39.5v-23c-0.666992 -6.66699 -1 -17 -1 -31l-10 -440c-1.33301 -32 -1.33301 -53.667 0 -65s5.66602 -19.833 12.999 -25.5s22.666 -11.167 45.999 -16.5l48 -12v-24h-1162z" />
    <glyph glyph-name="ocircumflex" unicode="&#xd9;" horiz-adv-x="1274" 
d="M58 0v23.9971l49 12c30.667 7.33301 48.5 16.333 53.5 27s6.5 37.334 4.5 80.001l-10 440c0 14 -0.333008 24.333 -1 31v23c0 18.667 -3.5 31.5 -10.5 38.5s-23.833 12.833 -50.5 17.5l-41 7v25h314v-25l-40 -7c-27.333 -4.66699 -44.333 -10.334 -51 -17.001
s-10 -19.667 -10 -39c0 -5.33301 -0.166992 -9.5 -0.5 -12.5s-0.5 -6.5 -0.5 -10.5v-31l-10 -542h340l-10 542v31c-0.666992 4.66699 -1 12.334 -1 23.001c0 19.333 -3.33301 32.333 -10 39s-23.667 12.334 -51 17.001l-40 7v25h314v-25l-41 -7
c-26 -4.66699 -42.167 -10.167 -48.5 -16.5s-10.5 -19.5 -12.5 -39.5c0 -10.667 -0.333008 -18.334 -1 -23.001v-31l-10 -542h342l-13 542c0 14 -0.666992 24.333 -2 31v23c0 19.333 -3.33301 32.333 -10 39s-23.667 12.334 -51 17.001l-40 7v25h318v-25l-40 -7
c-27.333 -4.66699 -44 -10 -50 -16s-9.66699 -19.333 -11 -40v-23c0 -6.66699 -0.166992 -12.167 -0.5 -16.5s-0.833008 -9.16602 -1.5 -14.499l-12 -534l104 -1c-8.66699 -47.333 -17.667 -85.833 -27 -115.5s-22.5 -55.667 -39.5 -78s-39.833 -40.833 -68.5 -55.5
s-65.667 -27 -111 -37v45c42.667 7.33301 71.667 26.333 87 57s27 73.667 35 129c0.666992 3.33301 0.166992 5.33301 -1.5 6s-8.16699 1 -19.5 1h-1013z" />
    <glyph glyph-name="ocircumflex" unicode="&#x429;" horiz-adv-x="1274" 
d="M58 0v23.9971l49 12c30.667 7.33301 48.5 16.333 53.5 27s6.5 37.334 4.5 80.001l-10 440c0 14 -0.333008 24.333 -1 31v23c0 18.667 -3.5 31.5 -10.5 38.5s-23.833 12.833 -50.5 17.5l-41 7v25h314v-25l-40 -7c-27.333 -4.66699 -44.333 -10.334 -51 -17.001
s-10 -19.667 -10 -39c0 -5.33301 -0.166992 -9.5 -0.5 -12.5s-0.5 -6.5 -0.5 -10.5v-31l-10 -542h340l-10 542v31c-0.666992 4.66699 -1 12.334 -1 23.001c0 19.333 -3.33301 32.333 -10 39s-23.667 12.334 -51 17.001l-40 7v25h314v-25l-41 -7
c-26 -4.66699 -42.167 -10.167 -48.5 -16.5s-10.5 -19.5 -12.5 -39.5c0 -10.667 -0.333008 -18.334 -1 -23.001v-31l-10 -542h342l-13 542c0 14 -0.666992 24.333 -2 31v23c0 19.333 -3.33301 32.333 -10 39s-23.667 12.334 -51 17.001l-40 7v25h318v-25l-40 -7
c-27.333 -4.66699 -44 -10 -50 -16s-9.66699 -19.333 -11 -40v-23c0 -6.66699 -0.166992 -12.167 -0.5 -16.5s-0.833008 -9.16602 -1.5 -14.499l-12 -534l104 -1c-8.66699 -47.333 -17.667 -85.833 -27 -115.5s-22.5 -55.667 -39.5 -78s-39.833 -40.833 -68.5 -55.5
s-65.667 -27 -111 -37v45c42.667 7.33301 71.667 26.333 87 57s27 73.667 35 129c0.666992 3.33301 0.166992 5.33301 -1.5 6s-8.16699 1 -19.5 1h-1013z" />
    <glyph glyph-name="odieresis" unicode="&#xda;" horiz-adv-x="935" 
d="M241 0l-0.00195312 24.0049l49 12c30.667 7.33301 48.667 16.166 54 26.499s7.33301 37.166 6 80.499l-15 540h-45c-6 0.666992 -12.5 1 -19.5 1s-12.5 -0.333008 -16.5 -1c-24 0 -49.167 -10.167 -75.5 -30.5s-53.5 -61.5 -81.5 -123.5l-36 13l16 183h473v-25l-40 -7
c-27.333 -4.66699 -44.166 -10.167 -50.499 -16.5s-10.166 -19.5 -11.499 -39.5v-23c-0.666992 -6.66699 -1 -17 -1 -31l-10 -438l-1 -89c35.333 -10 68.333 -15 99 -15c48 1.33301 86.667 9.16602 116 23.499s50.833 36.833 64.5 67.5s20.167 67.667 19.5 111
c0 48.667 -9.33301 85 -28 109s-50.667 37 -96 39c-39.333 2 -76.333 -3.33301 -111 -16c-6.66699 10.667 -10 23 -10 37c50 15.333 100.333 23.666 151 24.999c42 2.66699 88.333 -6.33301 139 -27s78.667 -64 84 -130c3.33301 -38 -4.16699 -78.833 -22.5 -122.5
s-54.833 -80.834 -109.5 -111.501s-131.667 -46 -231 -46h-260z" />
    <glyph glyph-name="odieresis" unicode="&#x42a;" horiz-adv-x="935" 
d="M241 0l-0.00195312 24.0049l49 12c30.667 7.33301 48.667 16.166 54 26.499s7.33301 37.166 6 80.499l-15 540h-45c-6 0.666992 -12.5 1 -19.5 1s-12.5 -0.333008 -16.5 -1c-24 0 -49.167 -10.167 -75.5 -30.5s-53.5 -61.5 -81.5 -123.5l-36 13l16 183h473v-25l-40 -7
c-27.333 -4.66699 -44.166 -10.167 -50.499 -16.5s-10.166 -19.5 -11.499 -39.5v-23c-0.666992 -6.66699 -1 -17 -1 -31l-10 -438l-1 -89c35.333 -10 68.333 -15 99 -15c48 1.33301 86.667 9.16602 116 23.499s50.833 36.833 64.5 67.5s20.167 67.667 19.5 111
c0 48.667 -9.33301 85 -28 109s-50.667 37 -96 39c-39.333 2 -76.333 -3.33301 -111 -16c-6.66699 10.667 -10 23 -10 37c50 15.333 100.333 23.666 151 24.999c42 2.66699 88.333 -6.33301 139 -27s78.667 -64 84 -130c3.33301 -38 -4.16699 -78.833 -22.5 -122.5
s-54.833 -80.834 -109.5 -111.501s-131.667 -46 -231 -46h-260z" />
    <glyph glyph-name="otilde" unicode="&#xdb;" horiz-adv-x="1078" 
d="M58 0l0.00195312 24l49 12c30.667 7.33301 48.5 16.333 53.5 27s6.5 37.334 4.5 80.001l-10 440c0 14 -0.333008 24.333 -1 31v23c0 18.667 -3.5 31.5 -10.5 38.5s-23.833 12.833 -50.5 17.5l-41 7v25h314v-25l-40 -7c-27.333 -4.66699 -44.333 -10.334 -51 -17.001
s-10 -19.667 -10 -39c0 -5.33301 -0.166992 -9.5 -0.5 -12.5s-0.5 -6.5 -0.5 -10.5v-31l-11 -438l-2 -92c37.333 -8 69 -12 95 -12c137.333 -2 206 65.333 206 202c0 48.667 -9.33301 85 -28 109s-51 37 -97 39c-39.333 2 -76.333 -3.33301 -111 -16
c-7.33301 14 -10.666 26.333 -9.99902 37c50 15.333 100 23.666 150 24.999c43.333 2.66699 90.166 -6.16602 140.499 -26.499s78.166 -63.833 83.499 -130.5c3.33301 -38.667 -4.33398 -79.667 -23.001 -123s-55.167 -80.333 -109.5 -111s-130.833 -46 -229.5 -46h-260z
M869.002 0l-154.002 0.00390625v24l50 12c30.667 7.33301 48.5 16.166 53.5 26.499s6.83301 37.166 5.5 80.499l-10 440c0 6.66699 -0.166992 12.167 -0.5 16.5s-0.5 9.16602 -0.5 14.499v23c-1.33301 20 -5.16602 33.167 -11.499 39.5s-22.833 11.833 -49.5 16.5l-40 7v25
h314v-25l-42 -7c-26 -4.66699 -42.5 -10.334 -49.5 -17.001s-11.167 -19.667 -12.5 -39v-23v-31l-11 -440c0 -36 0.5 -58.5 1.5 -67.5s5.33301 -16.5 13 -22.5s22.834 -11.667 45.501 -17l49 -12v-24h-151z" />
    <glyph glyph-name="otilde" unicode="&#x42b;" horiz-adv-x="1078" 
d="M58 0l0.00195312 24l49 12c30.667 7.33301 48.5 16.333 53.5 27s6.5 37.334 4.5 80.001l-10 440c0 14 -0.333008 24.333 -1 31v23c0 18.667 -3.5 31.5 -10.5 38.5s-23.833 12.833 -50.5 17.5l-41 7v25h314v-25l-40 -7c-27.333 -4.66699 -44.333 -10.334 -51 -17.001
s-10 -19.667 -10 -39c0 -5.33301 -0.166992 -9.5 -0.5 -12.5s-0.5 -6.5 -0.5 -10.5v-31l-11 -438l-2 -92c37.333 -8 69 -12 95 -12c137.333 -2 206 65.333 206 202c0 48.667 -9.33301 85 -28 109s-51 37 -97 39c-39.333 2 -76.333 -3.33301 -111 -16
c-7.33301 14 -10.666 26.333 -9.99902 37c50 15.333 100 23.666 150 24.999c43.333 2.66699 90.166 -6.16602 140.499 -26.499s78.166 -63.833 83.499 -130.5c3.33301 -38.667 -4.33398 -79.667 -23.001 -123s-55.167 -80.333 -109.5 -111s-130.833 -46 -229.5 -46h-260z
M869.002 0l-154.002 0.00390625v24l50 12c30.667 7.33301 48.5 16.166 53.5 26.499s6.83301 37.166 5.5 80.499l-10 440c0 6.66699 -0.166992 12.167 -0.5 16.5s-0.5 9.16602 -0.5 14.499v23c-1.33301 20 -5.16602 33.167 -11.499 39.5s-22.833 11.833 -49.5 16.5l-40 7v25
h314v-25l-42 -7c-26 -4.66699 -42.5 -10.334 -49.5 -17.001s-11.167 -19.667 -12.5 -39v-23v-31l-11 -440c0 -36 0.5 -58.5 1.5 -67.5s5.33301 -16.5 13 -22.5s22.834 -11.667 45.501 -17l49 -12v-24h-151z" />
    <glyph glyph-name="uacute" unicode="&#xdc;" horiz-adv-x="752" 
d="M58 0l0.00195312 24l49 12c30.667 7.33301 48.5 16.333 53.5 27s6.5 37.334 4.5 80.001l-10 440c0 14 -0.333008 24.333 -1 31v23c0 18.667 -3.5 31.5 -10.5 38.5s-23.833 12.833 -50.5 17.5l-41 7v25h314v-25l-40 -7c-27.333 -4.66699 -44.333 -10.334 -51 -17.001
s-10 -19.667 -10 -39c0 -5.33301 -0.166992 -9.5 -0.5 -12.5s-0.5 -6.5 -0.5 -10.5v-31l-11 -438v-88c32 -10.667 63.333 -16 94 -16c72 0 124.167 16.667 156.5 50s48.5 84 48.5 152c0 48.667 -9.33301 85 -28 109s-51 37 -97 39c-39.333 2 -76.333 -3.33301 -111 -16
c-7.33301 14 -10.666 26.333 -9.99902 37c50 15.333 100 23.666 150 24.999c43.333 2.66699 90.166 -6.16602 140.499 -26.499s78.166 -63.833 83.499 -130.5c3.33301 -38.667 -4.33398 -79.667 -23.001 -123s-55.167 -80.333 -109.5 -111s-130.833 -46 -229.5 -46h-260z
" />
    <glyph glyph-name="uacute" unicode="&#x42c;" horiz-adv-x="752" 
d="M58 0l0.00195312 24l49 12c30.667 7.33301 48.5 16.333 53.5 27s6.5 37.334 4.5 80.001l-10 440c0 14 -0.333008 24.333 -1 31v23c0 18.667 -3.5 31.5 -10.5 38.5s-23.833 12.833 -50.5 17.5l-41 7v25h314v-25l-40 -7c-27.333 -4.66699 -44.333 -10.334 -51 -17.001
s-10 -19.667 -10 -39c0 -5.33301 -0.166992 -9.5 -0.5 -12.5s-0.5 -6.5 -0.5 -10.5v-31l-11 -438v-88c32 -10.667 63.333 -16 94 -16c72 0 124.167 16.667 156.5 50s48.5 84 48.5 152c0 48.667 -9.33301 85 -28 109s-51 37 -97 39c-39.333 2 -76.333 -3.33301 -111 -16
c-7.33301 14 -10.666 26.333 -9.99902 37c50 15.333 100 23.666 150 24.999c43.333 2.66699 90.166 -6.16602 140.499 -26.499s78.166 -63.833 83.499 -130.5c3.33301 -38.667 -4.33398 -79.667 -23.001 -123s-55.167 -80.333 -109.5 -111s-130.833 -46 -229.5 -46h-260z
" />
    <glyph glyph-name="ugrave" unicode="&#xdd;" horiz-adv-x="811" 
d="M126 744c32 -10 64.999 -14.999 98.999 -14.999c9.33301 0.666992 34.666 3.33398 75.999 8.00098c40 4 70 6.33301 90 7c50 0 100.5 -9 151.5 -27s95.667 -52.5 134 -103.5s57.833 -121.5 58.5 -211.5c1.33301 -66.667 -12.667 -133 -42 -199
s-74.833 -119.667 -136.5 -161s-139.167 -61 -232.5 -59c-38.667 1.33301 -77 5.66602 -115 12.999s-70.333 17.333 -97 30l-7 143l37 10c20.667 -60.667 49.334 -102 86.001 -124s75.334 -33 116.001 -33c36 1.33301 73.833 12.833 113.5 34.5s73.5 58 101.5 109
s43 117.5 45 199.5c3.33301 36.667 -1 55 -13 55c-2 0 -11.667 -8 -29 -24l-17 -17.5l-22 -22.5c-30 -26.667 -58 -40.334 -84 -41.001c-12 -0.666992 -23.333 0.333008 -34 3s-27.334 8 -50.001 16c-59.333 20.667 -96.666 31 -111.999 31
c-14.667 0 -27.667 -3.33301 -39 -10l-15 29c8.66699 6 22.5 13.667 41.5 23s36.333 16.5 52 21.5s29.834 7.5 42.501 7.5c12 0 22 -1.33301 30 -4c6 -1.33301 11.333 -2.83301 16 -4.5l10 -3.5c47.333 -16 81 -24 101 -24c19.333 2 40.166 14.5 62.499 37.5
s35.166 43.833 38.499 62.5c3.33301 22.667 -1.16699 50.167 -13.5 82.5s-34.666 60.5 -66.999 84.5s-74.5 36 -126.5 36c-106 0 -180 -44 -222 -132l-42 -5z" />
    <glyph glyph-name="ugrave" unicode="&#x42d;" horiz-adv-x="811" 
d="M126 744c32 -10 64.999 -14.999 98.999 -14.999c9.33301 0.666992 34.666 3.33398 75.999 8.00098c40 4 70 6.33301 90 7c50 0 100.5 -9 151.5 -27s95.667 -52.5 134 -103.5s57.833 -121.5 58.5 -211.5c1.33301 -66.667 -12.667 -133 -42 -199
s-74.833 -119.667 -136.5 -161s-139.167 -61 -232.5 -59c-38.667 1.33301 -77 5.66602 -115 12.999s-70.333 17.333 -97 30l-7 143l37 10c20.667 -60.667 49.334 -102 86.001 -124s75.334 -33 116.001 -33c36 1.33301 73.833 12.833 113.5 34.5s73.5 58 101.5 109
s43 117.5 45 199.5c3.33301 36.667 -1 55 -13 55c-2 0 -11.667 -8 -29 -24l-17 -17.5l-22 -22.5c-30 -26.667 -58 -40.334 -84 -41.001c-12 -0.666992 -23.333 0.333008 -34 3s-27.334 8 -50.001 16c-59.333 20.667 -96.666 31 -111.999 31
c-14.667 0 -27.667 -3.33301 -39 -10l-15 29c8.66699 6 22.5 13.667 41.5 23s36.333 16.5 52 21.5s29.834 7.5 42.501 7.5c12 0 22 -1.33301 30 -4c6 -1.33301 11.333 -2.83301 16 -4.5l10 -3.5c47.333 -16 81 -24 101 -24c19.333 2 40.166 14.5 62.499 37.5
s35.166 43.833 38.499 62.5c3.33301 22.667 -1.16699 50.167 -13.5 82.5s-34.666 60.5 -66.999 84.5s-74.5 36 -126.5 36c-106 0 -180 -44 -222 -132l-42 -5z" />
    <glyph glyph-name="ucircumflex" unicode="&#xde;" horiz-adv-x="1247" 
d="M209 0l-151.002 -0.00292969v24l49 12c30.667 7.33301 48.5 16.333 53.5 27s6.5 37.334 4.5 80.001l-10 440c0 14 -0.333008 24.333 -1 31v23c0 18.667 -3.5 31.5 -10.5 38.5s-23.833 12.833 -50.5 17.5l-41 7v25h314v-25l-40 -7
c-27.333 -4.66699 -44.333 -10.334 -51 -17.001s-10 -19.667 -10 -39c0 -5.33301 -0.166992 -9.5 -0.5 -12.5s-0.5 -6.5 -0.5 -10.5v-31l-3 -173c18 -5.33301 41 -8 69 -8c36 2.66699 59.333 5.33398 70 8.00098c4 60 21.333 115.333 52 166s74.667 91.334 132 122.001
s124 46 200 46s143.833 -15.833 203.5 -47.5s105.334 -76.167 137.001 -133.5s46.167 -121.666 43.5 -192.999c-2 -85.333 -22.667 -157.166 -62 -215.499s-88.166 -101.5 -146.499 -129.5s-116.833 -42 -175.5 -42c-58 0 -115.5 13.5 -172.5 40.5
s-105.333 68.833 -145 125.5s-61.834 127 -66.501 211c-17.333 2.66699 -41.333 4 -72 4c-10 0 -33 -1.33301 -69 -4l-6 -217c-1.33301 -43.333 0.833984 -70.333 6.50098 -81s23.167 -19.334 52.5 -26.001l49 -12v-24h-152zM784.998 22.9971
c46.667 0 88.668 12.168 126.001 36.501s67.666 62.666 90.999 114.999s36 117.833 38 196.5c0.666992 75.333 -10.5 137.833 -33.5 187.5s-54 86.167 -93 109.5s-82.167 35 -129.5 35c-74 0 -135.5 -27.333 -184.5 -82s-72.5 -138 -70.5 -250
c2 -114 26.833 -200.5 74.5 -259.5s108.167 -88.5 181.5 -88.5z" />
    <glyph glyph-name="ucircumflex" unicode="&#x42e;" horiz-adv-x="1247" 
d="M209 0l-151.002 -0.00292969v24l49 12c30.667 7.33301 48.5 16.333 53.5 27s6.5 37.334 4.5 80.001l-10 440c0 14 -0.333008 24.333 -1 31v23c0 18.667 -3.5 31.5 -10.5 38.5s-23.833 12.833 -50.5 17.5l-41 7v25h314v-25l-40 -7
c-27.333 -4.66699 -44.333 -10.334 -51 -17.001s-10 -19.667 -10 -39c0 -5.33301 -0.166992 -9.5 -0.5 -12.5s-0.5 -6.5 -0.5 -10.5v-31l-3 -173c18 -5.33301 41 -8 69 -8c36 2.66699 59.333 5.33398 70 8.00098c4 60 21.333 115.333 52 166s74.667 91.334 132 122.001
s124 46 200 46s143.833 -15.833 203.5 -47.5s105.334 -76.167 137.001 -133.5s46.167 -121.666 43.5 -192.999c-2 -85.333 -22.667 -157.166 -62 -215.499s-88.166 -101.5 -146.499 -129.5s-116.833 -42 -175.5 -42c-58 0 -115.5 13.5 -172.5 40.5
s-105.333 68.833 -145 125.5s-61.834 127 -66.501 211c-17.333 2.66699 -41.333 4 -72 4c-10 0 -33 -1.33301 -69 -4l-6 -217c-1.33301 -43.333 0.833984 -70.333 6.50098 -81s23.167 -19.334 52.5 -26.001l49 -12v-24h-152zM784.998 22.9971
c46.667 0 88.668 12.168 126.001 36.501s67.666 62.666 90.999 114.999s36 117.833 38 196.5c0.666992 75.333 -10.5 137.833 -33.5 187.5s-54 86.167 -93 109.5s-82.167 35 -129.5 35c-74 0 -135.5 -27.333 -184.5 -82s-72.5 -138 -70.5 -250
c2 -114 26.833 -200.5 74.5 -259.5s108.167 -88.5 181.5 -88.5z" />
    <glyph glyph-name="udieresis" unicode="&#xdf;" horiz-adv-x="815" 
d="M602 0l-155.004 0.00195312v24l50 12c21.333 4 36.166 8.83301 44.499 14.5s13.333 14.167 15 25.5s1.83398 33.666 0.500977 66.999l-14 537c-42 4 -80.833 5.5 -116.5 4.5s-67.5 -6.33301 -95.5 -16s-49.5 -25.334 -64.5 -47.001s-22.167 -51.5 -21.5 -89.5
c0.666992 -39.333 11 -70.5 31 -93.5s46 -38.667 78 -47s72.333 -13.166 121 -14.499l-2 -12c-15.333 -28.667 -45.166 -74 -89.499 -136s-89.5 -118.667 -135.5 -170s-77.667 -76.666 -95 -75.999c-8 0 -16 2 -24 6c-9.33301 3.33301 -21 9.33301 -35 18l-37 21
c-10.667 6.66699 -18.667 12 -24 16l20 30c28.667 -22 47.334 -33 56.001 -33c4.66699 0 9.33398 1.66699 14.001 5c4 1.33301 9 5.66602 15 12.999l9.5 11c3 3.33301 6.5 7.66602 10.5 12.999l64.5 86c21.667 30 45.167 64.5 70.5 103.5s38 62.833 38 71.5
c0 4 -2 6.33301 -6 7c-5.33301 1.33301 -9 2.33301 -11 3c-46 8 -88.667 24.167 -128 48.5s-60.333 67.833 -63 130.5c0 40.667 12.667 80.167 38 118.5s77 60.833 155 67.5c36 4 89 6 159 6h61h227v-25l-43 -7c-19.333 -3.33301 -33.166 -6.83301 -41.499 -10.5
s-13.833 -8.83398 -16.5 -15.501s-4 -16.667 -4 -30v-23c0 -6.66699 -0.166992 -12.167 -0.5 -16.5s-0.5 -9.16602 -0.5 -14.499l-10 -440c-1.33301 -44.667 0.5 -72 5.5 -82s23.167 -18.333 54.5 -25l51 -12v-24h-156z" />
    <glyph glyph-name="udieresis" unicode="&#x42f;" horiz-adv-x="815" 
d="M602 0l-155.004 0.00195312v24l50 12c21.333 4 36.166 8.83301 44.499 14.5s13.333 14.167 15 25.5s1.83398 33.666 0.500977 66.999l-14 537c-42 4 -80.833 5.5 -116.5 4.5s-67.5 -6.33301 -95.5 -16s-49.5 -25.334 -64.5 -47.001s-22.167 -51.5 -21.5 -89.5
c0.666992 -39.333 11 -70.5 31 -93.5s46 -38.667 78 -47s72.333 -13.166 121 -14.499l-2 -12c-15.333 -28.667 -45.166 -74 -89.499 -136s-89.5 -118.667 -135.5 -170s-77.667 -76.666 -95 -75.999c-8 0 -16 2 -24 6c-9.33301 3.33301 -21 9.33301 -35 18l-37 21
c-10.667 6.66699 -18.667 12 -24 16l20 30c28.667 -22 47.334 -33 56.001 -33c4.66699 0 9.33398 1.66699 14.001 5c4 1.33301 9 5.66602 15 12.999l9.5 11c3 3.33301 6.5 7.66602 10.5 12.999l64.5 86c21.667 30 45.167 64.5 70.5 103.5s38 62.833 38 71.5
c0 4 -2 6.33301 -6 7c-5.33301 1.33301 -9 2.33301 -11 3c-46 8 -88.667 24.167 -128 48.5s-60.333 67.833 -63 130.5c0 40.667 12.667 80.167 38 118.5s77 60.833 155 67.5c36 4 89 6 159 6h61h227v-25l-43 -7c-19.333 -3.33301 -33.166 -6.83301 -41.499 -10.5
s-13.833 -8.83398 -16.5 -15.501s-4 -16.667 -4 -30v-23c0 -6.66699 -0.166992 -12.167 -0.5 -16.5s-0.5 -9.16602 -0.5 -14.499l-10 -440c-1.33301 -44.667 0.5 -72 5.5 -82s23.167 -18.333 54.5 -25l51 -12v-24h-156z" />
    <glyph glyph-name="daggerdbl" unicode="&#xe0;" horiz-adv-x="553" 
d="M497 63l13.001 -27c-4.66699 -2 -9 -3.66699 -13 -5c-6 -4.66699 -12.667 -8.66699 -20 -12c-30 -17.333 -47.667 -26 -53 -26c-24.667 -1.33301 -47.334 24.667 -68.001 78c-35.333 -24.667 -69.166 -44.667 -101.499 -60s-62.833 -23 -91.5 -23
c-34 0 -61.5 14 -82.5 42s-31.5 60 -31.5 96c0 32 7.5 54.833 22.5 68.5s36.833 24.834 65.5 33.501l210 68l2 75c1.33301 21.333 -3 39.5 -13 54.5s-35 22.5 -75 22.5c-49.333 0 -77 -15.333 -83 -46c0 -4.66699 -1 -8.33398 -3 -11.001
c-1.33301 -12.667 -6.33301 -24.5 -15 -35.5s-22.667 -16.5 -42 -16.5c-15.333 0 -27.333 4.5 -36 13.5s-12.334 19.833 -11.001 32.5c1.33301 24.667 19 46.167 53 64.5s82.333 27.5 145 27.5c36 2.66699 72.167 -1.83301 108.5 -13.5s57.166 -28.167 62.499 -49.5
c1.33301 -2.66699 2 -6.66699 2 -12s-0.333008 -10.333 -1 -15c-1.33301 -24 -2.66602 -42.667 -3.99902 -56c-1.33301 -33.333 -2.66602 -57.333 -3.99902 -72c0 -14 -0.166992 -29.333 -0.5 -46s-0.833008 -30 -1.5 -40c0 -44 0.333008 -68.667 1 -74
c2 -34 10.333 -51 25 -51c7.33301 0 20.666 5 39.999 15zM347.001 99l-0.00292969 164.001c-7.33301 -4 -16.666 -7 -27.999 -9c-7.33301 -2 -14.666 -4.33301 -21.999 -7l-23 -8c-59.333 -20.667 -97.666 -38.334 -114.999 -53.001s-26 -34.667 -26 -60
c1.33301 -56 21.333 -85.333 60 -88c46 -1.33301 97.333 19 154 61z" />
    <glyph glyph-name="daggerdbl" unicode="&#x2021;" horiz-adv-x="553" 
d="M497 63l13.001 -27c-4.66699 -2 -9 -3.66699 -13 -5c-6 -4.66699 -12.667 -8.66699 -20 -12c-30 -17.333 -47.667 -26 -53 -26c-24.667 -1.33301 -47.334 24.667 -68.001 78c-35.333 -24.667 -69.166 -44.667 -101.499 -60s-62.833 -23 -91.5 -23
c-34 0 -61.5 14 -82.5 42s-31.5 60 -31.5 96c0 32 7.5 54.833 22.5 68.5s36.833 24.834 65.5 33.501l210 68l2 75c1.33301 21.333 -3 39.5 -13 54.5s-35 22.5 -75 22.5c-49.333 0 -77 -15.333 -83 -46c0 -4.66699 -1 -8.33398 -3 -11.001
c-1.33301 -12.667 -6.33301 -24.5 -15 -35.5s-22.667 -16.5 -42 -16.5c-15.333 0 -27.333 4.5 -36 13.5s-12.334 19.833 -11.001 32.5c1.33301 24.667 19 46.167 53 64.5s82.333 27.5 145 27.5c36 2.66699 72.167 -1.83301 108.5 -13.5s57.166 -28.167 62.499 -49.5
c1.33301 -2.66699 2 -6.66699 2 -12s-0.333008 -10.333 -1 -15c-1.33301 -24 -2.66602 -42.667 -3.99902 -56c-1.33301 -33.333 -2.66602 -57.333 -3.99902 -72c0 -14 -0.166992 -29.333 -0.5 -46s-0.833008 -30 -1.5 -40c0 -44 0.333008 -68.667 1 -74
c2 -34 10.333 -51 25 -51c7.33301 0 20.666 5 39.999 15zM347.001 99l-0.00292969 164.001c-7.33301 -4 -16.666 -7 -27.999 -9c-7.33301 -2 -14.666 -4.33301 -21.999 -7l-23 -8c-59.333 -20.667 -97.666 -38.334 -114.999 -53.001s-26 -34.667 -26 -60
c1.33301 -56 21.333 -85.333 60 -88c46 -1.33301 97.333 19 154 61z" />
    <glyph glyph-name="daggerdbl" unicode="&#x430;" horiz-adv-x="553" 
d="M497 63l13.001 -27c-4.66699 -2 -9 -3.66699 -13 -5c-6 -4.66699 -12.667 -8.66699 -20 -12c-30 -17.333 -47.667 -26 -53 -26c-24.667 -1.33301 -47.334 24.667 -68.001 78c-35.333 -24.667 -69.166 -44.667 -101.499 -60s-62.833 -23 -91.5 -23
c-34 0 -61.5 14 -82.5 42s-31.5 60 -31.5 96c0 32 7.5 54.833 22.5 68.5s36.833 24.834 65.5 33.501l210 68l2 75c1.33301 21.333 -3 39.5 -13 54.5s-35 22.5 -75 22.5c-49.333 0 -77 -15.333 -83 -46c0 -4.66699 -1 -8.33398 -3 -11.001
c-1.33301 -12.667 -6.33301 -24.5 -15 -35.5s-22.667 -16.5 -42 -16.5c-15.333 0 -27.333 4.5 -36 13.5s-12.334 19.833 -11.001 32.5c1.33301 24.667 19 46.167 53 64.5s82.333 27.5 145 27.5c36 2.66699 72.167 -1.83301 108.5 -13.5s57.166 -28.167 62.499 -49.5
c1.33301 -2.66699 2 -6.66699 2 -12s-0.333008 -10.333 -1 -15c-1.33301 -24 -2.66602 -42.667 -3.99902 -56c-1.33301 -33.333 -2.66602 -57.333 -3.99902 -72c0 -14 -0.166992 -29.333 -0.5 -46s-0.833008 -30 -1.5 -40c0 -44 0.333008 -68.667 1 -74
c2 -34 10.333 -51 25 -51c7.33301 0 20.666 5 39.999 15zM347.001 99l-0.00292969 164.001c-7.33301 -4 -16.666 -7 -27.999 -9c-7.33301 -2 -14.666 -4.33301 -21.999 -7l-23 -8c-59.333 -20.667 -97.666 -38.334 -114.999 -53.001s-26 -34.667 -26 -60
c1.33301 -56 21.333 -85.333 60 -88c46 -1.33301 97.333 19 154 61z" />
    <glyph glyph-name="periodcentered" unicode="&#xe1;" horiz-adv-x="579" 
d="M102 389l12.002 -0.000976562c31.333 38 67.5 63.167 108.5 75.5s70.833 16.5 89.5 12.5c65.333 0 114.5 -14.5 147.5 -43.5s53.333 -59 61 -90s11.5 -59.5 11.5 -85.5c0 -52.667 -10.333 -99.667 -31 -141s-49.5 -73.166 -86.5 -95.499s-79.167 -33.5 -126.5 -33.5
c-72.667 0 -131.167 24.667 -175.5 74s-66.5 121.333 -66.5 216c0 97.333 15.5 175.333 46.5 234s68 100.5 111 125.5s93.833 44.833 152.5 59.5c24 3.33301 46.667 7.66602 68 12.999c22 5.33301 37 10.166 45 14.499s16.667 12.5 26 24.5l22 -15
c-20 -38 -43.833 -65.333 -71.5 -82s-61.834 -31 -102.501 -43c-7.33301 -1.33301 -17.333 -3.66602 -30 -6.99902s-24.334 -6.66602 -35.001 -9.99902c-45.333 -14.667 -87.5 -37.167 -126.5 -67.5s-55.5 -75.5 -49.5 -135.5zM147.002 242.999
c-5.33301 -147.333 41.665 -221.001 140.998 -221.001c56.667 0 94.334 20.333 113.001 61s28.667 94 30 160c1.33301 64 -6 113.667 -22 149s-51.333 53 -106 53c-60 -0.666992 -100.667 -21.667 -122 -63s-32.666 -87.666 -33.999 -138.999z" />
    <glyph glyph-name="periodcentered" unicode="&#x431;" horiz-adv-x="579" 
d="M102 389l12.002 -0.000976562c31.333 38 67.5 63.167 108.5 75.5s70.833 16.5 89.5 12.5c65.333 0 114.5 -14.5 147.5 -43.5s53.333 -59 61 -90s11.5 -59.5 11.5 -85.5c0 -52.667 -10.333 -99.667 -31 -141s-49.5 -73.166 -86.5 -95.499s-79.167 -33.5 -126.5 -33.5
c-72.667 0 -131.167 24.667 -175.5 74s-66.5 121.333 -66.5 216c0 97.333 15.5 175.333 46.5 234s68 100.5 111 125.5s93.833 44.833 152.5 59.5c24 3.33301 46.667 7.66602 68 12.999c22 5.33301 37 10.166 45 14.499s16.667 12.5 26 24.5l22 -15
c-20 -38 -43.833 -65.333 -71.5 -82s-61.834 -31 -102.501 -43c-7.33301 -1.33301 -17.333 -3.66602 -30 -6.99902s-24.334 -6.66602 -35.001 -9.99902c-45.333 -14.667 -87.5 -37.167 -126.5 -67.5s-55.5 -75.5 -49.5 -135.5zM147.002 242.999
c-5.33301 -147.333 41.665 -221.001 140.998 -221.001c56.667 0 94.334 20.333 113.001 61s28.667 94 30 160c1.33301 64 -6 113.667 -22 149s-51.333 53 -106 53c-60 -0.666992 -100.667 -21.667 -122 -63s-32.666 -87.666 -33.999 -138.999z" />
    <glyph glyph-name="quotesinglbase" unicode="&#xe2;" horiz-adv-x="550" 
d="M36 0l0.00195312 15.998l35 8c17.333 4 28.666 9.83301 33.999 17.5s7.33301 21.167 6 40.5l-9 297c0 4 -0.166992 7.33301 -0.5 10s-0.5 5.33398 -0.5 8.00098s-0.166992 4.83398 -0.5 6.50098s-0.833008 3.16699 -1.5 4.5c-2.66699 16.667 -15.334 27.667 -38.001 33
l-28 7v19h311c85.333 0 131 -29.333 137 -88c4 -57.333 -30.667 -97.333 -104 -120v-10c79.333 -9.33301 119.333 -44 120 -104c0 -38.667 -17 -72.5 -51 -101.5s-96.333 -43.5 -187 -43.5h-223zM184.002 42.998c30 -6 59 -9 87 -9c47.333 0.666992 80.333 10.167 99 28.5
s27.334 45.833 26.001 82.5c0 26 -8.16699 47.833 -24.5 65.5s-48.833 25.167 -97.5 22.5c-18 -0.666992 -35 -4 -51 -10c-3.33301 6 -5 13 -5 21c0 8.66699 1.66699 15.334 5 20.001c62 -4.66699 105.667 3 131 23s37 49.333 35 88
c-1.33301 17.333 -7.33301 31.166 -18 41.499s-32.667 15.5 -66 15.5c-1.33301 0 -15.333 -0.833008 -42 -2.5s-48.334 -3.5 -65.001 -5.5z" />
    <glyph glyph-name="quotesinglbase" unicode="&#x201a;" horiz-adv-x="550" 
d="M36 0l0.00195312 15.998l35 8c17.333 4 28.666 9.83301 33.999 17.5s7.33301 21.167 6 40.5l-9 297c0 4 -0.166992 7.33301 -0.5 10s-0.5 5.33398 -0.5 8.00098s-0.166992 4.83398 -0.5 6.50098s-0.833008 3.16699 -1.5 4.5c-2.66699 16.667 -15.334 27.667 -38.001 33
l-28 7v19h311c85.333 0 131 -29.333 137 -88c4 -57.333 -30.667 -97.333 -104 -120v-10c79.333 -9.33301 119.333 -44 120 -104c0 -38.667 -17 -72.5 -51 -101.5s-96.333 -43.5 -187 -43.5h-223zM184.002 42.998c30 -6 59 -9 87 -9c47.333 0.666992 80.333 10.167 99 28.5
s27.334 45.833 26.001 82.5c0 26 -8.16699 47.833 -24.5 65.5s-48.833 25.167 -97.5 22.5c-18 -0.666992 -35 -4 -51 -10c-3.33301 6 -5 13 -5 21c0 8.66699 1.66699 15.334 5 20.001c62 -4.66699 105.667 3 131 23s37 49.333 35 88
c-1.33301 17.333 -7.33301 31.166 -18 41.499s-32.667 15.5 -66 15.5c-1.33301 0 -15.333 -0.833008 -42 -2.5s-48.334 -3.5 -65.001 -5.5z" />
    </font>
</defs>
</svg>
